<?xml version="1.0" encoding="utf-8"?>
<!-- Generator: Adobe Illustrator 23.0.5, SVG Export Plug-In . SVG Version: 6.00 Build 0)  -->
<svg version="1.1" xmlns="http://www.w3.org/2000/svg" xmlns:xlink="http://www.w3.org/1999/xlink" x="0px" y="0px"
	 viewBox="0 0 500 500" style="enable-background:new 0 0 500 500;" xml:space="preserve">
<style type="text/css">
	.st0{fill:#F5DED0;}
	.st1{fill:#D6ECE1;}
	.st2{fill:#70CACD;}
	.st3{fill:#008EA7;}
	.st4{fill:#FAB217;}
	.st5{fill:#F58A28;}
	.st6{fill:#FFFAEF;}
	.st7{fill:#605575;}
	.st8{fill:#F05757;}
	.st9{fill:#383A45;}
	.st10{font-family:'Gilroy-ExtraBold';}
	.st11{font-size:114.0808px;}
	.st12{fill:#E57373;}
	.st13{fill:#027878;}
	.st14{fill:#9BD5CA;}
	.st15{fill:#FFCC05;}
	.st16{fill:#F9B57C;}
	.st17{fill:#007F86;}
	.st18{fill:#7DD0E6;}
	.st19{fill:#FBE4D3;}
	.st20{display:none;}
	.st21{display:inline;}
	.st22{fill:#1C262D;}
</style>
<g id="BACKGROUND">
	<rect class="st0" width="500" height="500"/>
</g>
<g id="OBJECTS">
	<path class="st1" d="M96.29,151.44c0,0,144.41-128.92,210.5-80.69s11.85,99.94,40.57,100.93s86.44-51.63,111.82,4.97
		c25.38,56.6-78.58,124.83-60.04,127.73c18.54,2.9,49.75-7.33,49.75,13.94c0,21.27-88.49,105.58-148.27,99.77
		s26.53-63.41-8.45-58.17c-34.98,5.24-94.74,86.23-142.14,36.99s41.76-140.08,2.22-127.28C87.17,290.69,10.49,234.67,96.29,151.44z"
		/>
	<g>
		<path class="st2" d="M279.52,153.8c9.59-5.94,5.04-20.48-4.24-25.62c-9.28-5.14-4.71-7.13-4.28-18.84
			c0.71-19.79-11.28-20.56-11.28-20.56s-11.28-0.65-11.28,20.56c0,11.72,5,13.7-4.28,18.84c-9.28,5.14-13.82,19.68-4.24,25.62
			c11.55,7.16-12.88,10.74-8.73,30.84c2.82,13.64,17.68,13.38,28.53,13.64c10.85-0.26,25.71,0,28.53-13.64
			C292.41,164.54,267.97,160.96,279.52,153.8z"/>
		<path class="st3" d="M259.4,194.07c0.25-0.88,1.37-63.26,0-74.86C258.9,115.02,257.28,201.49,259.4,194.07z"/>
		<path class="st3" d="M246.91,134.17c0,0,10.59,15.97,12.29,15.59c1.7-0.37,13.03-15.11,11.87-15.92
			c-0.39-0.27-12.05,14.24-12.05,14.24S246.18,131.28,246.91,134.17z"/>
		<path class="st3" d="M246.91,149.01c0,0,10.59,15.97,12.29,15.59c1.7-0.37,13.03-15.11,11.87-15.92
			c-0.39-0.27-12.05,14.24-12.05,14.24S246.18,146.12,246.91,149.01z"/>
		<path class="st3" d="M246.91,167.77c0,0,10.59,15.97,12.29,15.59c1.7-0.37,13.03-15.11,11.87-15.92
			c-0.39-0.27-12.05,14.24-12.05,14.24S246.18,164.89,246.91,167.77z"/>
	</g>
	<g>
		<path class="st4" d="M334.75,208.16v-23.9H187.61v23.9c-29.04,0-52.67,23.63-52.67,52.67c0,29.04,23.63,52.67,52.67,52.67
			c2.57,0,5.1-0.19,7.58-0.55c10.43,20.76,30.37,35.9,54.11,39.71v59.17h-20.55c-10.63,0-19.25,8.62-19.25,19.25h39.79v0.45h23.53
			v-0.45h39.79c0-10.63-8.62-19.25-19.25-19.25h-20.55v-59.17c23.75-3.81,43.7-18.97,54.12-39.74c2.55,0.38,5.16,0.58,7.81,0.58
			c29.04,0,52.67-23.63,52.67-52.67C387.42,231.79,363.79,208.16,334.75,208.16z M187.61,297.5c-20.22,0-36.67-16.45-36.67-36.67
			s16.45-36.67,36.67-36.67v49.94c-0.15,1.92-0.25,3.85-0.25,5.8c0,6.05,0.74,11.92,2.12,17.54
			C188.86,297.48,188.23,297.5,187.61,297.5z M334.75,297.5c-0.71,0-1.41-0.03-2.11-0.07c1.37-5.62,2.11-11.48,2.11-17.53v-55.74
			c20.22,0,36.67,16.45,36.67,36.67C371.42,281.05,354.97,297.5,334.75,297.5z"/>
		<path class="st5" d="M210.88,231.13c0-17.02,4.44-33.01,12.21-46.87h-35.49v23.9c-29.04,0-52.67,23.63-52.67,52.67
			c0,29.04,23.63,52.67,52.67,52.67c2.57,0,5.1-0.19,7.58-0.55c10.43,20.76,30.37,35.9,54.11,39.71v59.17h-20.55
			c-10.63,0-19.25,8.62-19.25,19.25h39.79v0.45h23.53v-0.45h39.79c0-10.63-8.62-19.25-19.25-19.25h-20.55v-59.17
			c18.21-2.92,34.17-12.52,45.33-26.19c-3.7,0.43-7.45,0.66-11.27,0.66C253.87,327.13,210.88,284.15,210.88,231.13z M187.61,297.5
			c-20.22,0-36.67-16.45-36.67-36.67s16.45-36.67,36.67-36.67v49.94c-0.15,1.92-0.25,3.85-0.25,5.8c0,6.05,0.74,11.92,2.12,17.54
			C188.86,297.48,188.23,297.5,187.61,297.5z"/>
	</g>
	<g>
		<path class="st6" d="M177.64,201.73l-28.91,39.09c-5.64,7.63-0.2,18.43,9.29,18.43h57.82c9.49,0,14.94-10.8,9.29-18.43
			l-28.91-39.09C191.61,195.48,182.26,195.48,177.64,201.73z"/>
		<rect x="178.91" y="146.09" class="st6" width="16.05" height="72.95"/>
		<path class="st6" d="M194.2,144.14h-14.52c-2.69,0-4.89,2.2-4.89,4.89v0c0,2.69,2.2,4.89,4.89,4.89h14.52
			c2.69,0,4.89-2.2,4.89-4.89v0C199.08,146.34,196.89,144.14,194.2,144.14z"/>
		<path class="st7" d="M215.48,240.18l-12.04-16.28h-33l-12.04,16.28c-4.22,5.7-0.15,13.77,6.94,13.77h43.19
			C215.62,253.95,219.69,245.88,215.48,240.18z"/>
	</g>
	<g>
		<path class="st2" d="M86.84,319.51c9.59-5.94,5.04-20.48-4.24-25.62s-4.71-7.13-4.28-18.84c0.71-19.79-11.28-20.56-11.28-20.56
			s-11.28-0.65-11.28,20.56c0,11.72,5,13.7-4.28,18.84s-13.82,19.68-4.24,25.62c11.55,7.16-12.88,10.74-8.73,30.84
			c2.82,13.64,17.68,13.38,28.53,13.64c10.85-0.26,25.71,0,28.53-13.64C99.72,330.25,75.29,326.67,86.84,319.51z"/>
		<path class="st3" d="M66.72,359.78c0.25-0.88,1.37-63.26,0-74.86C66.22,280.73,64.6,367.2,66.72,359.78z"/>
		<path class="st3" d="M54.23,299.88c0,0,10.59,15.97,12.29,15.59s13.03-15.11,11.87-15.92c-0.39-0.27-12.05,14.24-12.05,14.24
			S53.5,296.99,54.23,299.88z"/>
		<path class="st3" d="M54.23,314.72c0,0,10.59,15.97,12.29,15.59s13.03-15.11,11.87-15.92c-0.39-0.27-12.05,14.24-12.05,14.24
			S53.5,311.84,54.23,314.72z"/>
		<path class="st3" d="M54.23,333.49c0,0,10.59,15.97,12.29,15.59c1.7-0.37,13.03-15.11,11.87-15.92
			C78,332.88,66.34,347.4,66.34,347.4S53.5,330.6,54.23,333.49z"/>
	</g>
	<g>
		<rect x="79.78" y="259.79" class="st6" width="149.61" height="171.72"/>
		<rect x="79.78" y="257.58" class="st8" width="149.61" height="26.73"/>
		<rect x="79.78" y="284.6" class="st1" width="149.61" height="11.4"/>
		<g>
			<path class="st9" d="M209.92,274.36L209.92,274.36c-3.17,0-5.77-2.6-5.77-5.77v-15.87c0-3.17,2.6-5.77,5.77-5.77h0
				c3.17,0,5.77,2.6,5.77,5.77v15.87C215.69,271.76,213.1,274.36,209.92,274.36z"/>
			<path class="st9" d="M99.24,274.36L99.24,274.36c-3.17,0-5.77-2.6-5.77-5.77v-15.87c0-3.17,2.6-5.77,5.77-5.77h0
				c3.17,0,5.77,2.6,5.77,5.77v15.87C105.01,271.76,102.42,274.36,99.24,274.36z"/>
		</g>
		<text transform="matrix(1 0 0 1 93.4713 397.4485)" class="st9 st10 st11">25</text>
	</g>
	<g>
		
			<rect x="290.79" y="328.34" transform="matrix(4.488036e-11 1 -1 4.488036e-11 722.3139 94.0412)" class="st2" width="46.69" height="159.67"/>
		
			<rect x="374.08" y="393.48" transform="matrix(4.488835e-11 1 -1 4.488835e-11 778.4421 10.7547)" class="st3" width="19.53" height="2.23"/>
		
			<rect x="357.28" y="393.48" transform="matrix(4.488835e-11 1 -1 4.488835e-11 761.6448 27.5521)" class="st3" width="19.53" height="2.23"/>
		
			<rect x="384.66" y="388.51" transform="matrix(4.518501e-11 1 -1 4.518501e-11 779.0743 0.1718)" class="st3" width="9.58" height="2.23"/>
		
			<rect x="373.72" y="388.51" transform="matrix(4.518501e-11 1 -1 4.518501e-11 768.1345 11.1117)" class="st3" width="9.58" height="2.23"/>
		
			<rect x="368.05" y="388.51" transform="matrix(4.480575e-11 1 -1 4.480575e-11 762.4671 16.779)" class="st3" width="9.58" height="2.23"/>
		
			<rect x="339.88" y="393.48" transform="matrix(4.488835e-11 1 -1 4.488835e-11 744.2426 44.9542)" class="st3" width="19.53" height="2.23"/>
		
			<rect x="356.32" y="388.51" transform="matrix(4.480575e-11 1 -1 4.480575e-11 750.7323 28.5139)" class="st3" width="9.58" height="2.23"/>
		
			<rect x="350.65" y="388.51" transform="matrix(4.480575e-11 1 -1 4.480575e-11 745.0649 34.1812)" class="st3" width="9.58" height="2.23"/>
		
			<rect x="322.15" y="393.48" transform="matrix(4.488835e-11 1 -1 4.488835e-11 726.5184 62.6785)" class="st3" width="19.53" height="2.23"/>
		
			<rect x="338.59" y="388.51" transform="matrix(4.480575e-11 1 -1 4.480575e-11 733.008 46.2381)" class="st3" width="9.58" height="2.23"/>
		
			<rect x="332.93" y="388.51" transform="matrix(4.480575e-11 1 -1 4.480575e-11 727.3407 51.9055)" class="st3" width="9.58" height="2.23"/>
		
			<rect x="304.75" y="393.48" transform="matrix(4.507487e-11 1 -1 4.507487e-11 709.1161 80.0807)" class="st3" width="19.53" height="2.23"/>
		
			<rect x="321.19" y="388.51" transform="matrix(4.480575e-11 1 -1 4.480575e-11 715.6058 63.6403)" class="st3" width="9.58" height="2.23"/>
		
			<rect x="315.52" y="388.51" transform="matrix(4.480575e-11 1 -1 4.480575e-11 709.9385 69.3076)" class="st3" width="9.58" height="2.23"/>
		
			<rect x="286.37" y="393.48" transform="matrix(4.488835e-11 1 -1 4.488835e-11 690.7339 98.4629)" class="st3" width="19.53" height="2.23"/>
		
			<rect x="302.81" y="388.51" transform="matrix(4.480575e-11 1 -1 4.480575e-11 697.2236 82.0225)" class="st3" width="9.58" height="2.23"/>
		
			<rect x="297.14" y="388.51" transform="matrix(4.480575e-11 1 -1 4.480575e-11 691.5563 87.6899)" class="st3" width="9.58" height="2.23"/>
		
			<rect x="268.97" y="393.48" transform="matrix(4.507487e-11 1 -1 4.507487e-11 673.3318 115.8651)" class="st3" width="19.53" height="2.23"/>
		
			<rect x="285.41" y="388.51" transform="matrix(4.480575e-11 1 -1 4.480575e-11 679.8214 99.4247)" class="st3" width="9.58" height="2.23"/>
		
			<rect x="279.74" y="388.51" transform="matrix(4.480575e-11 1 -1 4.480575e-11 674.1541 105.092)" class="st3" width="9.58" height="2.23"/>
		
			<rect x="251.07" y="393.48" transform="matrix(4.488835e-11 1 -1 4.488835e-11 655.439 133.7578)" class="st3" width="19.53" height="2.23"/>
		
			<rect x="267.52" y="388.51" transform="matrix(4.480575e-11 1 -1 4.480575e-11 661.9287 117.3174)" class="st3" width="9.58" height="2.23"/>
		
			<rect x="261.85" y="388.51" transform="matrix(4.480575e-11 1 -1 4.480575e-11 656.2614 122.9848)" class="st3" width="9.58" height="2.23"/>
		
			<rect x="233.67" y="393.48" transform="matrix(4.484217e-11 1 -1 4.484217e-11 638.0369 151.16)" class="st3" width="19.53" height="2.23"/>
		
			<rect x="250.11" y="388.51" transform="matrix(4.518501e-11 1 -1 4.518501e-11 644.5266 134.7196)" class="st3" width="9.58" height="2.23"/>
		
			<rect x="244.45" y="388.51" transform="matrix(4.480575e-11 1 -1 4.480575e-11 638.8592 140.3869)" class="st3" width="9.58" height="2.23"/>
	</g>
	<g>
		<path class="st2" d="M445.74,309.73c9.59-5.94,5.04-20.48-4.24-25.62c-9.28-5.14-4.71-7.13-4.28-18.84
			c0.71-19.79-11.28-20.56-11.28-20.56s-11.28-0.65-11.28,20.56c0,11.72,5,13.7-4.28,18.84s-13.82,19.68-4.24,25.62
			c11.55,7.16-12.88,10.74-8.73,30.84c2.82,13.64,17.68,13.38,28.53,13.64c10.85-0.26,25.71,0,28.53-13.64
			C458.63,320.47,434.19,316.89,445.74,309.73z"/>
		<path class="st3" d="M425.62,350c0.25-0.88,1.37-63.26,0-74.86C425.13,270.95,423.5,357.42,425.62,350z"/>
		<path class="st3" d="M413.13,290.1c0,0,10.59,15.97,12.29,15.59c1.7-0.37,13.03-15.11,11.87-15.92
			c-0.39-0.27-12.05,14.24-12.05,14.24S412.41,287.22,413.13,290.1z"/>
		<path class="st3" d="M413.13,304.94c0,0,10.59,15.97,12.29,15.59c1.7-0.37,13.03-15.11,11.87-15.92
			c-0.39-0.27-12.05,14.24-12.05,14.24S412.41,302.06,413.13,304.94z"/>
		<path class="st3" d="M413.13,323.71c0,0,10.59,15.97,12.29,15.59c1.7-0.37,13.03-15.11,11.87-15.92
			c-0.39-0.27-12.05,14.24-12.05,14.24S412.41,320.83,413.13,323.71z"/>
	</g>
	<g>
		<path class="st6" d="M368.66,322.73h-15.7c-2.69,0-4.89,2.2-4.89,4.89l0,0c0,2.08,1.32,3.86,3.15,4.56v66.15
			c0,5.29,4.29,9.58,9.58,9.58s9.58-4.29,9.58-9.58v-66.15c1.84-0.7,3.15-2.48,3.15-4.56l0,0
			C373.54,324.93,371.34,322.73,368.66,322.73z"/>
		<path class="st8" d="M360.81,404.65L360.81,404.65c-3.91,0-7.11-3.2-7.11-7.11v-31.8c0-3.91,3.2-7.11,7.11-7.11h0
			c3.91,0,7.11,3.2,7.11,7.11v31.8C367.92,401.45,364.72,404.65,360.81,404.65z"/>
		<rect x="353.69" y="341.23" class="st8" width="14.22" height="24.09"/>
		<path class="st6" d="M397.52,322.73h-15.7c-2.69,0-4.89,2.2-4.89,4.89l0,0c0,2.08,1.32,3.86,3.15,4.56v66.15
			c0,5.29,4.29,9.58,9.58,9.58s9.58-4.29,9.58-9.58v-66.15c1.84-0.7,3.15-2.48,3.15-4.56l0,0
			C402.41,324.93,400.21,322.73,397.52,322.73z"/>
		<path class="st2" d="M389.67,404.65L389.67,404.65c-3.91,0-7.11-3.2-7.11-7.11v-11.02c0-3.91,3.2-7.11,7.11-7.11h0
			c3.91,0,7.11,3.2,7.11,7.11v11.02C396.78,401.45,393.58,404.65,389.67,404.65z"/>
		<rect x="382.56" y="371.23" class="st2" width="14.22" height="24.09"/>
		<path class="st6" d="M426.68,322.73h-15.7c-2.69,0-4.89,2.2-4.89,4.89l0,0c0,2.08,1.32,3.86,3.15,4.56v66.15
			c0,5.29,4.29,9.58,9.58,9.58s9.58-4.29,9.58-9.58v-66.15c1.84-0.7,3.15-2.48,3.15-4.56l0,0
			C431.57,324.93,429.37,322.73,426.68,322.73z"/>
		<path class="st4" d="M418.83,404.65L418.83,404.65c-3.91,0-7.11-3.2-7.11-7.11v-11.02c0-3.91,3.2-7.11,7.11-7.11l0,0
			c3.91,0,7.11,3.2,7.11,7.11v11.02C425.95,401.45,422.75,404.65,418.83,404.65z"/>
		<rect x="411.72" y="344.95" class="st4" width="14.22" height="50.37"/>
		<rect x="324.01" y="327.8" class="st7" width="18.5" height="103"/>
		<rect x="438.63" y="327.8" class="st7" width="18.5" height="103"/>
		
			<rect x="383.95" y="299.29" transform="matrix(5.270077e-11 1 -1 5.270077e-11 753.119 -33.2906)" class="st7" width="18.5" height="121.25"/>
		<path class="st7" d="M456.71,420.69h-17.66c-2.91,0-5.26,4.85-5.26,10.83h28.18C461.97,425.54,459.61,420.69,456.71,420.69z"/>
		<path class="st7" d="M342.09,420.69h-17.66c-2.91,0-5.26,4.85-5.26,10.83h28.18C347.35,425.54,345,420.69,342.09,420.69z"/>
	</g>
	<g>
		<path class="st7" d="M188.09,392.85H56.16c-10.01,0-18.13-8.12-18.13-18.13v0c0-10.01,8.12-18.13,18.13-18.13h131.93V392.85z"/>
		<rect x="51.27" y="362.73" class="st6" width="136.77" height="23.98"/>
		<rect x="51.27" y="362.95" class="st1" width="136.77" height="13.25"/>
	</g>
	<g>
		<path class="st12" d="M240.78,362.68c0,0-0.46-1.95-1.97-1.07s-0.12,3.39,1.43,3.99C241.78,366.19,240.78,362.68,240.78,362.68z"
			/>
		<path class="st12" d="M251.41,362.38c0,0,0.46-1.95,1.97-1.07c1.52,0.88,0.12,3.39-1.43,3.99
			C250.42,365.89,251.41,362.38,251.41,362.38z"/>
		<path class="st12" d="M251.86,356.94c0.21,0.75-0.42,12.11-5.17,13.29c-4.75,1.17-6.74-7.69-6.41-12.82
			C240.61,352.29,250.08,350.69,251.86,356.94z"/>
		<path class="st9" d="M260.99,435.75l4.9,1.39c-0.13,0.82-2.05,9.45-2.61,9.46c-0.56,0-0.35-6.95-0.35-6.95s-2.12-0.3-2.39-0.47
			C260.3,439.03,260.99,435.75,260.99,435.75z"/>
		<path class="st9" d="M225.39,436.94l-4.82,1.67c0.17,0.81,2.58,9.32,3.14,9.3s-0.05-6.95-0.05-6.95s2.1-0.42,2.36-0.61
			C226.27,440.17,225.39,436.94,225.39,436.94z"/>
		<path class="st13" d="M241,419.52c0,0,25.38-11.3,37.53-1.84c15.82,12.33-53.14,23.5-53.14,23.5l-1.85-4.07
			c0,0,46.79-17.99,39.45-15.14S232.45,429.7,241,419.52z"/>
		<path class="st13" d="M247.81,417.33c0,0-28.38-8.52-40.59,0.85c-12.22,9.37,53.45,24.36,53.45,24.36l2.52-6.54
			c0,0-46.01-17.01-38.73-14.03C236.04,426.69,256.37,427.51,247.81,417.33z"/>
		<path class="st12" d="M236.04,385.14c0,0-21.42,11.53-17.55,20.29c3.87,8.76,13.51,13.76,14.73,15.59
			c1.22,1.83,1.85,4.67,1.85,4.67s-0.96-1-4.26-2.02c-3.3-1.02-19.2-9.53-19.2-20.5s17.78-25.16,20.99-26.9
			C235.82,374.51,236.04,385.14,236.04,385.14z"/>
		<path class="st12" d="M257.03,384.77c0,0,18.61,13.82,14.75,22.57c-3.87,8.76-11.67,11.84-12.89,13.67s-1.85,4.67-1.85,4.67
			s0.96-1,4.26-2.02s17.87-9.2,17.87-20.17c0-10.97-16.44-25.49-19.66-27.23C256.28,374.51,257.03,384.77,257.03,384.77z"/>
		<path class="st7" d="M229.02,421.59h31.2c0,0,1.88-44.48-0.56-45.82c-8.01-4.37-27.02-2-27.98,0
			C230.71,377.77,229.02,421.59,229.02,421.59z"/>
		<path class="st1" d="M228.96,407.88c0,0-1.16,21.51,0,21.94c1.16,0.43,30.01,0.4,31.07,0c1.06-0.4,0.76-21.94,0.76-21.94
			S237.63,406.67,228.96,407.88z"/>
		<path class="st14" d="M228.96,428.28c0,0-1.16,2.53,0,2.58c1.16,0.05,30.01,0.05,31.07,0s0.76-2.58,0.76-2.58
			S237.63,428.14,228.96,428.28z"/>
		<path class="st12" d="M248.91,364.89c0,0,1.49,8.45,0.93,9.37c-0.56,0.92-2.06,2.85-3.45,2.85s-2.95-2.85-3.05-3.31
			c-0.1-0.46,0-10.23,0-10.23S247.33,361.64,248.91,364.89z"/>
		<path class="st9" d="M241.47,354.25c0,0,0.94-4.12,3.49-3.71s6.38-0.29,7.6,1.05c1.22,1.34,1.76,4.27-0.89,4.82
			c-2.65,0.54-8.83-2.56-9.6-0.09c-2.01,6.41,0.76,9.5,0.76,9.5c1.59,0.41,6.11,0.07,7.13-0.52c1.93-1.12-0.01-9.98,0.9-9.88
			c0.92,0.1,1.63,0.53,1.53,2.76c-0.1,2.23-0.62,12.44-2.55,13.22c-1.31,0.53-6.1,0.32-6.87-0.37c-1.47-1.33-4.33-11.43-3.51-13.87
			C240.28,354.71,240.29,354.35,241.47,354.25z"/>
		<path class="st7" d="M235.14,386.86c0,0-7.53,6.36-8.91,7.54s-7.75-5.48-7.75-6.68c0-1.2,12.2-11.36,13.19-11.95
			C232.67,375.18,235.89,381.5,235.14,386.86z"/>
		<path class="st7" d="M256.19,386.86c0,0,7.53,6.36,8.91,7.54s7.75-5.48,7.75-6.68c0-1.2-12.2-11.36-13.19-11.95
			C258.66,375.18,255.44,381.5,256.19,386.86z"/>
	</g>
	<g>
		<path class="st12" d="M125.09,175.32c0,0-20.32,9.79-36.75,3c-16.33-6.75-18.25-6.68-20.75-5.59c-2.5,1.09,3.71-5.91,16.25,0
			c3.84,1.81,24.09,1.84,39.81-9.02C123.64,163.71,128.77,172.33,125.09,175.32z"/>
		<path class="st12" d="M162.17,119.06c0,0,2.77-1.78,4.76-1.38c1.99,0.4,2.32-1.85,2.32-1.85s0.43,2.45-2.32,3.23
			c-2.76,0.77-5.01,0.3-4.76,5.91c0.25,5.61,12.53,38.61-13.74,45.88c0,0-5.01-9.07-4.26-11.3c0.75-2.22,12.28-8.06,12.52-17.77
			C156.92,132.09,157.41,120.44,162.17,119.06z"/>
		<path class="st9" d="M117.89,200.28c0,0-5.32,13.26-19.38,14.84c-14.06,1.58-24.95-13.38-24.95-13.38l-5.17,3.26
			c0,0,6.92,17.87,25.41,21.87s31.47-9.96,31.47-9.96s3.9,2.1,2.4,18.07c-1.88,20.05-3.75,31.61-3.75,31.61h6.18
			c0,0,8.87-21.24,10.35-36.45c1.73-17.72-1.28-26.77-1.28-26.77L117.89,200.28z"/>
		<path class="st9" d="M73.43,203.1l-3.11-3.61c-0.64,0.43-7.2,5.46-6.99,5.94c0.22,0.48,6.02-2.44,6.02-2.44s1.09,1.68,1.34,1.84
			C70.92,204.98,73.43,203.1,73.43,203.1z"/>
		<path class="st9" d="M125.32,265.72l0.4,4.75c0.77,0.03,9.04-0.2,9.14-0.71s-6.31-1.56-6.31-1.56s0.1-2-0.01-2.28
			C128.45,265.67,125.32,265.72,125.32,265.72z"/>
		<path class="st4" d="M114.79,205.49c0,0,8.11-20.89,8.25-37.25c0.11-12,24.37-9.64,25.2-4.3c1.86,11.9-6.91,51.01-6.91,51.01
			L114.79,205.49z"/>
		<path class="st4" d="M139.91,159.89c0,0,9.76-5.67,10.23-5.95c0.47-0.29,10.47,9.78,10.47,9.78s-9.07,9.35-13.92,9.77
			C141.84,173.91,137.49,160.24,139.91,159.89z"/>
		<path class="st4" d="M108.47,169.43c0,0,0.84,10.49,1.67,11.04c0.84,0.55,15.53-2.8,16.72-4.11c1.19-1.31,2.83-15.53,2.05-15.16
			C128.13,161.57,109.67,168.83,108.47,169.43z"/>
		<path class="st12" d="M135.53,148.93c0,0-0.1-2.86-1.43-2.58c-1.33,0.27-2.29,3.08-1.58,4.11
			C133.24,151.49,135.55,151.31,135.53,148.93z"/>
		<path class="st12" d="M144.38,145.62c0,0,2.75,7.9-2.01,9.23c-4.76,1.33-3.89-3.71-3.7-2.76c0.19,0.95,1.4,8.79,1.4,8.79
			s-2.41,3.07-6.95,0.41c-0.72-0.42,1.94-12.66,2.49-18.88C135.84,139.71,142.66,142.42,144.38,145.62z"/>
		<path class="st9" d="M136.06,139.98c0,0,1.07-3.7,3.35-2.83c2.28,0.87,1.97,2.12,3.62,1.42s3.34,1.89,2.47,3.54
			c-1.15,2.17-1.13,2.83-4.28,2.12c-3.15-0.71-4.8-1.81-5.51-0.55c-0.71,1.26,0.55,4.48-0.39,4.88c-0.94,0.39-0.87-2.12-1.57-1.18
			c-0.71,0.94-1.81,3.36,0.08,3.05c1.89-0.3,0.49,2.22-0.23,2.14c-0.72-0.08-4-2.77-3.63-6.37c0.24-2.28,2.63-1.1,1.97-2.75
			C131.28,141.79,132.79,138.25,136.06,139.98z"/>
	</g>
	<g>
		<path class="st4" d="M188.43,429H56.5c-10.01,0-18.13-8.12-18.13-18.13v0c0-10.01,8.12-18.13,18.13-18.13h131.93V429z"/>
		<path class="st5" d="M188.09,392.85H55.94c-9.7,0-17.56,7.86-17.56,17.56v0h149.71V392.85z"/>
		<rect x="59.73" y="392.75" class="st7" width="14.23" height="36.49"/>
		<rect x="164.91" y="392.75" class="st7" width="14.23" height="36.49"/>
		<rect x="84.4" y="399.21" class="st7" width="67.97" height="20.72"/>
	</g>
	<g>
		<path class="st2" d="M380.92,243.09l-13.78-9.17c-3.93-2.62-5.01-7.98-2.39-11.91l16.38-24.61c2.62-3.93,7.98-5.01,11.91-2.39
			l13.78,9.17c3.93,2.62,5.01,7.98,2.39,11.91l-16.38,24.61C390.21,244.63,384.85,245.7,380.92,243.09z"/>
		<g>
			<path class="st8" d="M325.92,332.07l-18.74-12.47c-2.57-1.71-3.27-5.21-1.56-7.78l19.68-29.57c1.71-2.57,5.21-3.27,7.78-1.56
				l18.74,12.47c2.57,1.71,3.27,5.21,1.56,7.78l-19.68,29.57C331.99,333.08,328.49,333.78,325.92,332.07z"/>
			<rect x="341.7" y="381.56" class="st6" width="27.06" height="49.14"/>
			<rect x="341.7" y="385.98" class="st9" width="27.06" height="18.14"/>
			<path class="st9" d="M383.05,414.95h-55.64c-9.15,0-16.57,7.42-16.57,16.57v0h88.78v0C399.62,422.37,392.2,414.95,383.05,414.95z
				"/>
			<path class="st6" d="M351.68,394.79c-23.73,0-45.06-13.2-55.67-34.44c-1.97-3.95-0.37-8.76,3.58-10.73
				c3.95-1.98,8.76-0.37,10.73,3.58c7.88,15.78,23.72,25.59,41.35,25.59c25.47,0,46.19-20.72,46.19-46.19
				c0-25.47-20.72-46.19-46.19-46.19c-4.42,0-8-3.58-8-8s3.58-8,8-8c34.29,0,62.19,27.9,62.19,62.19
				C413.87,366.89,385.97,394.79,351.68,394.79z"/>
			<rect x="263.8" y="347.67" class="st9" width="85.65" height="13.16"/>
			<path class="st9" d="M336.53,325.45l-28.29-18.83c-2.35-1.57-3-4.77-1.43-7.13l61.58-92.52c1.57-2.35,4.77-3,7.13-1.43
				l28.29,18.83c2.35,1.57,3,4.77,1.43,7.13l-61.58,92.52C342.09,326.37,338.88,327.01,336.53,325.45z"/>
			<circle class="st2" cx="367.68" cy="279.18" r="14.48"/>
			<circle class="st9" cx="367.68" cy="278.65" r="7.24"/>
		</g>
	</g>
	<circle class="st7" cx="204.15" cy="123.96" r="8.29"/>
	<circle class="st7" cx="215.57" cy="102.62" r="10.44"/>
	<circle class="st7" cx="442.01" cy="266.6" r="10.44"/>
	<circle class="st8" cx="373.15" cy="309.66" r="8.67"/>
	<circle class="st4" cx="403.44" cy="275" r="8.67"/>
	<g>
		<circle class="st15" cx="153.17" cy="66.37" r="23.68"/>
		<path class="st15" d="M159.32,101.04l-6.15-34.66l-23.31,4.14c0,0,1.9,11.46,11.49,17.23c7.18,4.32,9.06,14.88,9.06,14.88
			L159.32,101.04z"/>
		<path class="st15" d="M159.17,101.06l-6.15-34.66l23.31-4.14c0,0,2.16,11.41-4.86,20.13c-5.26,6.53-3.38,17.08-3.38,17.08
			L159.17,101.06z"/>
		<path class="st6" d="M152.59,102.74c-0.27,0.05-0.53-0.13-0.58-0.4l-4.37-24.62c-0.04-0.24,0.09-0.48,0.32-0.56
			c0.23-0.08,0.48,0.01,0.6,0.22c1.49,2.63,3.27,4.9,3.82,4.88c-0.01-0.01,0.12-0.14,0.22-0.69c-0.1-0.15-0.19-0.32-0.27-0.5
			c-0.65-1.39-1-4.13-0.17-4.64c0.23-0.14,0.5-0.12,0.72,0.04c0.63,0.49,0.93,3.11,0.76,4.82c0.35,0.42,0.74,0.53,1.22,0.37
			c0.39-0.13,0.68-0.41,0.86-0.81c-0.68-0.64-1.13-1.53-1.35-2.33c-0.26-0.94-0.29-2.11,0.39-2.56c0.27-0.18,0.59-0.18,0.88,0
			c0.82,0.5,1.46,2.56,1.28,4.17c-0.01,0.12-0.03,0.23-0.05,0.34c0.26,0.14,0.54,0.23,0.85,0.25c0.3,0.02,0.54-0.11,0.72-0.36
			c-0.76-1.2-1.43-2.85-1.37-3.87c0.04-0.74,0.44-1.02,0.68-1.12c0.4-0.17,0.83-0.06,1.17,0.29c0.78,0.81,1.2,3.09,0.67,4.61
			c0.18,0.25,0.35,0.44,0.47,0.54c0.35-0.68,0.72-3.35,0.87-5.65c0.02-0.25,0.22-0.45,0.47-0.47c0.25-0.01,0.48,0.16,0.52,0.41
			l4.09,23.05c0.05,0.27-0.13,0.53-0.4,0.58c-0.27,0.05-0.53-0.13-0.58-0.4l-3.47-19.55c-0.22,1.4-0.54,2.62-1,2.96
			c-0.12,0.09-0.43,0.26-0.87,0.02c-0.2-0.11-0.42-0.31-0.65-0.58c-0.36,0.37-0.83,0.55-1.38,0.53c-0.41-0.02-0.79-0.13-1.13-0.29
			c-0.3,0.57-0.77,0.98-1.36,1.18c-0.65,0.22-1.26,0.15-1.78-0.2c-0.26,0.65-0.65,0.82-0.95,0.84c-0.97,0.07-2.31-1.55-3.38-3.14
			l3.91,22.03C153.04,102.43,152.86,102.69,152.59,102.74z M155.25,76.95c-0.07,0.25-0.09,0.8,0.16,1.55
			c0.12,0.38,0.31,0.76,0.55,1.11C155.97,78.45,155.55,77.33,155.25,76.95z M158.13,76.31c-0.01,0.02-0.09,0.2-0.02,0.67
			c0.1,0.63,0.38,1.37,0.72,2.03C158.9,77.67,158.41,76.4,158.13,76.31z"/>
		<path class="st6" d="M171.04,64.46c-0.05,0.01-0.11,0.02-0.16,0.02c-1.09,0.09-2.09-0.86-2.22-2.11
			c-1.07-10.26-8.34-11.07-8.65-11.1c-1.1-0.1-1.96-1.2-1.92-2.46c0.04-1.25,0.96-2.19,2.07-2.08c3.8,0.36,11.3,4.03,12.47,15.31
			C172.75,63.25,172.05,64.29,171.04,64.46z"/>
		
			<rect x="150.92" y="98.18" transform="matrix(0.9846 -0.1748 0.1748 0.9846 -16.047 29.6357)" class="st9" width="18.62" height="15.5"/>
		
			<rect x="154.31" y="106.38" transform="matrix(0.9846 -0.1748 0.1748 0.9846 -17.0708 29.8744)" class="st9" width="13.53" height="10.96"/>
		<circle class="st6" cx="154.57" cy="47.58" r="2.19"/>
	</g>
	<g>
		<path class="st7" d="M107.01,309.78c0,0,8.62,1.22,14.32,8.6l-5.28,5.06c0,0-8.74-3.07-8.74-5.34
			C107.32,317.22,107.01,309.78,107.01,309.78z"/>
		<path class="st12" d="M109.35,303.18c0.2-0.35,0.54-1.63,2.61-0.87c2.07,0.77,2.21-2.34,2.63-2.03c0.42,0.3,0.53,1.89-0.36,2.58
			c-0.89,0.69-4.12,0.79-3.79,2.49c0.33,1.7,16.14,12.62,14.81,15.63c-1.33,3.02-4.49,3.52-7.16,1.45
			C115.39,320.36,106.67,307.89,109.35,303.18z"/>
		<path class="st12" d="M100.62,297.34c0,0-0.1-2.86-1.43-2.58c-1.33,0.27-2.29,3.08-1.58,4.11
			C98.33,299.9,100.64,299.73,100.62,297.34z"/>
		<path class="st9" d="M137.76,374.77l0.57,4.73c0.77,0,9.03-0.52,9.11-1.03s-6.36-1.33-6.36-1.33s0.03-2.01-0.09-2.28
			C140.89,374.61,137.76,374.77,137.76,374.77z"/>
		<path class="st9" d="M125.29,382.82l-1.25,4.6c0.72,0.29,8.56,2.91,8.83,2.47c0.27-0.45-5.4-3.62-5.4-3.62s0.78-1.85,0.78-2.14
			C128.25,383.85,125.29,382.82,125.29,382.82z"/>
		<path class="st7" d="M101.61,309.28c0,0-6.09-0.38-9.14,1.9c-3.05,2.28-2.09,46.26-2.09,46.26l19.61-4.57
			c0,0,1.33-40.55-1.14-42.26C106.36,308.9,101.61,309.28,101.61,309.28z"/>
		<path class="st8" d="M90.38,351.53c0,0,32.17-26.08,43.02-14.66c10.85,11.42,7.99,39.59,7.99,39.59h-4.57
			c0,0-1.71-31.98-9.14-33.69c-7.42-1.71-15.17,7.49-15.17,7.49s11.37-2.35,17.65,3.55c4.39,4.12-1.33,31.79-1.33,31.79h-4.57
			c0,0,3.63-28.35-2.75-28.17c-6.38,0.19-31.13,0-31.13,0V351.53z"/>
		<polygon class="st16" points="73.43,352.61 135.31,307.23 153.38,302.17 141.2,316.44 78.38,362.12 		"/>
		<polygon class="st4" points="135.31,307.23 132.88,312.06 137.76,312.41 137,316.15 141.2,316.44 78.45,362.95 73.43,352.61 		"/>
		<polygon class="st9" points="143.41,304.96 146.97,309.68 153.38,302.17 		"/>
		<path class="st12" d="M85.58,326.95c0,0-1.37,15.63,2.25,15.76c3.62,0.13,16.04-6.64,17.25-6.87c2.02-0.38,4.09,1.12,4.3,0.95
			s-0.25-2.81-4.59-3.45c-3.57-0.53-12.95,3.28-13.66,1.75c-0.71-1.53,2.23-23.91,2.23-23.91S85.33,313.84,85.58,326.95z"/>
		<path class="st7" d="M83.43,324.69c0,0,7.65,3.45,8.72,2.26c1.07-1.19,4.63-17.39,4.63-17.39S86.64,309.68,83.43,324.69z"/>
		<path class="st12" d="M108.84,290.75c0,0,3.37,11.18-1.38,12.51s-3.89-3.71-3.7-2.76c0.19,0.95,1.4,8.79,1.4,8.79
			s-2.41,3.07-6.95,0.41c-0.72-0.42,1.94-12.66,2.49-18.88C100.93,288.12,107.13,287.55,108.84,290.75z"/>
		<path class="st9" d="M84.93,301.25c2.75-4.41,7.56-2.34,7.66-6.52c0.1-4.18,4.84-10.5,13.34-8.06c4.07,1.17,3.91,3.82,0.13,3.73
			s-3.91,2.85-4.22,4.34c-0.31,1.49-1.29,3.16-1.55,2.37c-0.99-3.01-2.21-1.47-2.21-1.47s-1.45,2.37,0,3.05s2.02-0.14,2.21,0.85
			c0.18,0.99,1.23,6.96-2.91,7.13c-4.14,0.17-2.73,2.68-7.27,3.62C85.56,311.24,82.43,305.27,84.93,301.25z"/>
	</g>
	<g>
		<path class="st9" d="M359.44,180.03l0.48,4.74c0.77,0.01,9.03-0.35,9.13-0.86c0.1-0.51-6.34-1.45-6.34-1.45s0.07-2-0.04-2.28
			C362.57,179.93,359.44,180.03,359.44,180.03z"/>
		<path class="st9" d="M342.61,219.41l-0.96,4.67c0.73,0.25,8.72,2.38,8.97,1.92c0.25-0.46-5.61-3.29-5.61-3.29s0.67-1.89,0.64-2.19
			C345.63,220.25,342.61,219.41,342.61,219.41z"/>
		<path class="st17" d="M327.87,160.78c0,0,12.29-23.92,26.42-22.25c14.13,1.67,9.95,41.9,9.95,41.9h-5.54c0,0-1.2-29.52-6.03-29.45
			s-20.97,22.65-20.97,22.65s21.03-1.79,23.85,12.54c3.43,17.42-8.57,35.4-8.57,35.4l-6.78-0.26c0,0,12.93-30.41,5.64-34.86
			c-11.22-6.85-32.83,5.46-41.4-10.69L327.87,160.78z"/>
		<path class="st12" d="M312.12,128.86c0,0,15.32,5.73,23.15,2.45s16.66-19.49,21.66-19.68c5-0.19,5.19-1.97,5.19-1.97
			s-0.39,4.47-3.64,4.64s-7.12,18.77-19.64,23.74c-12.51,4.97-25.55,0.97-25.55,0.97S310.38,130.93,312.12,128.86z"/>
		<path class="st7" d="M318.92,128.2c0,0-26.49-9.72-14.46,47.56c0,0,27.52-8.79,23.41-14.98c-2.86-4.31-3.95-1.42-4.52-8.38
			C322.78,145.44,338.45,144.59,318.92,128.2z"/>
		<g>
			<path class="st9" d="M307.47,106.02c0.13-0.38,4.7-7.31,12.04-2.77c3.09,1.92,3.14,5.56,6.94,6.5c3.81,0.94,9.34-2.72,11.31,3.58
				s-0.28,8.02,3.13,8.72c3.41,0.71,6,0.28,5.17,5.13c-1.19,6.97-11.87,7.17-13.18,3.21c-3.31-10.02-8.95,1.84-11.81-7.07
				C319.63,118.82,300.6,125.74,307.47,106.02z"/>
			<path class="st12" d="M316.5,115.83c0,0,1.43-2.58,2.76-2.31c1.33,0.27,0.96,2.81,0.25,3.84
				C318.79,118.39,316.48,118.21,316.5,115.83z"/>
			<path class="st12" d="M306.86,111.67c0,0-1.96,8.75,2.8,10.08c4.76,1.33,3.89-3.71,3.7-2.76c-0.19,0.95-1.4,8.79-1.4,8.79
				s2.41,3.07,6.95,0.41c0.72-0.42-1.94-12.66-2.49-18.88C316.19,106.61,308.5,106.09,306.86,111.67z"/>
		</g>
		<path class="st12" d="M314.95,138.45c0,0,14.57,7.44,22.72,5.08c8.15-2.36,18.78-17.46,23.76-17.07s5.38-1.37,5.38-1.37
			s-0.9,4.39-4.15,4.2s-9.22,17.83-22.23,21.34c-13,3.51-25.5-1.96-25.5-1.96S312.98,140.31,314.95,138.45z"/>
		<path class="st7" d="M318.92,128.2c0,0,6.7,3.94,7.73,4c1.03,0.07,0,6.97,0,6.97S317.31,134.54,318.92,128.2z"/>
		<path class="st7" d="M312.95,135.84c0,0,8.87,3.44,9.44,4.69c0.58,1.25-0.99,11.8-3.36,11.14c-2.37-0.66-10.37-2-10.53-7.16
			C308.34,139.34,309.99,134.63,312.95,135.84z"/>
		<g>
			<circle class="st8" cx="362.12" cy="105.15" r="22.43"/>
			<g>
				<path class="st6" d="M355.22,105.14c0.01,0.33,0.02,0.67,0.02,1h6.38v-1H355.22z"/>
				<path class="st6" d="M362.62,105.14v1H369c0-0.33,0.01-0.67,0.02-1H362.62z"/>
				<path class="st6" d="M384.52,106.14c0.01-0.33,0.02-0.66,0.02-0.99c0,0,0-0.01,0-0.01h-14.53c-0.01,0.33-0.02,0.67-0.02,1
					H384.52z"/>
				<path class="st6" d="M339.69,105.14c0,0,0,0.01,0,0.01c0,0.33,0.01,0.66,0.02,0.99h14.53c0-0.33-0.01-0.67-0.02-1H339.69z"/>
				<path class="st6" d="M362.62,82.73c-0.17,0-0.33-0.01-0.5-0.01c-0.17,0-0.33,0.01-0.5,0.01v22.4v1v21.43
					c0.17,0,0.33,0.01,0.5,0.01c0.17,0,0.33-0.01,0.5-0.01v-21.43v-1V82.73z"/>
				<path class="st6" d="M369.99,106.39c0-0.09,0-0.17,0-0.26c0-0.33,0.01-0.67,0.02-1c0.26-7.06,2.71-13.3,6.37-17.29
					c-0.25-0.21-0.51-0.41-0.77-0.61c-3.81,4.18-6.34,10.62-6.6,17.9c-0.01,0.33-0.02,0.67-0.02,1c0,0.09,0,0.17,0,0.26
					c0,6.92,2.05,13.16,5.33,17.57c0.27-0.18,0.54-0.36,0.81-0.55C371.97,119.17,369.99,113.12,369.99,106.39z"/>
				<path class="st6" d="M348.62,87.24c-0.26,0.2-0.52,0.4-0.77,0.61c3.67,4,6.11,10.23,6.37,17.29c0.01,0.33,0.02,0.67,0.02,1
					c0,0.09,0,0.17,0,0.26c0,6.72-1.98,12.78-5.14,17.02c0.27,0.19,0.54,0.37,0.81,0.55c3.28-4.41,5.33-10.65,5.33-17.57
					c0-0.09,0-0.17,0-0.26c0-0.33-0.01-0.67-0.02-1C354.96,97.86,352.43,91.42,348.62,87.24z"/>
			</g>
		</g>
	</g>
	<path class="st15" d="M147.27,32.92c-0.74,0.13-1.25,0.85-1.11,1.59l0.61,3.45c0.13,0.74,0.85,1.25,1.59,1.11s1.25-0.85,1.11-1.59
		l-0.61-3.45C148.74,33.29,148.02,32.79,147.27,32.92z"/>
	<path class="st15" d="M157.62,32.26c-0.75-0.11-1.45,0.41-1.56,1.16l-0.51,3.46c-0.11,0.75,0.41,1.45,1.16,1.56
		c0.75,0.11,1.45-0.41,1.56-1.16l0.51-3.46C158.89,33.08,158.37,32.38,157.62,32.26z"/>
	<path class="st15" d="M167.95,34.2c-0.64-0.41-1.49-0.23-1.9,0.41l-1.9,2.94c-0.41,0.64-0.23,1.49,0.41,1.9
		c0.64,0.41,1.49,0.23,1.9-0.41l1.9-2.94C168.77,35.46,168.58,34.61,167.95,34.2z"/>
	<path class="st15" d="M174.99,39.77c-0.56-0.5-1.44-0.45-1.94,0.11l-2.33,2.61c-0.5,0.56-0.45,1.44,0.11,1.94s1.44,0.45,1.94-0.11
		l2.33-2.61C175.6,41.14,175.56,40.27,174.99,39.77z"/>
	<path class="st15" d="M181.71,47.94c-0.3-0.69-1.11-1.02-1.81-0.72l-3.22,1.38c-0.69,0.3-1.02,1.11-0.72,1.81
		c0.3,0.69,1.11,1.02,1.81,0.72l3.22-1.38C181.69,49.44,182.01,48.63,181.71,47.94z"/>
	<path class="st15" d="M186.28,55.58c-0.1-0.75-0.79-1.29-1.54-1.19l-3.47,0.44c-0.75,0.1-1.29,0.79-1.19,1.54s0.79,1.29,1.54,1.19
		l3.47-0.44C185.84,57.02,186.37,56.33,186.28,55.58z"/>
	<path class="st15" d="M187.83,64.53c-0.01-0.76-0.64-1.36-1.4-1.35l-3.5,0.07c-0.76,0.01-1.36,0.64-1.35,1.4
		c0.01,0.76,0.64,1.36,1.4,1.35l3.5-0.07C187.24,65.92,187.85,65.29,187.83,64.53z"/>
	<path class="st15" d="M187.26,73.07c0.18-0.74-0.28-1.48-1.02-1.66l-3.4-0.82c-0.74-0.18-1.48,0.28-1.66,1.02
		c-0.18,0.74,0.28,1.48,1.02,1.66l3.4,0.82C186.34,74.26,187.08,73.81,187.26,73.07z"/>
	<path class="st15" d="M185.19,81.71c0.37-0.66,0.13-1.5-0.53-1.87l-3.06-1.7c-0.66-0.37-1.5-0.13-1.87,0.53
		c-0.37,0.66-0.13,1.5,0.53,1.87l3.06,1.7C183.98,82.61,184.83,82.37,185.19,81.71z"/>
	<path class="st15" d="M179.51,87.62c0.62-0.43,0.78-1.29,0.35-1.91l-1.98-2.88c-0.43-0.62-1.29-0.78-1.91-0.35
		c-0.62,0.43-0.78,1.29-0.35,1.91l1.98,2.88C178.03,87.89,178.89,88.05,179.51,87.62z"/>
	<path class="st15" d="M138.51,35.66c0.66-0.36,1.5-0.11,1.86,0.55l1.67,3.08c0.36,0.66,0.11,1.5-0.55,1.86
		c-0.66,0.36-1.5,0.11-1.86-0.55l-1.67-3.08C137.6,36.86,137.85,36.02,138.51,35.66z"/>
	<path class="st15" d="M129.48,41.03c0.46-0.6,1.32-0.72,1.93-0.27l2.79,2.11c0.6,0.46,0.72,1.32,0.27,1.93
		c-0.46,0.6-1.32,0.72-1.93,0.27l-2.79-2.11C129.15,42.5,129.03,41.63,129.48,41.03z"/>
	<path class="st15" d="M124.78,48.68c0.36-0.67,1.19-0.92,1.86-0.57l3.09,1.65c0.67,0.36,0.92,1.19,0.57,1.86
		c-0.36,0.67-1.19,0.92-1.86,0.57l-3.09-1.65C124.68,50.18,124.43,49.35,124.78,48.68z"/>
	<path class="st15" d="M121.28,58.66c0.04-0.76,0.69-1.34,1.45-1.3l3.49,0.19c0.76,0.04,1.34,0.69,1.3,1.45
		c-0.04,0.76-0.69,1.34-1.45,1.3l-3.49-0.19C121.83,60.07,121.24,59.42,121.28,58.66z"/>
	<path class="st15" d="M119.63,67.41c-0.17-0.74,0.3-1.48,1.03-1.65l3.41-0.78c0.74-0.17,1.48,0.3,1.65,1.03s-0.3,1.48-1.03,1.65
		l-3.41,0.78C120.54,68.61,119.8,68.15,119.63,67.41z"/>
	<path class="st15" d="M121.25,76.35c-0.25-0.71,0.14-1.5,0.85-1.75l3.31-1.14c0.71-0.25,1.5,0.14,1.75,0.85s-0.14,1.5-0.85,1.75
		L123,77.2C122.28,77.45,121.5,77.07,121.25,76.35z"/>
	<path class="st15" d="M124.73,84.17c-0.42-0.63-0.25-1.49,0.38-1.91l2.91-1.94c0.63-0.42,1.49-0.25,1.91,0.38
		c0.42,0.63,0.25,1.49-0.38,1.91l-2.91,1.94C126,84.97,125.14,84.8,124.73,84.17z"/>
	<path class="st15" d="M129.64,91.57c-0.57-0.49-0.64-1.37-0.14-1.94l2.28-2.65c0.49-0.57,1.37-0.64,1.94-0.14
		c0.57,0.49,0.64,1.37,0.14,1.94l-2.28,2.65C131.09,92,130.21,92.06,129.64,91.57z"/>
	<path class="st15" d="M137.01,95.17c-0.73-0.19-1.18-0.94-0.99-1.67l0.87-3.39c0.19-0.73,0.94-1.18,1.67-0.99
		c0.73,0.19,1.18,0.94,0.99,1.67l-0.87,3.39C138.5,94.91,137.74,95.35,137.01,95.17z"/>
	<g>
		<g>
			<g>
				<path class="st9" d="M281.9,343.1l-0.04,4.76c-0.77,0.09-9.03,0.49-9.17-0.01c-0.14-0.5,6.17-2.03,6.17-2.03
					s-0.25-1.99-0.17-2.27C278.77,343.29,281.9,343.1,281.9,343.1z"/>
				<path class="st9" d="M293.67,343.11l-0.19,4.76c-0.77,0.06-9.04,0.21-9.17-0.3c-0.13-0.51,6.23-1.84,6.23-1.84s-0.19-2-0.1-2.28
					C290.54,343.2,293.67,343.11,293.67,343.11z"/>
				<path class="st18" d="M299.28,284.39c0,0,5.9-42.29,0.01-48.3c-9.21-9.4-25.29-2.36-25.94-1.28c-2.64,4.38-2.88,48.5-2.88,48.5
					L299.28,284.39z"/>
				<path class="st9" d="M270.47,283.31c0,0-13.77,17.69-11.48,26.6c2.28,8.91,18,34.4,18,34.4h6.67c0,0-14.26-31.53-13.18-34.79
					c1.08-3.26,14.41-16.4,14.41-16.4s0.77,34.99,4.86,51.19h4.65c0,0,4.94-39.12,4.9-61.73L270.47,283.31z"/>
				<path class="st19" d="M293.66,232.44l-0.88,77.14h7.57c0,0,2.6-68.86,1.56-72.63S293.66,232.44,293.66,232.44z"/>
				<path class="st19" d="M259.65,300.19l4.45,3.39c0,0,13.25-18.8,12.88-21c-0.37-2.2,1.8-50.14,1.8-50.14s-4.8,0.21-5.77,3.86
					c-2.88,10.89-2.54,44.59-2.54,44.59S263.54,291.84,259.65,300.19z"/>
				<path class="st12" d="M287.2,218.98c0,0,0.1-2.86,1.43-2.58c1.33,0.27,2.29,3.08,1.58,4.11
					C289.49,221.54,287.18,221.37,287.2,218.98z"/>
				<path class="st12" d="M278.35,215.68c0,0-2.75,7.9,2.01,9.23s3.89-3.71,3.7-2.76c-0.19,0.95-1.09,10.07-1.09,10.07
					s2.09,1.8,6.64-0.86c0,0-1.94-12.66-2.49-18.88C286.89,209.76,280.07,212.48,278.35,215.68z"/>
				<path class="st9" d="M286.67,210.04c0,0-1.07-3.7-3.35-2.83c-2.28,0.87-1.97,2.12-3.62,1.42s-3.34,1.89-2.47,3.54
					c1.15,2.17,1.13,2.83,4.28,2.12c3.15-0.71,4.8-1.81,5.51-0.55s-0.55,4.48,0.39,4.88s0.87-2.12,1.57-1.18
					c0.71,0.94,1.81,3.36-0.08,3.05c-1.89-0.3-0.49,2.22,0.23,2.14c0.72-0.08,4-2.77,3.63-6.37c-0.24-2.28-2.63-1.1-1.97-2.75
					C291.45,211.85,289.94,208.31,286.67,210.04z"/>
			</g>
			<path class="st12" d="M302.15,284.39c0,0-4.11-2.92,1.27-8.67c4.5-4.81,15.54-16.67,11.73-21c-3.81-4.33-13-7.7-13-7.7
				l-1.89-12.29c0,0,20.29,7.87,24.41,19.12c3.9,10.63-18.39,23.32-20.27,24.92C301.89,280.9,302.15,284.39,302.15,284.39z"/>
			<path class="st12" d="M273.36,234.81c0,0-21.43,6.78-22.43,21.78c-1,15,19.62,20.6,18.29,23.13c-1.08,2.07-4.54,2.74-3.54,2.6
				s6.48,1.97,4.87-5.13c-1.62-7.1-17.03-12.35-10.12-21.6c3.69-4.94,11.15-7.58,11.15-7.58S272.37,238.08,273.36,234.81z"/>
			<path class="st19" d="M301.01,248l9.92,3.59c0,0,6.06-7.33,5.66-7.64c-0.39-0.31-10.28-8.91-20.85-11.13
				C295.74,232.81,298.51,245.88,301.01,248z"/>
			<path class="st19" d="M274.67,248c0,0-7.33,2.17-10.67,5.34c0,0-7.74-8.13-7.55-8.33c0.19-0.2,7.09-8.08,20.35-12.19L274.67,248z
				"/>
		</g>
		<path class="st9" d="M277.22,222.05c0,0,1.49-1.23,3.24,0c1.75,1.23,6.6-0.42,6.4-3.9l1.43-0.82c0,0-1.21,8.82-6.08,9.44
			S276.47,222.45,277.22,222.05z"/>
	</g>
</g>
<g id="DESIGNED_BY_FREEPIK_1_" class="st20">
	<g class="st21">
		<g id="XMLID_319_">
			<g id="XMLID_338_">
				<path id="XMLID_346_" class="st22" d="M260.1,465.46c-0.43,0.44-0.8,0.93-1.11,1.45l-0.46-0.24c-0.07-0.3-0.35-0.5-0.66-0.47
					c-0.33,0.04-0.57,0.34-0.53,0.67c0.04,0.33,0.34,0.57,0.67,0.53c0.07-0.01,0.13-0.03,0.18-0.05l0.45,0.23
					c-0.25,0.55-0.43,1.14-0.54,1.74l0.75,0.13c0.23-1.3,0.85-2.51,1.79-3.47L260.1,465.46z"/>
				<path id="XMLID_345_" class="st22" d="M265.59,463.16c-0.17,0-0.34,0.01-0.51,0.02l-0.07-0.63c0.19-0.15,0.3-0.39,0.27-0.64
					c-0.04-0.39-0.4-0.67-0.79-0.63c-0.39,0.05-0.67,0.4-0.63,0.8c0.03,0.25,0.19,0.46,0.4,0.56l0.07,0.63
					c-0.71,0.12-1.4,0.33-2.06,0.64l0.33,0.69c0.94-0.45,1.94-0.67,3-0.67c0.5,0,0.99,0.05,1.47,0.16l0.16-0.74
					C266.69,463.22,266.14,463.16,265.59,463.16z"/>
				<path id="XMLID_344_" class="st22" d="M272.19,465.71c0.33-0.04,0.57-0.34,0.53-0.67c-0.04-0.33-0.34-0.57-0.67-0.53
					c-0.31,0.04-0.54,0.3-0.53,0.61l-0.42,0.36c-0.42-0.43-0.89-0.81-1.41-1.14l-0.4,0.64c1.13,0.71,2.02,1.73,2.56,2.93l0.69-0.31
					c-0.25-0.55-0.57-1.07-0.94-1.54l0.4-0.35C272.06,465.71,272.13,465.72,272.19,465.71z"/>
				<path id="XMLID_343_" class="st22" d="M265.04,473.37c-0.39,0.02-0.78,0.04-1.16,0.04c-0.88,0-1.73-0.06-2.48-0.18
					c-0.39-0.06-0.85-0.15-1.27-0.29c1.05,1.86,3.07,3.13,5.39,3.13c2.86,0,5.26-1.92,5.95-4.5c-0.68,0.45-1.51,0.83-2.46,1.12
					C267.84,473.05,266.46,473.29,265.04,473.37z"/>
				<path id="XMLID_339_" class="st22" d="M265.59,464.68c-3.35,0-6.08,2.67-6.08,5.94c0,0.43,0.05,0.85,0.14,1.26
					c0.67,0.48,2.71,0.89,5.35,0.73c2.88-0.17,5.3-0.96,6.67-2.16c0-0.2-0.02-0.39-0.05-0.58
					C271.24,466.91,268.65,464.68,265.59,464.68z M263.43,471.2c-1.02,0-1.85-0.83-1.85-1.85c0-1.02,0.83-1.85,1.85-1.85
					c1.02,0,1.85,0.83,1.85,1.85C265.28,470.37,264.45,471.2,263.43,471.2z M268.17,470.29c-0.75,0-1.36-0.61-1.36-1.36
					s0.61-1.36,1.36-1.36s1.36,0.61,1.36,1.36S268.92,470.29,268.17,470.29z"/>
			</g>
			<path id="XMLID_336_" class="st22" d="M281.6,466.55c-0.29-0.12-0.81-0.31-1.38-0.24c-0.55,0.07-0.84,0.34-0.84,1.01v0.87h2.23
				v1.72h-2.23v5.46h-1.93v-5.46h-1.34v-1.72h1.34v-0.89c0-1.68,0.89-2.78,2.57-2.78c0.64,0,1.16,0.12,1.59,0.31V466.55z"/>
			<path id="XMLID_334_" class="st22" d="M286.3,469.88c-0.18-0.03-0.36-0.05-0.53-0.05c-0.89,0-1.51,0.55-1.51,1.61v3.91h-1.93
				v-7.17h1.87v0.79c0.45-0.67,1.14-0.98,2.02-0.98c0.41,0,0.85,0.13,1.1,0.34L286.3,469.88z"/>
			<path id="XMLID_331_" class="st22" d="M293.96,471.76c0,0.22-0.02,0.49-0.04,0.65h-5.08c0.21,1.04,0.93,1.49,1.84,1.49
				c0.62,0,1.3-0.25,1.81-0.69l1.13,1.24c-0.81,0.75-1.85,1.09-3.06,1.09c-2.2,0-3.72-1.5-3.72-3.75c0-2.26,1.48-3.8,3.63-3.8
				C292.54,467.99,293.96,469.52,293.96,471.76z M288.85,471.09h3.17c-0.18-0.92-0.73-1.44-1.56-1.44
				C289.55,469.65,289.02,470.2,288.85,471.09z"/>
			<path id="XMLID_328_" class="st22" d="M301.62,471.76c0,0.22-0.02,0.49-0.04,0.65h-5.09c0.21,1.04,0.93,1.49,1.84,1.49
				c0.62,0,1.3-0.25,1.81-0.69l1.13,1.24c-0.81,0.75-1.85,1.09-3.06,1.09c-2.2,0-3.72-1.5-3.72-3.75c0-2.26,1.48-3.8,3.63-3.8
				C300.2,467.99,301.61,469.52,301.62,471.76z M296.5,471.09h3.18c-0.18-0.92-0.73-1.44-1.56-1.44
				C297.21,469.65,296.67,470.2,296.5,471.09z"/>
			<path id="XMLID_325_" class="st22" d="M309.96,471.76c0,2.15-1.5,3.78-3.47,3.78c-0.96,0-1.64-0.38-2.11-0.93v3.71h-1.92v-10.13
				h1.89v0.79c0.47-0.59,1.15-0.98,2.14-0.98C308.47,467.99,309.96,469.61,309.96,471.76z M304.29,471.76
				c0,1.13,0.75,1.98,1.84,1.98c1.14,0,1.85-0.88,1.85-1.98c0-1.09-0.71-1.97-1.85-1.97C305.04,469.79,304.29,470.63,304.29,471.76z
				"/>
			<path id="XMLID_322_" class="st22" d="M313.07,465.84c0,0.7-0.54,1.23-1.24,1.23c-0.7,0-1.23-0.53-1.23-1.23
				c0-0.7,0.53-1.24,1.23-1.24C312.53,464.59,313.07,465.14,313.07,465.84z M312.81,475.35h-1.93v-7.17h1.93V475.35z"/>
			<path id="XMLID_320_" class="st22" d="M316.03,470.74l2.7-2.55h2.37l-3.48,3.38l3.5,3.8h-2.38l-2.72-2.9v2.9h-1.93V464.7h1.93
				V470.74z"/>
		</g>
		<g>
			<path class="st22" d="M184.41,475.29v-1.05c-0.53,0.72-1.39,1.23-2.39,1.23c-1.85,0-3.15-1.41-3.15-3.71
				c0-2.26,1.29-3.72,3.15-3.72c0.95,0,1.82,0.47,2.39,1.24v-3.76h1.1v9.77H184.41z M184.41,473.37v-3.21
				c-0.39-0.62-1.24-1.14-2.12-1.14c-1.42,0-2.27,1.17-2.27,2.74c0,1.57,0.85,2.72,2.27,2.72
				C183.17,474.48,184.02,473.99,184.41,473.37z"/>
			<path class="st22" d="M186.93,471.74c0-2.05,1.46-3.71,3.49-3.71c2.14,0,3.4,1.67,3.4,3.79v0.28h-5.73
				c0.09,1.33,1.03,2.45,2.55,2.45c0.81,0,1.63-0.32,2.18-0.89l0.53,0.72c-0.7,0.7-1.65,1.08-2.81,1.08
				C188.44,475.46,186.93,473.96,186.93,471.74z M190.4,468.95c-1.51,0-2.26,1.27-2.31,2.36h4.64
				C192.72,470.25,192.01,468.95,190.4,468.95z"/>
			<path class="st22" d="M194.61,474.35l0.57-0.79c0.47,0.54,1.36,1.01,2.33,1.01c1.08,0,1.67-0.51,1.67-1.22
				c0-1.71-4.38-0.66-4.38-3.28c0-1.1,0.95-2.04,2.64-2.04c1.2,0,2.05,0.45,2.62,1.03l-0.51,0.76c-0.42-0.51-1.2-0.89-2.11-0.89
				c-0.97,0-1.57,0.48-1.57,1.11c0,1.55,4.38,0.53,4.38,3.28c0,1.19-0.95,2.14-2.78,2.14C196.31,475.46,195.32,475.11,194.61,474.35
				z"/>
			<path class="st22" d="M201.48,466.47c0-0.41,0.34-0.75,0.73-0.75c0.41,0,0.75,0.34,0.75,0.75c0,0.41-0.34,0.73-0.75,0.73
				C201.81,467.2,201.48,466.88,201.48,466.47z M201.67,475.29v-7.07h1.1v7.07H201.67z"/>
			<path class="st22" d="M204.58,477.11l0.56-0.82c0.59,0.7,1.29,0.97,2.3,0.97c1.17,0,2.27-0.57,2.27-2.12v-1.01
				c-0.51,0.72-1.38,1.26-2.37,1.26c-1.85,0-3.15-1.38-3.15-3.66c0-2.27,1.29-3.68,3.15-3.68c0.95,0,1.8,0.47,2.37,1.24v-1.07h1.1
				v6.87c0,2.34-1.64,3.08-3.37,3.08C206.24,478.16,205.42,477.93,204.58,477.11z M209.71,473.25v-3.09
				c-0.38-0.62-1.23-1.14-2.11-1.14c-1.42,0-2.27,1.13-2.27,2.7c0,1.55,0.85,2.7,2.27,2.7
				C208.48,474.41,209.33,473.87,209.71,473.25z"/>
			<path class="st22" d="M217.41,475.29v-4.63c0-1.24-0.63-1.64-1.58-1.64c-0.86,0-1.68,0.53-2.09,1.1v5.17h-1.1v-7.07h1.1v1.03
				c0.5-0.59,1.46-1.2,2.52-1.2c1.48,0,2.26,0.75,2.26,2.29v4.96H217.41z"/>
			<path class="st22" d="M219.93,471.74c0-2.05,1.46-3.71,3.49-3.71c2.14,0,3.4,1.67,3.4,3.79v0.28h-5.73
				c0.09,1.33,1.02,2.45,2.55,2.45c0.81,0,1.63-0.32,2.18-0.89l0.53,0.72c-0.7,0.7-1.66,1.08-2.81,1.08
				C221.44,475.46,219.93,473.96,219.93,471.74z M223.4,468.95c-1.51,0-2.26,1.27-2.31,2.36h4.64
				C225.72,470.25,225.02,468.95,223.4,468.95z"/>
			<path class="st22" d="M233.35,475.29v-1.05c-0.53,0.72-1.39,1.23-2.39,1.23c-1.85,0-3.15-1.41-3.15-3.71
				c0-2.26,1.29-3.72,3.15-3.72c0.95,0,1.82,0.47,2.39,1.24v-3.76h1.1v9.77H233.35z M233.35,473.37v-3.21
				c-0.4-0.62-1.25-1.14-2.12-1.14c-1.42,0-2.27,1.17-2.27,2.74c0,1.57,0.85,2.72,2.27,2.72
				C232.1,474.48,232.95,473.99,233.35,473.37z"/>
			<path class="st22" d="M239.69,475.29v-9.77h1.1v3.76c0.57-0.78,1.42-1.24,2.39-1.24c1.85,0,3.15,1.46,3.15,3.72
				c0,2.3-1.3,3.71-3.15,3.71c-1,0-1.86-0.51-2.39-1.23v1.05H239.69z M242.9,474.48c1.44,0,2.29-1.16,2.29-2.72
				c0-1.57-0.85-2.74-2.29-2.74c-0.86,0-1.73,0.53-2.11,1.14v3.21C241.17,473.99,242.04,474.48,242.9,474.48z"/>
			<path class="st22" d="M247.53,477.06c0.16,0.07,0.43,0.12,0.6,0.12c0.48,0,0.81-0.16,1.05-0.75l0.47-1.07l-2.96-7.15h1.19
				l2.36,5.8l2.34-5.8h1.2l-3.54,8.51c-0.42,1.03-1.14,1.42-2.08,1.44c-0.23,0-0.6-0.04-0.81-0.1L247.53,477.06z"/>
		</g>
	</g>
</g>
</svg>
