<?xml version="1.0" encoding="utf-8"?>
<!-- Generator: Adobe Illustrator 23.0.5, SVG Export Plug-In . SVG Version: 6.00 Build 0)  -->
<svg version="1.1" xmlns="http://www.w3.org/2000/svg" xmlns:xlink="http://www.w3.org/1999/xlink" x="0px" y="0px"
	 viewBox="0 0 500 500" style="enable-background:new 0 0 500 500;" xml:space="preserve">
<style type="text/css">
	.st0{fill:#F5DED0;}
	.st1{fill:#CEE3EA;}
	.st2{fill:#46A4F9;}
	.st3{fill:#0274F2;}
	.st4{fill:#FFFFFF;}
	.st5{fill:#0072D8;}
	.st6{fill:#FF5059;}
	.st7{fill:#D3262F;}
	.st8{fill:#FFFFFF;stroke:#231F20;stroke-width:1.0411;stroke-miterlimit:10;}
	.st9{fill:#76CBFF;}
	.st10{fill:#34ACE8;}
	.st11{fill:#2E4059;}
	.st12{fill:#202C3F;}
	.st13{fill:#151E2B;}
	.st14{fill:#ED565D;}
	.st15{fill:#C6DAE5;}
	.st16{fill:#D62B33;}
	.st17{fill:none;}
	.st18{fill:#5CC2FD;}
	.st19{fill:#32578E;}
	.st20{fill:#E2A286;}
	.st21{fill:#FFB43B;}
	.st22{fill:#FCD2BB;}
	.st23{fill:#FFCC33;}
	.st24{fill:#323232;}
	.st25{fill:#232323;}
	.st26{fill:#313131;}
	.st27{fill:#464646;}
	.st28{enable-background:new    ;}
	.st29{fill:#363636;}
	.st30{fill:#D82B34;}
	.st31{fill:#BC8068;}
	.st32{fill:#273C59;}
	.st33{fill:#5E5E5E;}
	.st34{fill:#827F7B;}
	.st35{fill:#F5F5F5;}
	.st36{fill:#FFD550;}
	.st37{fill:#1E8AC6;}
	.st38{fill:#C3DAE2;}
	.st39{fill:#3295E0;}
</style>
<g id="BACKGROUND">
	<rect x="-0.2" class="st0" width="500" height="500"/>
</g>
<g id="OBJECTS">
	<ellipse class="st1" cx="254.46" cy="318.86" rx="216.78" ry="103.28"/>
	<g>
		<g>
			<g>
				<polygon class="st2" points="58.61,164.37 58.61,278.66 114.42,246.13 114.42,131.84 				"/>
				<g>
					<polygon class="st3" points="58.61,164.37 58.61,278.66 63.78,275.65 63.78,161.36 					"/>
				</g>
				<g>
					<polygon class="st4" points="60.09,166.16 60.09,272.58 124.46,141.82 113.42,135.08 					"/>
				</g>
				<polygon class="st2" points="72.19,172.28 72.19,286.58 128,254.05 128,139.75 				"/>
				<polygon class="st5" points="58.61,164.37 72.19,172.28 72.19,286.58 58.61,278.66 				"/>
			</g>
			<g>
				<polygon class="st3" points="72.19,172.28 72.19,286.58 79.61,282.25 79.61,167.96 				"/>
			</g>
		</g>
		<g>
			<g>
				<g>
					<polygon class="st6" points="46.34,213.94 46.34,328.23 102.15,295.7 102.15,181.41 					"/>
					<g>
						<polygon class="st4" points="47.81,215.73 47.81,322.15 112.19,191.38 101.15,184.65 						"/>
					</g>
					<polygon class="st6" points="59.91,221.85 59.91,336.14 115.73,303.61 115.73,189.32 					"/>
					<polygon class="st7" points="46.34,213.94 59.91,221.85 59.91,336.14 46.34,328.23 					"/>
				</g>
				<polygon class="st4" points="66.17,223.91 66.17,239.73 93.83,223.61 93.83,207.79 				"/>
				<polygon class="st4" points="66.17,246.61 66.17,262.44 93.83,246.32 93.83,230.5 				"/>
				<polygon class="st6" points="66.17,269.32 66.17,285.15 93.83,269.03 93.83,253.2 				"/>
			</g>
			<g>
				<polygon class="st6" points="103.66,196.36 103.66,310.65 112.19,305.68 112.19,191.38 				"/>
			</g>
		</g>
	</g>
	<g>
		<g>
			<g>
				<g>
					<polygon class="st2" points="145.02,238.74 240.39,183.15 303.78,220.1 208.41,275.68 					"/>
					<polygon class="st5" points="145.02,238.74 145.02,216.81 240.39,161.23 240.39,183.15 					"/>
					<g>
						<polygon class="st4" points="147.95,216.85 147.95,236.67 209.11,272.32 209.11,181.21 						"/>
						<polygon class="st4" points="239.82,163.23 208.97,181.21 208.97,272.32 300.98,218.69 300.98,198.87 						"/>
					</g>
					<polygon class="st2" points="145.02,216.81 240.39,161.23 303.78,198.18 208.41,253.76 					"/>
				</g>
				<polygon class="st8" points="291.23,197.92 240.93,168.61 233.98,172.66 284.28,201.97 				"/>
				<polygon class="st8" points="227.27,176.77 221.98,179.85 272.28,209.17 277.57,206.09 				"/>
				<g>
					<polygon class="st8" points="228.35,191.03 223.06,194.11 246.99,208.05 252.27,204.97 					"/>
				</g>
				<polygon class="st6" points="214.99,257.29 214.99,275.68 222.88,265.5 230.77,266.48 230.77,248.09 				"/>
			</g>
			<g>
				<g>
					<polygon class="st9" points="156.2,214.56 238.68,166.49 293.5,198.44 211.02,246.51 					"/>
					<polygon class="st10" points="156.2,214.56 156.2,195.6 238.68,147.53 238.68,166.49 					"/>
					<g>
						<polygon class="st4" points="158.62,195.63 158.62,212.78 211.51,243.6 211.51,164.81 						"/>
						<polygon class="st4" points="238.19,149.26 211.51,164.81 211.51,243.6 291.08,197.23 291.08,180.08 						"/>
					</g>
					<polygon class="st9" points="156.2,195.6 238.68,147.53 293.5,179.48 211.02,227.55 					"/>
				</g>
				<polygon class="st4" points="282.65,179.26 239.15,153.91 233.14,157.41 276.64,182.77 				"/>
				<polygon class="st4" points="227.33,160.97 222.76,163.63 266.26,188.99 270.83,186.32 				"/>
				<g>
					<polygon class="st4" points="228.27,173.3 223.7,175.97 244.39,188.03 248.96,185.36 					"/>
				</g>
				<polygon class="st6" points="273.74,193.53 273.74,205.23 280.56,196.43 287.38,197.28 287.38,185.57 				"/>
			</g>
		</g>
		<g>
			<g>
				<g>
					<polygon class="st2" points="456.89,244.9 456.89,346.45 401.17,321.11 407.3,216 					"/>
					<g>
						<polygon class="st4" points="455.58,246.49 455.58,341.04 392.25,228.42 408.19,218.87 						"/>
					</g>
					<polygon class="st2" points="438.69,255.49 438.69,357.04 389.1,328.14 389.1,226.59 					"/>
					<polygon class="st5" points="456.89,244.9 438.69,255.49 438.69,357.04 456.89,346.45 					"/>
					<polygon class="st11" points="451.71,252.98 443.88,257.54 443.88,318.11 451.71,313.56 					"/>
					<polygon class="st11" points="451.71,319.21 443.88,323.76 443.88,349.49 451.71,344.93 					"/>
				</g>
				<polygon class="st4" points="433.13,257.32 433.13,271.38 408.56,257.06 408.56,243 				"/>
			</g>
		</g>
	</g>
	<g>
		<g>
			<path class="st10" d="M359.47,313.49l-62.03-35.89l-61.59,35.89h-7.17v2.11h138.01v-2.11H359.47z M297.62,292.1l18.11,10.48
				h-36.09L297.62,292.1z"/>
			<g>
				<path class="st9" d="M297.44,273.41l-68.76,40.08h138.01L297.44,273.41z M297.62,289.8l18.11,10.48h-36.09L297.62,289.8z"/>
			</g>
			<polygon class="st10" points="236.4,309.01 242.7,312.68 244,311.92 237.76,308.22 			"/>
			<polygon class="st10" points="241.54,306.02 247.84,309.69 249.15,308.93 242.91,305.22 			"/>
			<polygon class="st10" points="246.69,303.03 252.99,306.7 254.29,305.94 248.05,302.23 			"/>
			<polygon class="st10" points="251.83,300.04 258.13,303.71 259.44,302.95 253.2,299.24 			"/>
			<polygon class="st10" points="256.98,297.04 263.28,300.72 264.58,299.96 258.34,296.25 			"/>
			<polygon class="st10" points="262.12,294.05 268.43,297.73 269.73,296.97 263.49,293.26 			"/>
			<polygon class="st10" points="267.27,291.06 273.57,294.73 274.87,293.97 268.63,290.27 			"/>
			<polygon class="st10" points="272.41,288.07 278.72,291.74 280.02,290.98 273.78,287.28 			"/>
			<polygon class="st10" points="277.56,285.08 283.86,288.75 285.16,287.99 278.92,284.28 			"/>
			<polygon class="st10" points="282.7,282.09 289.01,285.76 290.31,285 284.07,281.29 			"/>
			<polygon class="st10" points="287.85,279.1 294.15,282.77 295.45,282.01 289.21,278.3 			"/>
			<polygon class="st10" points="293,276.1 299.3,279.78 300.6,279.02 294.36,275.31 			"/>
		</g>
		<g>
			<g>
				<g>
					<polygon class="st12" points="279.18,199.29 274.55,196.6 238.94,217.1 243.58,219.79 					"/>
					<polygon class="st4" points="238.94,217.1 238.95,289.29 243.58,291.98 243.58,219.79 					"/>
					<polygon class="st12" points="243.58,219.79 243.58,291.98 279.18,271.23 279.18,270.72 279.18,199.29 					"/>
					<g>
						<polygon class="st12" points="238.94,217.1 243.58,219.79 243.58,241.64 238.95,238.94 						"/>
						<polygon class="st13" points="243.58,241.64 243.58,291.98 238.95,289.29 238.95,238.94 						"/>
					</g>
					<g>
						<polygon class="st11" points="243.58,219.79 279.18,199.29 279.18,221.14 243.58,241.64 						"/>
					</g>
				</g>
				<polygon class="st9" points="246.62,222.67 276.14,205.47 276.14,219.23 246.62,236.44 				"/>
				<g>
					<polygon class="st2" points="246.62,223.63 246.62,222.67 276.14,205.47 276.14,219.23 275.18,219.79 275.18,206.99 					"/>
				</g>
				<g>
					<g>
						<polygon class="st4" points="271.29,232.57 271.29,239.2 277.2,235.76 277.2,229.13 						"/>
						<polygon class="st4" points="272.31,233.59 272.31,240.22 278.22,236.78 278.22,230.15 						"/>
						<polygon class="st4" points="271.29,242.72 271.29,249.36 277.2,245.92 277.2,239.28 						"/>
						<polygon class="st4" points="271.29,252.87 271.29,259.51 277.2,256.07 277.2,249.43 						"/>
						<polygon class="st4" points="271.29,263.03 271.29,269.66 277.2,266.22 277.2,259.59 						"/>
					</g>
					<polygon class="st4" points="272.31,243.66 272.31,250.3 278.22,246.86 278.22,240.22 					"/>
					<polygon class="st14" points="272.31,253.74 272.31,268.35 278.22,264.91 278.22,250.3 					"/>
					<g>
						<polygon class="st15" points="278.22,230.15 277.2,229.13 271.29,232.57 272.31,233.59 						"/>
						<polygon class="st15" points="271.29,239.2 272.31,240.22 272.31,233.59 271.29,232.57 						"/>
						<polygon class="st15" points="278.22,240.22 277.2,239.2 271.29,242.65 272.31,243.66 						"/>
						<polygon class="st15" points="271.29,249.28 272.31,250.3 272.31,243.66 271.29,242.65 						"/>
						<polygon class="st6" points="278.22,250.3 277.2,249.28 271.29,252.72 272.31,253.74 						"/>
						<polygon class="st16" points="271.29,259.36 272.31,260.38 272.31,253.74 271.29,252.72 						"/>
						<polygon class="st14" points="272.31,263.82 272.31,270.46 278.22,267.02 278.22,260.38 						"/>
						<polygon class="st16" points="271.29,269.44 272.31,270.46 272.31,256.48 271.29,255.46 						"/>
					</g>
				</g>
				<g>
					<g>
						<polygon class="st4" points="262.46,237.32 262.46,243.95 268.36,240.51 268.36,233.88 						"/>
						<polygon class="st4" points="263.48,238.34 263.48,244.97 269.38,241.53 269.38,234.9 						"/>
						<polygon class="st4" points="262.46,247.47 262.46,254.11 268.36,250.67 268.36,244.03 						"/>
						<polygon class="st4" points="262.46,257.62 262.46,264.26 268.36,260.82 268.36,254.18 						"/>
						<polygon class="st4" points="262.46,267.78 262.46,274.41 268.36,270.97 268.36,264.34 						"/>
					</g>
					<polygon class="st4" points="263.48,248.41 263.48,255.05 269.38,251.61 269.38,244.97 					"/>
					<polygon class="st4" points="263.48,258.49 263.48,265.13 269.38,261.69 269.38,255.05 					"/>
					<g>
						<polygon class="st15" points="269.38,234.9 268.36,233.88 262.46,237.32 263.48,238.34 						"/>
						<polygon class="st15" points="262.46,243.95 263.48,244.97 263.48,238.34 262.46,237.32 						"/>
						<polygon class="st15" points="269.38,244.97 268.36,243.95 262.46,247.4 263.48,248.41 						"/>
						<polygon class="st15" points="262.46,254.03 263.48,255.05 263.48,248.41 262.46,247.4 						"/>
						<polygon class="st15" points="269.38,255.05 268.36,254.03 262.46,257.47 263.48,258.49 						"/>
						<polygon class="st15" points="262.46,264.11 263.48,265.13 263.48,258.49 262.46,257.47 						"/>
						<polygon class="st4" points="263.48,268.57 263.48,275.21 269.38,271.77 269.38,265.13 						"/>
						<polygon class="st15" points="269.38,265.13 268.36,264.11 262.46,267.55 263.48,268.57 						"/>
						<polygon class="st15" points="262.46,274.19 263.48,275.21 263.48,268.57 262.46,267.55 						"/>
					</g>
				</g>
				<g>
					<g>
						<polygon class="st4" points="253.62,242.07 253.62,248.7 259.52,245.26 259.52,238.63 						"/>
						<polygon class="st4" points="254.64,243.09 254.64,249.72 260.54,246.28 260.54,239.65 						"/>
						<polygon class="st4" points="253.62,252.22 253.62,258.86 259.52,255.42 259.52,248.78 						"/>
						<polygon class="st4" points="253.62,262.37 253.62,269.01 259.52,265.57 259.52,258.93 						"/>
						<polygon class="st4" points="253.62,272.53 253.62,279.16 259.52,275.72 259.52,269.08 						"/>
					</g>
					<polygon class="st4" points="254.64,253.16 254.64,259.8 260.54,256.36 260.54,249.72 					"/>
					<polygon class="st4" points="254.64,263.24 254.64,269.88 260.54,266.44 260.54,259.8 					"/>
					<g>
						<polygon class="st15" points="260.54,239.65 259.52,238.63 253.62,242.07 254.64,243.09 						"/>
						<polygon class="st15" points="253.62,248.7 254.64,249.72 254.64,243.09 253.62,242.07 						"/>
						<polygon class="st15" points="260.54,249.72 259.52,248.7 253.62,252.15 254.64,253.16 						"/>
						<polygon class="st15" points="253.62,258.78 254.64,259.8 254.64,253.16 253.62,252.15 						"/>
						<polygon class="st15" points="260.54,259.8 259.52,258.78 253.62,262.22 254.64,263.24 						"/>
						<polygon class="st15" points="253.62,268.86 254.64,269.88 254.64,263.24 253.62,262.22 						"/>
						<polygon class="st4" points="254.64,273.32 254.64,279.96 260.54,276.52 260.54,269.88 						"/>
						<polygon class="st15" points="260.54,269.88 259.52,268.86 253.62,272.3 254.64,273.32 						"/>
						<polygon class="st15" points="253.62,278.94 254.64,279.96 254.64,273.32 253.62,272.3 						"/>
					</g>
				</g>
				<g>
					<g>
						<polygon class="st4" points="244.78,246.82 244.78,253.45 250.69,250.01 250.69,243.38 						"/>
						<polygon class="st4" points="245.8,247.84 245.8,254.47 251.71,251.03 251.71,244.4 						"/>
						<polygon class="st4" points="244.78,256.97 244.78,263.61 250.69,260.17 250.69,253.53 						"/>
						<polygon class="st4" points="244.78,267.12 244.78,273.76 250.69,270.32 250.69,263.68 						"/>
						<polygon class="st4" points="244.78,277.28 244.78,283.91 250.69,280.47 250.69,273.83 						"/>
					</g>
					<polygon class="st4" points="245.8,257.91 245.8,264.55 251.71,261.11 251.71,254.47 					"/>
					<g>
						<polygon class="st15" points="251.71,244.4 250.69,243.38 244.78,246.82 245.8,247.84 						"/>
						<polygon class="st15" points="244.78,253.45 245.8,254.47 245.8,247.84 244.78,246.82 						"/>
						<polygon class="st15" points="251.71,254.47 250.69,253.45 244.78,256.9 245.8,257.91 						"/>
						<polygon class="st15" points="244.78,263.53 245.8,264.55 245.8,257.91 244.78,256.9 						"/>
						<polygon class="st15" points="251.71,264.55 250.69,263.53 244.78,266.97 245.8,267.99 						"/>
						<polygon class="st15" points="251.71,274.63 250.69,273.61 244.78,277.05 245.8,278.07 						"/>
						<polygon class="st15" points="244.78,283.69 245.8,284.71 245.8,278.07 244.78,277.05 						"/>
						<polygon class="st4" points="251.71,264.55 251.71,271.19 251.71,271.19 245.8,274.63 245.8,271.89 245.8,267.99 						"/>
						<polygon class="st4" points="251.71,274.63 251.71,281.27 251.71,281.27 245.8,284.71 245.8,281.97 245.8,278.07 						"/>
						<polygon class="st15" points="244.78,273.76 245.8,274.63 245.8,267.99 244.78,266.97 						"/>
					</g>
				</g>
			</g>
			<g>
				<g>
					<polygon class="st12" points="370.48,276.77 375.11,274.08 410.71,294.58 406.08,297.28 					"/>
					<polygon class="st4" points="410.71,294.58 410.71,366.77 406.08,369.46 406.08,297.28 					"/>
					<polygon class="st12" points="406.08,297.28 406.08,369.46 370.48,348.71 370.48,348.2 370.48,276.77 					"/>
					<g>
						<polygon class="st12" points="410.71,294.58 406.08,297.28 406.08,319.12 410.71,316.43 						"/>
						<polygon class="st13" points="406.08,319.12 406.08,369.46 410.71,366.77 410.71,316.43 						"/>
					</g>
					<g>
						<polygon class="st11" points="406.08,297.28 370.48,276.77 370.48,298.62 406.08,319.12 						"/>
					</g>
				</g>
				<polygon class="st9" points="403.04,300.16 373.52,282.95 373.52,296.71 403.04,313.92 				"/>
				<g>
					<polygon class="st2" points="403.04,301.12 403.04,300.16 373.52,282.95 373.52,296.71 374.48,297.27 374.48,284.47 					"/>
				</g>
				<g>
					<g>
						<polygon class="st4" points="378.37,310.05 378.37,316.69 372.46,313.24 372.46,306.61 						"/>
						<polygon class="st4" points="377.35,311.07 377.35,317.7 371.44,314.26 371.44,307.63 						"/>
						<polygon class="st4" points="378.37,320.2 378.37,326.84 372.46,323.4 372.46,316.76 						"/>
						<polygon class="st4" points="378.37,330.35 378.37,336.99 372.46,333.55 372.46,326.91 						"/>
						<polygon class="st4" points="378.37,340.51 378.37,347.14 372.46,343.7 372.46,337.07 						"/>
					</g>
					<polygon class="st4" points="377.35,321.15 377.35,327.78 371.44,324.34 371.44,317.7 					"/>
					<polygon class="st14" points="377.35,331.22 377.35,345.83 371.44,342.39 371.44,327.78 					"/>
					<g>
						<polygon class="st15" points="371.44,307.63 372.46,306.61 378.37,310.05 377.35,311.07 						"/>
						<polygon class="st15" points="378.37,316.69 377.35,317.7 377.35,311.07 378.37,310.05 						"/>
						<polygon class="st15" points="371.44,317.7 372.46,316.69 378.37,320.13 377.35,321.15 						"/>
						<polygon class="st15" points="378.37,326.76 377.35,327.78 377.35,321.15 378.37,320.13 						"/>
						<polygon class="st6" points="371.44,327.78 372.46,326.76 378.37,330.2 377.35,331.22 						"/>
						<polygon class="st16" points="378.37,336.84 377.35,337.86 377.35,331.22 378.37,330.2 						"/>
						<polygon class="st14" points="377.35,341.3 377.35,347.94 371.44,344.5 371.44,337.86 						"/>
						<polygon class="st16" points="378.37,346.92 377.35,347.94 377.35,333.96 378.37,332.94 						"/>
					</g>
				</g>
				<g>
					<g>
						<polygon class="st4" points="387.2,314.8 387.2,321.44 381.3,317.99 381.3,311.36 						"/>
						<polygon class="st4" points="386.18,315.82 386.18,322.45 380.28,319.01 380.28,312.38 						"/>
						<polygon class="st4" points="387.2,324.95 387.2,331.59 381.3,328.15 381.3,321.51 						"/>
						<polygon class="st4" points="387.2,335.1 387.2,341.74 381.3,338.3 381.3,331.66 						"/>
						<polygon class="st4" points="387.2,345.26 387.2,351.89 381.3,348.45 381.3,341.82 						"/>
					</g>
					<polygon class="st4" points="386.18,325.9 386.18,332.53 380.28,329.09 380.28,322.45 					"/>
					<polygon class="st4" points="386.18,335.97 386.18,342.61 380.28,339.17 380.28,332.53 					"/>
					<g>
						<polygon class="st15" points="380.28,312.38 381.3,311.36 387.2,314.8 386.18,315.82 						"/>
						<polygon class="st15" points="387.2,321.44 386.18,322.45 386.18,315.82 387.2,314.8 						"/>
						<polygon class="st15" points="380.28,322.45 381.3,321.44 387.2,324.88 386.18,325.9 						"/>
						<polygon class="st15" points="387.2,331.51 386.18,332.53 386.18,325.9 387.2,324.88 						"/>
						<polygon class="st15" points="380.28,332.53 381.3,331.51 387.2,334.95 386.18,335.97 						"/>
						<polygon class="st15" points="387.2,341.59 386.18,342.61 386.18,335.97 387.2,334.95 						"/>
						<polygon class="st4" points="386.18,346.05 386.18,352.69 380.28,349.25 380.28,342.61 						"/>
						<polygon class="st15" points="380.28,342.61 381.3,341.59 387.2,345.03 386.18,346.05 						"/>
						<polygon class="st15" points="387.2,351.67 386.18,352.69 386.18,346.05 387.2,345.03 						"/>
					</g>
				</g>
				<g>
					<g>
						<polygon class="st4" points="396.04,319.55 396.04,326.19 390.14,322.74 390.14,316.11 						"/>
						<polygon class="st4" points="395.02,320.57 395.02,327.2 389.12,323.76 389.12,317.13 						"/>
						<polygon class="st4" points="396.04,329.7 396.04,336.34 390.14,332.9 390.14,326.26 						"/>
						<polygon class="st4" points="396.04,339.85 396.04,346.49 390.14,343.05 390.14,336.41 						"/>
						<polygon class="st4" points="396.04,350.01 396.04,356.64 390.14,353.2 390.14,346.57 						"/>
					</g>
					<polygon class="st4" points="395.02,330.65 395.02,337.28 389.12,333.84 389.12,327.2 					"/>
					<polygon class="st4" points="395.02,340.72 395.02,347.36 389.12,343.92 389.12,337.28 					"/>
					<g>
						<polygon class="st15" points="389.12,317.13 390.14,316.11 396.04,319.55 395.02,320.57 						"/>
						<polygon class="st15" points="396.04,326.19 395.02,327.2 395.02,320.57 396.04,319.55 						"/>
						<polygon class="st15" points="389.12,327.2 390.14,326.19 396.04,329.63 395.02,330.65 						"/>
						<polygon class="st15" points="396.04,336.26 395.02,337.28 395.02,330.65 396.04,329.63 						"/>
						<polygon class="st15" points="389.12,337.28 390.14,336.26 396.04,339.7 395.02,340.72 						"/>
						<polygon class="st15" points="396.04,346.34 395.02,347.36 395.02,340.72 396.04,339.7 						"/>
						<polygon class="st4" points="395.02,350.8 395.02,357.44 389.12,354 389.12,347.36 						"/>
						<polygon class="st15" points="389.12,347.36 390.14,346.34 396.04,349.78 395.02,350.8 						"/>
						<polygon class="st15" points="396.04,356.42 395.02,357.44 395.02,350.8 396.04,349.78 						"/>
					</g>
				</g>
				<g>
					<g>
						<polygon class="st4" points="404.88,324.3 404.88,330.94 398.97,327.49 398.97,320.86 						"/>
						<polygon class="st4" points="403.86,325.32 403.86,331.95 397.95,328.51 397.95,321.88 						"/>
						<polygon class="st4" points="404.88,334.45 404.88,341.09 398.97,337.65 398.97,331.01 						"/>
						<polygon class="st4" points="404.88,344.6 404.88,351.24 398.97,347.8 398.97,341.16 						"/>
						<polygon class="st4" points="404.88,354.76 404.88,361.39 398.97,357.95 398.97,351.32 						"/>
					</g>
					<polygon class="st4" points="403.86,335.4 403.86,342.03 397.95,338.59 397.95,331.95 					"/>
					<g>
						<polygon class="st15" points="397.95,321.88 398.97,320.86 404.88,324.3 403.86,325.32 						"/>
						<polygon class="st15" points="404.88,330.94 403.86,331.95 403.86,325.32 404.88,324.3 						"/>
						<polygon class="st15" points="397.95,331.95 398.97,330.94 404.88,334.38 403.86,335.4 						"/>
						<polygon class="st15" points="404.88,341.01 403.86,342.03 403.86,335.4 404.88,334.38 						"/>
						<polygon class="st15" points="397.95,342.03 398.97,341.01 404.88,344.45 403.86,345.47 						"/>
						<polygon class="st15" points="397.95,352.11 398.97,351.09 404.88,354.53 403.86,355.55 						"/>
						<polygon class="st15" points="404.88,361.17 403.86,362.19 403.86,355.55 404.88,354.53 						"/>
						<polygon class="st4" points="397.95,342.03 397.95,348.67 397.95,348.67 403.86,352.11 403.86,349.37 403.86,345.47 						"/>
						<polygon class="st4" points="397.95,352.11 397.95,358.75 397.95,358.75 403.86,362.19 403.86,359.45 403.86,355.55 						"/>
						<polygon class="st15" points="404.88,351.24 403.86,352.11 403.86,345.47 404.88,344.45 						"/>
					</g>
				</g>
			</g>
		</g>
	</g>
	<g>
		<g>
			<path class="st12" d="M369.11,248.41c-4.92-2.36-12-3.83-19.88-3.83s-14.96,1.48-19.88,3.83h-7.02v7.92
				c0,6.49,12.05,11.75,26.9,11.75c14.86,0,26.9-5.26,26.9-11.75v-7.92H369.11z"/>
			<ellipse class="st11" cx="349.23" cy="248.41" rx="26.9" ry="11.75"/>
			<ellipse class="st12" cx="349.23" cy="123.61" rx="1.52" ry="0.66"/>
		</g>
		<path class="st12" d="M347.71,123.61v124.81c0,0.37,0.68,0.66,1.52,0.66s1.52-0.3,1.52-0.66V123.61H347.71z"/>
		<g>
			<g>
				<path class="st17" d="M342.26,130.11c-0.19,0.43-0.47,0.83-0.67,0.86c-1.17,0.18-1.68,1.16-2.42,1.89
					c0.26,0.41,0.49,0.75,0.7,1.11c0.25,0.41,0.51,0.7,1.07,0.64c0.67-0.07,0.9,0.41,0.53,1.02c-0.1,0.16-0.21,0.33-0.31,0.49
					c0.55-0.1,1.11-0.19,1.66-0.27c0.15-0.14,0.29-0.28,0.44-0.42c0.69-0.67,1.3-1.44,2.04-2.05c0.42-0.34,0.63-0.65,0.65-1.18
					c0.04-1.05,0.12-1.11,1.15-1.22c0.7-0.08,1.43-0.08,1.98-0.63c-0.08-0.32-0.1-0.57-0.07-0.78
					C346.74,129.57,344.49,129.75,342.26,130.11z"/>
				<path class="st18" d="M349.01,129.56c0.01-0.08,0.04-0.16,0.07-0.22c-0.52,0-1.05,0-1.57,0c-1.32,0.14-2.65,0.26-3.97,0.43
					c-0.41,0.05-0.81,0.12-1.21,0.18c-0.02,0.05-0.04,0.11-0.07,0.16C344.49,129.75,346.74,129.57,349.01,129.56z"/>
				<path class="st2" d="M367.05,211.77c-1.3,0.16-2.6,0.29-3.9,0.43c-1.43,0-2.87,0-4.3,0c-0.3-0.04-0.61-0.1-0.91-0.13
					c-1.77-0.21-3.56-0.33-5.31-0.65c-4.33-0.79-8.46-2.21-12.38-4.25c-8.85-4.61-15.58-11.41-20.09-20.42
					c-2.27-4.53-3.75-9.34-4.33-14.41c-0.15-1.3-0.28-2.59-0.42-3.89c0-1.36,0-2.72,0-4.08c0.04-0.26,0.12-0.52,0.13-0.78
					c0.16-3.6,0.81-7.11,1.89-10.53c2.26-7.17,5.83-13.3,10.67-18.38c-0.71,0.38-1.41,0.78-2.11,1.2
					c-10.11,6.15-17.03,14.92-20.63,26.34c-1.08,3.42-1.73,6.93-1.89,10.53c-0.01,0.26-0.08,0.52-0.13,0.78c0,1.36,0,2.72,0,4.08
					c0.14,1.3,0.27,2.59,0.42,3.89c0.58,5.07,2.06,9.88,4.33,14.41c4.52,9.01,11.24,15.81,20.09,20.42
					c3.91,2.04,8.05,3.46,12.38,4.25c1.75,0.32,3.54,0.44,5.31,0.65c0.31,0.04,0.61,0.09,0.91,0.13c1.43,0,2.87,0,4.3,0
					c1.3-0.14,2.6-0.27,3.9-0.43c5.41-0.67,10.55-2.3,15.35-4.9c4.66-2.52,8.68-5.59,12.09-9.18c-0.01,0.01-0.02,0.01-0.03,0.02
					C377.6,209.48,372.47,211.1,367.05,211.77z"/>
				<path class="st18" d="M340.77,136.74c0.9,0.05,1.5-0.38,2.05-0.89c-0.55,0.08-1.11,0.17-1.66,0.27
					C341.03,136.32,340.91,136.52,340.77,136.74z"/>
				<path class="st18" d="M340.94,134.6c-0.56,0.06-0.83-0.23-1.07-0.64c-0.21-0.35-0.44-0.69-0.7-1.11
					c0.74-0.73,1.25-1.7,2.42-1.89c0.2-0.03,0.48-0.43,0.67-0.86c-1.68,0.28-3.35,0.65-5.01,1.14c-1.89,0.56-3.76,1.22-5.53,1.81
					c0.43,0.51,1.02,0.9,1.12,1.39c0.25,1.26,0.05,1.49-1.09,2.06c-0.17,0.09-0.33,0.21-0.51,0.25c-0.83,0.21-1.12,0.67-0.84,1.53
					c0.15,0.46-0.49,1.78-0.87,1.84c-1.17,0.18-1.68,1.16-2.42,1.89c0.26,0.41,0.49,0.75,0.7,1.11c0.25,0.41,0.51,0.7,1.07,0.64
					c0.67-0.07,0.9,0.41,0.53,1.02c-0.22,0.37-0.46,0.72-0.7,1.11c1.14,0.07,1.81-0.65,2.49-1.31c0.69-0.67,1.3-1.44,2.04-2.05
					c0.42-0.34,0.63-0.65,0.65-1.18c0.04-1.05,0.12-1.11,1.15-1.22c0.7-0.08,1.43-0.08,1.98-0.63c-0.27-1.02,0.05-1.45,1.1-1.55
					c0.38-0.04,0.77-0.05,1.13-0.15c0.52-0.15,1.06-0.32,0.99-1.09c-0.01-0.16,0.24-0.47,0.41-0.5c0.17-0.04,0.34-0.06,0.51-0.09
					c0.1-0.16,0.21-0.33,0.31-0.49C341.84,135.01,341.61,134.54,340.94,134.6z"/>
				<path class="st18" d="M350.11,129.57c7.19,0.17,14.05,1.8,20.46,5.24c2.69,1.44,5.22,3.12,7.63,4.99
					c0.18,0.14,0.4,0.23,0.61,0.35c-1.48-1.13-2.91-2.35-4.46-3.38c-5.06-3.37-10.6-5.55-16.53-6.66c-1.8-0.34-3.64-0.43-5.46-0.64
					c-0.28-0.03-0.56-0.09-0.84-0.13c-0.82,0-1.63,0-2.45,0c-0.03,0.07-0.05,0.14-0.07,0.22
					C349.38,129.56,349.74,129.56,350.11,129.57z"/>
				<path class="st18" d="M394.98,178.1c0.01-0.26,0.08-0.52,0.13-0.78c0-1.41,0-2.82,0-4.23c-0.09-0.86-0.19-1.72-0.26-2.59
					c-0.4-4.51-1.51-8.84-3.26-13c-0.63-1.51-1.4-2.96-2.11-4.43c-0.04-0.09-0.13-0.16-0.21-0.23c-0.89-1.45-1.72-2.94-2.68-4.34
					c-1.72-2.52-3.78-4.74-5.97-6.84c-0.22-0.21-0.49-0.37-0.74-0.56c1.03,1.08,2.17,2.07,3.05,3.26c0.58,0.79,0.8,1.86,1.14,2.82
					c0.08,0.23-0.02,0.53,0,0.8c0.05,0.87,0.19,1.67,1.09,2.11c0.22,0.11,0.46,0.51,0.43,0.75c-0.03,0.24-0.35,0.55-0.6,0.63
					c-0.68,0.21-1.39,0.3-2.08,0.45c0,0.08-0.01,0.17-0.01,0.25c0.61,0.29,1.21,0.58,1.86,0.89c-0.27,1.28-1.36,0.32-1.93,0.85
					c0,0.06-0.02,0.23,0,0.39c0.2,1.06,0.25,2.19,0.64,3.17c0.44,1.1,1.15,2.1,1.83,3.08c0.26,0.37,0.44,0.59,0.2,1.06
					c-0.23,0.46-0.29,1.02-0.45,1.52c-0.08,0.24-0.16,0.53-0.34,0.69c-0.27,0.23-0.77,0.6-0.91,0.5c-0.58-0.38-1.46-0.45-1.58-1.4
					c-0.03-0.28-0.2-0.59-0.4-0.79c-0.84-0.83-0.91-1.49-0.1-2.31c0.53-0.53,0.29-1.12,0.23-1.7c-0.01-0.08-0.16-0.17-0.26-0.2
					c-0.55-0.14-1.11-0.36-1.67-0.37c-0.68-0.01-0.81-0.46-0.98-0.94c-0.04-0.11-0.03-0.25,0-0.36c0.4-1.38-0.27-2.49-0.91-3.6
					c-0.09-0.16-0.2-0.37-0.36-0.44c-1.17-0.5-1.31-1.6-1.42-2.64c-0.11-1-0.45-1.84-1-2.66c-0.41-0.62-0.6-1.39-0.93-2.08
					c-0.12-0.25-0.31-0.53-0.54-0.67c-0.72-0.41-1.51-0.72-2.22-1.15c-0.47-0.29-0.77-0.32-1.05,0.25c0.15,0.19,0.32,0.41,0.53,0.68
					c-0.31,0.27-0.63,0.54-1.06,0.92c2.07,0.23,2.82,2.29,4.49,2.84c-0.57,0.47-1.12,0.92-1.87,1.53c-1.03-0.19-2.29-0.51-2.95-1.91
					c-0.47-1.02-1.28-1.66-2.26-2.11c-0.61-0.28-1.17-0.66-1.79-0.9c-0.96-0.37-1.51-1.11-1.99-1.96c0.9-0.95,2.14-0.85,3.27-1.15
					c0-0.66-0.09-1.23-0.87-1.32c-0.13-0.02-0.36-0.01-0.39,0.05c-0.35,0.76-1.01,0.29-1.57,0.52c0.08-0.41,0.13-0.71,0.2-1.06
					c-1.88-1.34-3.77-2.66-5.62-4.03c-0.53-0.39-0.9-0.3-1.27,0.14c-0.58,0.7-1.21,0.88-2.12,0.56c-1.3-0.45-2.6-0.44-3.94,0.21
					c-1.48,0.71-3.07,0.51-4.57-0.15c-0.23-0.1-0.32-0.54-0.53-0.94c-0.72,0.06-1.64-0.46-2.38,0.44c-0.11,0.13-0.39,0.1-0.6,0.13
					c-0.17,0.03-0.34,0.05-0.5,0.08c-0.55,0.51-1.16,0.95-2.05,0.89c0.14-0.22,0.26-0.41,0.39-0.62c-0.17,0.03-0.34,0.06-0.51,0.09
					c-0.17,0.04-0.42,0.34-0.41,0.5c0.07,0.77-0.47,0.94-0.99,1.09c-0.36,0.11-0.75,0.11-1.13,0.15c-1.06,0.11-1.37,0.54-1.1,1.55
					c-0.55,0.55-1.28,0.55-1.98,0.63c-1.02,0.11-1.1,0.17-1.15,1.22c-0.02,0.53-0.23,0.84-0.65,1.18c-0.74,0.6-1.35,1.37-2.04,2.05
					c-0.68,0.67-1.35,1.38-2.49,1.31c0.25-0.39,0.48-0.74,0.7-1.11c0.36-0.62,0.14-1.09-0.53-1.02c-0.56,0.06-0.83-0.23-1.07-0.64
					c-0.21-0.35-0.44-0.69-0.7-1.11c0.74-0.73,1.25-1.7,2.42-1.89c0.38-0.06,1.02-1.38,0.87-1.84c-0.28-0.86,0.01-1.32,0.84-1.53
					c0.18-0.05,0.34-0.17,0.51-0.25c1.14-0.57,1.35-0.8,1.09-2.06c-0.1-0.49-0.69-0.89-1.12-1.39c1.78-0.58,3.64-1.25,5.53-1.81
					c1.65-0.49,3.32-0.86,5.01-1.14c0.02-0.05,0.05-0.11,0.07-0.16c-5.01,0.77-9.76,2.32-14.22,4.71
					c-4.84,5.09-8.41,11.21-10.67,18.38c-1.08,3.42-1.73,6.93-1.89,10.53c-0.01,0.26-0.08,0.52-0.13,0.78c0,1.36,0,2.72,0,4.08
					c0.14,1.3,0.27,2.59,0.42,3.89c0.58,5.07,2.06,9.88,4.33,14.41c4.52,9.01,11.24,15.81,20.09,20.42
					c3.91,2.04,8.05,3.46,12.38,4.25c1.75,0.32,3.54,0.44,5.31,0.65c0.31,0.04,0.61,0.09,0.91,0.13c1.43,0,2.87,0,4.3,0
					c1.3-0.14,2.6-0.27,3.9-0.43c5.41-0.67,10.55-2.3,15.35-4.9c0.01-0.01,0.02-0.01,0.03-0.02c4.85-5.11,8.44-11.3,10.73-18.57
					C394.2,184.98,394.79,181.57,394.98,178.1z"/>
			</g>
			<path class="st19" d="M327.26,182.7c-0.16,0.02-0.28,0.03-0.39,0.06c-0.13,0.04-0.26,0.1-0.44,0.17
				c0.49,1.69,0.37,3.54,1.52,5.02c-0.69-0.36-1.28-0.85-1.51-1.59c-0.8-2.49-1.54-4.99-2.28-7.5c-0.09-0.29-0.06-0.62-0.03-0.93
				c0.19-1.81,0.25-3.65,0.63-5.41c0.38-1.75,1.25-3.36,2.41-4.74c0.43-0.51,0.48-0.96,0.44-1.62c-0.07-1.41-0.03-2.85,0.18-4.25
				c0.21-1.38,0.73-2.71,1.04-4.07c0.28-1.27,0.15-2.56-0.52-3.65c-0.33-0.52-1.09-0.8-1.7-1.09c-0.79-0.38-1.65-0.64-2.44-1.02
				c-0.33-0.16-0.57-0.51-0.72-0.88c0.55,0.22,1.09,0.44,1.69,0.68c0.27-0.68,0.48-1.26,0.74-1.82c0.53-1.18,1.05-1.47,2.3-1.18
				c0.64,0.15,1.01-0.05,1.15-0.66c0.2-0.88,0.76-0.96,1.51-0.81c0.26,0.05,0.54-0.1,0.82-0.11c0.67-0.04,1.35-0.1,2.02-0.04
				c0.21,0.02,0.46,0.37,0.56,0.62c0.15,0.4,0.3,0.86,0.26,1.27c-0.13,1.36,0.59,2.28,1.49,3.06c1.54,1.34,3.14,2.61,4.72,3.91
				c0.12,0.1,0.27,0.16,0.41,0.24c0.37-0.85,0.23-1.47-0.58-1.89c-0.17-0.09-0.3-0.3-0.4-0.48c-0.29-0.57-0.55-1.16-0.9-1.9
				c0.17-0.28,0.6-0.52,1.19-0.56c0.39-0.02,0.63,0.06,0.89,0.41c0.33,0.45,0.86,0.75,1.17,1.2c0.33,0.47,0.54,1.03,0.73,1.58
				c0.1,0.28,0.05,0.63,0.02,0.94c-0.06,0.58,0.11,1,0.72,1.19c0.95-0.34,0.87-1.28,1.04-2.1c0.22,0,0.42,0,0.63,0
				c0.06,0.42,0.11,0.8,0.17,1.18c0.18,1.18,0.83,1.62,1.91,1.17c0.7-0.29,0.85,0.27,1.29,0.67c-0.39,0.4-0.73,0.84-1.15,1.16
				c-1.38,1.06-2.72,2.17-3.52,3.76c-0.49,0.98-0.68,2.08-0.02,3.1c0.17,0.27,0.52,0.46,0.83,0.58c0.42,0.16,0.88,0.21,1.31,0.34
				c0.7,0.21,1.22,0.51,1.14,1.44c-0.06,0.69,0.75,1.64,1.86,2.49c0.13-0.82,0.23-1.61,0.39-2.37c0.14-0.66,0.69-1.5,0.45-1.92
				c-0.35-0.64-0.47-1.22-0.51-1.89c-0.03-0.53-0.06-1.07-0.07-1.6c-0.01-0.67,0.44-1.03,1.05-0.76c1,0.46,2.11,0.68,2.82,1.73
				c0.25,0.36,1.03,0.34,1.56,0.52c0.5,0.17,1.07,0.28,1.47,0.6c1,0.82,1.96,1.69,2.84,2.64c0.52,0.57,1.01,1.4,0.39,2.13
				c-0.39,0.46-1.09,0.76-1.7,0.88c-1.29,0.24-2.3,0.88-3.12,1.87c-0.11,0.13-0.06,0.4-0.09,0.61c0.06,0.04,0.12,0.08,0.18,0.12
				c0.47-0.3,0.96-0.58,1.41-0.91c0.64-0.47,1.14-0.32,1.22,0.45c0.07,0.63,0.52,0.61,0.93,0.63c0.26,0.01,0.52-0.13,0.77-0.1
				c0.18,0.02,0.43,0.19,0.49,0.34c0.05,0.15-0.06,0.45-0.2,0.55c-0.47,0.32-1,0.57-1.48,0.88c-0.24,0.15-0.42,0.4-0.67,0.53
				c-0.2,0.11-0.52,0.23-0.69,0.15c-0.58-0.29-0.94,0.04-1.33,0.36c-0.04,0.03-0.05,0.08-0.08,0.12c-0.65,0.79-0.98,1.76-1.78,2.51
				c-1.07,1-1.54,2.49-1.53,4.03c0,0.48-0.14,0.82-0.53,1.1c-0.56,0.41-1.08,0.89-1.65,1.28c-1.05,0.71-1.46,1.75-1.55,2.96
				c-0.02,0.27,0.13,0.55,0.21,0.82c0.19,0.62,0.39,1.23,0.59,1.83c-0.5,0.43-0.84,0.45-1.15-0.1c-0.25-0.44-0.57-0.84-0.85-1.26
				c-0.99-1.49-2.68-1.99-4.34-1.3c-0.47,0.2-0.92,0.23-1.42-0.05c-1.27-0.71-3.13-0.16-4.07,0.94c-1.14,1.34-1.06,2.85-0.83,4.39
				c0.12,0.81,2.53,2.21,3.33,2.03c0.48-0.11,0.86-0.31,1.11-0.8c0.34-0.66,1.34-0.85,1.97-0.49c0.32,0.19,0.44,0.39,0.32,0.76
				c-0.19,0.62-0.31,1.26-0.54,1.86c-0.29,0.78-0.05,1.24,0.74,1.22c1.07-0.03,2.07,0.13,3.01,0.72c0.44,0.28,0.55,0.62,0.44,1.09
				c-0.04,0.17-0.06,0.34-0.1,0.5c-0.46,1.71,0.32,2.86,2.09,3.05c0.57,0.06,1.13,0.17,1.7,0.19c0.26,0.01,0.57-0.09,0.79-0.24
				c0.8-0.56,1.54-1.21,2.37-1.71c0.33-0.2,0.87-0.19,1.26-0.07c0.86,0.27,1.67,0.72,2.55,0.03c0.14-0.11,0.41-0.05,0.63-0.07
				c1.37-0.15,2.74-0.3,4.11-0.43c0.29-0.03,0.63-0.03,0.88,0.09c2.22,1.12,4.55,1.54,7.01,1.28c0.46-0.05,0.76,0.1,1.04,0.46
				c0.36,0.48,0.81,0.9,1.16,1.39c0.3,0.43,0.66,0.48,1.12,0.41c2.02-0.33,4.06-0.6,5.95-1.48c0.86-0.4,1.27,0.42,1.93,0.78
				c-0.48,0.71-0.92,1.39-1.39,2.04c-0.91,1.25-1.56,2.6-1.64,4.19c-0.01,0.18-0.15,0.4-0.3,0.52c-5.38,4.33-11.37,7.43-18.04,9.13
				c-1.27,0.32-2.56,0.54-3.85,0.79c-0.25,0.05-0.72,0.05-0.76-0.06c-0.11-0.28-0.14-0.69-0.02-0.96c0.3-0.67,0.43-1.33,0.15-2.13
				c-0.98,0.29-1.41-0.49-1.92-1.11c-1.36-1.66-3.01-2.95-4.81-4.08c-0.92-0.58-1.13-1.88-0.68-2.92c0.28-0.66,0.67-1.11,1.39-1.31
				c0.83-0.23,1.15-0.75,1.18-1.65c0.01-0.39,0-0.78,0.03-1.17c0.02-0.36,0.08-0.72,0.14-1.23c-0.67-0.02-1.36-0.15-2.02-0.04
				c-0.73,0.13-1.36,0-2.01-0.26c-0.13-0.05-0.26-0.12-0.4-0.15c-1.27-0.28-1.98-1.07-2.46-2.31c-0.56-1.45-1.93-2.19-3.24-2.8
				c-1.38-0.65-2.83-1.15-4.27-1.64c-1.15-0.39-2.16-0.94-3.06-1.79c-0.74-0.69-1.63-1.23-2.49-1.78c-0.71-0.45-1.02-1.26-0.93-2.08
				c0.07-0.62-0.01-1.36-0.29-1.89c-1.05-1.93-1.66-4.01-2.22-6.11C327.4,182.98,327.34,182.88,327.26,182.7z"/>
			<path class="st19" d="M378.81,140.15c0.35,0.32,0.71,0.64,1.06,0.96c1.03,1.08,2.17,2.07,3.05,3.26c0.58,0.79,0.8,1.86,1.14,2.82
				c0.08,0.23-0.02,0.53,0,0.8c0.05,0.87,0.19,1.67,1.09,2.11c0.22,0.11,0.46,0.51,0.43,0.75c-0.03,0.24-0.35,0.55-0.6,0.63
				c-0.68,0.21-1.39,0.3-2.08,0.45c0,0.08-0.01,0.17-0.01,0.25c0.61,0.29,1.21,0.58,1.86,0.89c-0.27,1.28-1.36,0.32-1.93,0.85
				c0,0.06-0.02,0.23,0,0.39c0.2,1.06,0.25,2.19,0.64,3.17c0.44,1.1,1.15,2.1,1.83,3.08c0.26,0.37,0.44,0.59,0.2,1.06
				c-0.23,0.46-0.29,1.02-0.45,1.52c-0.08,0.24-0.16,0.53-0.34,0.69c-0.27,0.23-0.77,0.6-0.91,0.5c-0.58-0.38-1.46-0.45-1.58-1.4
				c-0.03-0.28-0.2-0.59-0.4-0.79c-0.84-0.83-0.91-1.49-0.1-2.31c0.53-0.53,0.29-1.12,0.23-1.7c-0.01-0.08-0.16-0.17-0.26-0.2
				c-0.55-0.14-1.11-0.36-1.67-0.37c-0.68-0.01-0.81-0.46-0.98-0.94c-0.04-0.11-0.03-0.25,0-0.36c0.4-1.38-0.27-2.49-0.91-3.6
				c-0.09-0.16-0.2-0.37-0.36-0.44c-1.17-0.5-1.31-1.6-1.42-2.64c-0.11-1-0.45-1.84-1-2.66c-0.41-0.62-0.6-1.39-0.93-2.08
				c-0.12-0.25-0.31-0.53-0.54-0.67c-0.72-0.41-1.51-0.72-2.22-1.15c-0.47-0.29-0.77-0.32-1.05,0.25c0.15,0.19,0.32,0.41,0.53,0.68
				c-0.31,0.27-0.63,0.54-1.06,0.92c2.07,0.23,2.82,2.29,4.49,2.84c-0.57,0.47-1.12,0.92-1.87,1.53c-1.03-0.19-2.29-0.51-2.95-1.91
				c-0.47-1.02-1.28-1.66-2.26-2.11c-0.61-0.28-1.17-0.66-1.79-0.9c-0.96-0.37-1.51-1.11-1.99-1.96c0.9-0.95,2.14-0.85,3.27-1.15
				c0-0.66-0.09-1.23-0.87-1.32c-0.13-0.02-0.36-0.01-0.39,0.05c-0.35,0.76-1.01,0.29-1.57,0.52c0.08-0.41,0.13-0.71,0.2-1.06
				c-1.88-1.34-3.77-2.66-5.62-4.03c-0.53-0.39-0.9-0.3-1.27,0.14c-0.58,0.7-1.21,0.88-2.12,0.56c-1.3-0.45-2.6-0.44-3.94,0.21
				c-1.48,0.71-3.07,0.51-4.57-0.15c-0.23-0.1-0.32-0.54-0.53-0.94c-0.72,0.06-1.64-0.46-2.38,0.44c-0.11,0.13-0.39,0.1-0.6,0.13
				c-0.89,0.14-1.79,0.26-2.68,0.44c-0.17,0.04-0.42,0.34-0.41,0.5c0.07,0.77-0.47,0.94-0.99,1.09c-0.36,0.11-0.75,0.11-1.13,0.15
				c-1.06,0.11-1.37,0.54-1.1,1.55c-0.55,0.55-1.28,0.55-1.98,0.63c-1.02,0.11-1.1,0.17-1.15,1.22c-0.02,0.53-0.23,0.84-0.65,1.18
				c-0.74,0.6-1.35,1.37-2.04,2.05c-0.68,0.67-1.35,1.38-2.49,1.31c0.25-0.39,0.48-0.74,0.7-1.11c0.36-0.62,0.14-1.09-0.53-1.02
				c-0.56,0.06-0.83-0.23-1.07-0.64c-0.21-0.35-0.44-0.69-0.7-1.11c0.74-0.73,1.25-1.7,2.42-1.89c0.38-0.06,1.02-1.38,0.87-1.84
				c-0.28-0.86,0.01-1.32,0.84-1.53c0.18-0.05,0.34-0.17,0.51-0.25c1.14-0.57,1.35-0.8,1.09-2.06c-0.1-0.49-0.69-0.88-1.12-1.39
				c1.78-0.58,3.64-1.25,5.53-1.81c4.2-1.24,8.51-1.79,12.86-1.68c7.19,0.17,14.05,1.8,20.46,5.24c2.69,1.44,5.22,3.12,7.63,4.99
				C378.39,139.94,378.61,140.03,378.81,140.15z"/>
			<path class="st19" d="M389.24,152.82c0.58,1.26,1.16,2.53,1.75,3.79c1.8,3.91,2.9,8.04,3.5,12.29c0.5,3.62,0.54,7.26,0.18,10.89
				c-0.01,0.15-0.1,0.38-0.2,0.41c-0.99,0.3-1.28,1.24-1.79,1.97c-0.04,0.06-0.08,0.12-0.12,0.18c-0.25,0.31-0.54,0.9-0.74,0.86
				c-0.65-0.1-1.42-0.26-1.87-0.7c-2.07-2.02-2.91-4.69-3.26-7.48c-0.24-1.89-0.12-3.82-0.19-5.74c-0.02-0.45-0.11-0.9-0.26-1.33
				c-0.26-0.75-0.55-1.5-0.87-2.23c-0.38-0.84-0.13-1.57,0.21-2.35c0.2-0.44,0.29-0.95,0.32-1.44c0.09-1.78,0.14-3.57,0.19-5.35
				c0.01-0.48,0.31-0.49,0.63-0.45c0.3,0.03,0.6,0.11,0.88,0.17c0.58-1.77-0.69-2.84-1.49-4.07c0.71-0.3,0.9-0.73,0.74-1.42
				c-0.12-0.53-0.19-1.08-0.28-1.62c0.07-0.03,0.14-0.06,0.2-0.09c0.42,0.63,0.84,1.25,1.26,1.88c0.41,0.61,0.82,1.22,1.24,1.83
				C389.26,152.85,389.24,152.82,389.24,152.82z"/>
			<path class="st19" d="M364.19,160.46c-0.92,0.3-1.7,0.52-2.45,0.83c-0.62,0.25-1.15,0.19-1.66-0.22
				c-0.63-0.5-1.58-0.69-1.61-1.76c0-0.06-0.08-0.14-0.14-0.16c-1.21-0.33-1.08-1.41-1.17-2.3c-0.07-0.68-0.29-1.2-0.83-1.6
				c-1.23-0.9-2.48-1.78-3.69-2.71c-0.68-0.52-1.39-1.03-1.59-1.97c-0.06-0.28-0.18-0.55-0.28-0.84c-1.08,0.67-0.99,1.89-1.44,2.91
				c-0.37-0.23-0.74-0.43-1.09-0.68c-0.72-0.51-0.86-1.09-0.6-1.9c0.19-0.59,0.26-1.22,0.43-2.11c0.53-0.15,1.33-0.37,2.17-0.6
				c0.11,0.37,0.18,0.59,0.24,0.79c0.66,0.12,1.05-0.17,1.49-0.64c0.38-0.41,0.97-0.7,1.51-0.83c1.04-0.25,2.08-0.33,3.08,0.34
				c0.66,0.45,1.41,0.81,2.17,1.05c1.83,0.56,3.06,1.91,4.34,3.21c0.37,0.38,0.25,1.66-0.18,2c-0.61,0.48-0.8,1.06-0.78,1.82
				c0.02,0.9-0.08,1.79-0.14,2.69c-0.1,1.46,0.15,1.86,1.49,2.36C363.66,160.23,363.85,160.32,364.19,160.46z"/>
			<path class="st19" d="M349.86,160.84c0.1-0.09,0.22-0.2,0.35-0.3c1.05-0.84,1.19-1.98,0.33-3.04c-0.11-0.14-0.29-0.24-0.45-0.31
				c-0.29-0.12-0.58-0.21-0.89-0.28c-1.21-0.28-2.11-0.96-2.68-2.09c0.55-0.87,0.72-1.02,1.63-0.65c1.23,0.5,2.41,1.15,3.59,1.78
				c0.19,0.1,0.32,0.42,0.4,0.66c0.26,0.8,0.78,1.34,1.56,1.57c0.77,0.22,1.33,0.91,1.29,1.47c-0.05,0.77-0.59,1.53-1.04,2.21
				c-0.11,0.17-0.72,0.08-1.06-0.02C351.88,161.54,350.9,161.19,349.86,160.84z"/>
			<path class="st19" d="M376.12,156.43c-0.58,0.03-1.74-0.6-1.86-1.19c-0.3-1.38-0.91-2.59-1.64-3.76
				c-0.05-0.08-0.05-0.18-0.08-0.27c0.37-0.36,0.62-0.29,1.04,0c0.83,0.58,1.76,1.01,2.65,1.5c0.1,0.06,0.22,0.09,0.33,0.14
				c1.97,0.87,1.65,0.75,1.41,2.72c-1.06-0.47-2.1-0.94-3.19-1.42C374.63,155.34,376.12,155.43,376.12,156.43z"/>
			<path class="st19" d="M366.34,155.34c-1.22-0.34-1.5-0.8-1.55-2.39c0.37-0.33,0.7-0.59,0.98-0.89c0.6-0.65,1.3-0.6,2.19,0.18
				C367.66,153.89,367.52,154.16,366.34,155.34z"/>
			<path class="st19" d="M346.13,193.56c0.48-0.03,0.82-0.12,1.13-0.06c1.58,0.33,3.15,0.68,4.71,1.06
				c0.43,0.11,0.82,0.36,1.22,0.54c-0.23,0.73-1.37,1.08-2.02,0.65c-0.48-0.31-0.92-0.72-1.44-0.93
				C348.63,194.38,347.48,194.03,346.13,193.56z"/>
			<path class="st19" d="M360.54,169.14c1.06,1.13,2.38,1.82,3.17,3.12c-0.72-0.04-1.47,0.48-2.06-0.21
				C360.99,171.26,360.01,170.58,360.54,169.14z"/>
			<path class="st19" d="M357.49,196.5c-1.15,0.33-2.21,0.35-3.23-0.14c-0.16-0.08-0.26-0.28-0.39-0.42
				c0.16-0.14,0.29-0.34,0.47-0.4c0.38-0.13,0.79-0.21,1.19-0.25c0.45-0.04,0.94-0.21,1.08,0.55
				C356.65,196.09,357.14,196.26,357.49,196.5z"/>
		</g>
		<path class="st12" d="M349.23,126.08c5.83-0.83,12.04,0.52,17.46,3.33c5.43,2.84,10.06,7.13,13.7,12.05
			c3.65,4.93,6.33,10.53,8.12,16.37c0.89,2.92,1.52,5.92,1.97,8.93c0.43,3.02,0.64,6.07,0.66,9.11c-0.03,3.04-0.24,6.09-0.66,9.11
			c-0.45,3.02-1.08,6.01-1.97,8.93c-1.79,5.84-4.47,11.44-8.12,16.37c-3.64,4.92-8.27,9.2-13.7,12.05
			c-5.42,2.81-11.62,4.16-17.46,3.33v-0.87c5.64-0.83,10.79-3.01,15.07-6.28c4.3-3.24,7.79-7.39,10.53-11.96
			c2.74-4.58,4.75-9.59,6.07-14.77c0.65-2.6,1.15-5.23,1.46-7.89c0.33-2.66,0.5-5.34,0.49-8.02c0.01-2.68-0.16-5.36-0.49-8.02
			c-0.3-2.66-0.81-5.29-1.46-7.89c-1.32-5.18-3.33-10.19-6.07-14.77c-2.74-4.57-6.24-8.72-10.53-11.96
			c-4.28-3.26-9.43-5.45-15.07-6.28V126.08z"/>
	</g>
	<g>
		<g>
			<path class="st12" d="M329.67,223.9c0,0,4.85,1.18,5.02,1.24c0.17,0.06,1.02,0.11,1.47,1.41c0.45,1.3,1.12,4.34,1.12,4.34
				s0.14,0.8-0.17,0.85c-0.56,0.1-3.37-1.47-3.37-1.47l-7.79-3.1l0.68-3.95L329.67,223.9z"/>
			<path class="st13" d="M334.02,228.24c0,0-0.17-2.09,0.62-2.31c0.76-0.22,1.13,0.73,1.41,1.58c0.28,0.85,1.07,4.23,1.07,4.23
				l-1.35,0.23L334.02,228.24z"/>
			<path class="st12" d="M333.37,228.12l1.54-0.36c0.35-0.08,0.69,0.12,0.78,0.47c0.46,1.73,1.73,6.54,1.87,7
				c0.17,0.56,0.23,2.09-1.3,3.16c-1.29,0.91-4.8,0.96-4.91,0.79c-0.1-0.14-1-7.72-1.28-10.01c-0.04-0.36,0.22-0.68,0.58-0.73
				l2.64-0.31C333.33,228.13,333.35,228.13,333.37,228.12z"/>
			<path class="st13" d="M325.06,270.48c0,0-1.03,1.31-1.62,2.12c-0.59,0.82,0.67,2.57,3.82-0.43c2.45-2.34,0.93-3.64,0.93-3.64
				L325.06,270.48z"/>
			<path class="st13" d="M318.19,269.91c0,0-0.73,1.49-1.15,2.41c-0.41,0.92,1.19,2.38,3.65-1.21c1.92-2.79,0.16-3.76,0.16-3.76
				L318.19,269.91z"/>
			<path class="st13" d="M324.65,216.69c0,0-0.61,0.94-1.38,1.38c0,0-0.4-3.83,2.71-4.55c3.11-0.72,5.23,1.1,5.61,2.93
				s-0.49,4.22,1.35,5.69c1.84,1.46,0.9,3.99,0.38,5.05c-0.53,1.05-2.1,2.97-0.79,7s1.78,9.47-3.48,10.78
				c-5.26,1.32-7.07-4.41-6.21-9.44s-0.03-8.71,0.2-9.8c0.23-1.08-1.4-2.86,0.7-5.26S324.65,216.69,324.65,216.69z"/>
			<g>
				<path class="st20" d="M318.98,241.22c0,0-1.31,1.51-1.45,2.74c-0.14,1.23-0.26,1.84,0.25,1.9c0.25,0.03,0.3-0.71,0.62-1.38
					c0.68-1.43,1.01-0.85,1.01-0.85s-0.05,0.27-0.13,0.91c-0.04,0.32,0.09,0.59,0.22,0.6c0.16,0.02,0.22-0.04,0.29-0.27
					c0.07-0.21,0.14-0.57,0.31-1.15c0.35-1.21-0.31-2.31-0.31-2.31L318.98,241.22z"/>
				<path class="st21" d="M322.14,224.57c-0.68,0.31-1.62,1.73-2.99,7.99c-1.27,5.77-1.06,9.21-1.06,9.21s0.16,0.36,1.01,0.57
					c0.57,0.14,1.36-0.16,1.36-0.16s0.8-5.62,1.35-7.54c0.67-2.32,1.59-5.65,1.59-5.65s0.25-0.46,0.2-2.02
					C323.53,224.78,323.13,224.12,322.14,224.57z"/>
			</g>
			<path class="st20" d="M324.88,225.7c-0.54,0.33-0.62,0.92-0.72,2.81c-0.13,2.54,2.97,0.29,3.61-0.47
				c0.68-0.81,0.91-2.23,0.75-2.65c-0.26-0.66,0.16-5.73,0.16-5.73l-2.26,0.28c0,0-0.32,3.13-0.73,4.54
				C325.62,224.7,325.31,225.43,324.88,225.7z"/>
			<g>
				<path class="st17" d="M325.27,270.16c0.04-0.05,0.08-0.1,0.11-0.15C325.35,270.07,325.31,270.12,325.27,270.16z"/>
				<path class="st20" d="M325.39,270.02c-0.04,0.05-0.07,0.1-0.11,0.15c-1.34,1.8,0.17,2.52,2.05,0.69
					c0.28-0.33,0.52-0.66,0.7-0.91c0.58-0.82,0.17-1.42,0.17-1.42s1.75-8.06,0.78-12.14c-0.7-2.95,0.2-13.35,0.2-13.35l-6.03,0.15
					l1.75,12.93l1.36,12.64c0,0-0.28,0.47-0.81,1.18l0,0C325.43,269.96,325.41,269.99,325.39,270.02z"/>
				<path class="st22" d="M325.45,269.93L325.45,269.93c-0.02,0.03-0.04,0.05-0.06,0.08C325.41,269.99,325.43,269.96,325.45,269.93z
					"/>
			</g>
			<g>
				<path class="st17" d="M318.22,269.79c0.18-0.27,0.36-0.55,0.5-0.81C318.56,269.21,318.38,269.5,318.22,269.79z"/>
				<g>
					<path class="st20" d="M324.76,243.56l-4.74-2.33c0,0-0.71,25.44-0.91,26.82c-0.03,0.23-0.18,0.56-0.38,0.92l0,0c0,0,0,0,0,0.01
						c-0.14,0.26-0.32,0.54-0.5,0.81c-0.66,1.25-0.95,2.67,1.37,0.97c1.23-0.97,1.49-2.36,1.49-2.36s2.56-7.07,2.01-12.74
						C322.95,254.18,324.76,243.56,324.76,243.56z"/>
				</g>
				<polygon class="st22" points="318.73,268.97 318.73,268.97 318.72,268.98 				"/>
			</g>
			<g>
				<path class="st6" d="M320.24,240.05L320.24,240.05c-0.47,1.89-1.18,3.77-1.89,5.48c-0.75,1.8-1.49,4.5-1.88,6.01
					c-0.18,0.69-0.28,1.14-0.28,1.14s3.16,1.31,7.69,1.75c4.54,0.44,6.81-0.37,6.81-0.37s0.08-0.59,0.17-1.53
					c0.07-0.71,0.14-1.62,0.18-2.66c0.09-2.12-0.54-6.27-1.72-9.46c0,0-2.05,0.98-4.35,0.98
					C322.66,241.39,320.24,240.05,320.24,240.05z"/>
				<path class="st23" d="M331.67,226.21c-1.41-0.78-3.25-1.54-6.69-2.08c-1.97-0.31-2.82,0.17-3.27,0.86
					c-0.34,0.52-0.46,1.15-0.66,1.67c-0.47,1.2-1.27,2.05-1.36,3.71c-0.1,1.63,1.24,3.84,1.06,6.6c0,0.04,0,0.07,0,0.11
					c-0.08,0.97-0.64,2.11-0.89,3.11l0,0c0,0,2.63,1.43,4.93,1.43c2.3,0,4.91-1.13,4.91-1.13c-0.38-0.61-0.73-0.95-0.91-1.35
					c-0.01-0.02-0.02-0.05-0.03-0.07c-0.09-0.22-0.17-0.47-0.26-0.69c-0.89-2.88,0.98-5.11,2.65-8
					C331.64,229.53,333.09,226.99,331.67,226.21z"/>
			</g>
			<path class="st20" d="M325.78,214.76c-2.31-0.07-2.41,1.85-2.5,3.12c-0.07,0.89,0,2.57,0,2.57c0.17,1.66,0.64,2.87,1.5,3.19
				c1.08,0.41,2.65-0.49,3.96-1.89c1.16-1.24,1.35-2.08,1.38-2.28l0.55-4.38C330.68,215.08,327.01,214.79,325.78,214.76z"/>
			<g>
				<path class="st19" d="M329.48,234.95c-0.18-0.19-0.34-0.37-0.48-0.56c-0.91-1.24-1.72-3.76-1.38-5.23
					c0.63-2.74,3.37-3.31,3.75-3.35c0.38-0.04-0.47-0.85-1.22-0.96c0,0-3.56,1.3-3.81,4.34c-0.24,2.88,0.93,5.1,2.06,6.58
					C328.42,235.78,328.99,235.62,329.48,234.95z"/>
			</g>
			<path class="st21" d="M327.15,231.58c0.11,0.39,2.59,5.19,5.58,5.75c0.57,0.11,2.26,0.17,2.09-1.58
				c-0.12-1.25-1.24-6.77-1.24-6.77s-0.75-2.74-2.31-2.76c-1.36-0.02-1.97,1.58-1.64,3.44c0.24,1.32,0.68,2.22,0.51,2.09
				c-2.26-1.81-2.88-2.26-2.88-2.26S327.09,231.37,327.15,231.58z"/>
			<path class="st20" d="M329.06,230.88c-0.23-0.85-0.59-2.06-1.07-2.97c-0.16-0.31-1.48-0.34-1.79-0.2
				c-0.2,0.09-0.49,0.24-0.56,1.11c-0.06,0.69-0.07,1.16-0.07,1.16s-0.13,0.49,0.37,0.8c0.5,0.31,0.83,0.3,0.83,0.3
				s0.47,0.85,0.75,1.09c0.15,0.13,0.56,0.19,0.56,0.19S329.47,232.37,329.06,230.88z"/>
			<path class="st20" d="M324.83,224.11c0,0-0.92,2.36-0.72,3.32c0.2,0.97,1.65,0.83,2.91,0.11s2.47-2.32,2.47-2.32
				S328.2,224.51,324.83,224.11z"/>
			<path class="st20" d="M328.43,224.11c-0.01,0.7,0.35,0.84,1.06,1.12c0,0-1.45,0.45-1.78,0.33c-0.33-0.12,0-1.27,0-1.27
				L328.43,224.11z"/>
			<path class="st13" d="M324.08,216.34c0.55,0.97,2.13,2.35,3.56,2.48c0,0,0.32-0.82,0.8-0.82c0.61,0,0.65,1.77-0.17,2.17
				c0,0,0.32,0.81,0.19,1.64c-0.13,0.84-0.73,2.77,0.01,3.35c0.74,0.58,2.98,0.8,3.6,1.32c0,0,0.07-8.37-2.32-9.73
				S324.08,216.34,324.08,216.34z"/>
			<path class="st13" d="M329.71,217.71c0,0-5.23-1.19-5.31-1.2s-0.38,0.97-1.14,1.68c0,0-0.33-2.85,1.54-3.61
				c1.87-0.76,4.19-0.41,4.91-0.1c0.72,0.31,1.36,0.49,1.36,1.18s-0.72,2.97-0.72,2.97L329.71,217.71z"/>
		</g>
		<g>
			<g>
				<g>
					<path class="st13" d="M403.24,260.7l-2.27,2.6c0,0-1.01,0.89-1.41,1.39c-0.09,0.11-0.23,0.53-0.24,0.87
						c-0.01,0.22,0.01,0.92,0.13,1.07c0.32,0.4,1.54,1.14,3.02,1.03c1.65-0.13,2.65-1.33,2.65-1.33c0.27-0.2,2.27-2.19,2.27-2.19
						s0.62-0.59,0.65-1.33l0.1-1.73L403.24,260.7z"/>
					<path class="st13" d="M403.28,260.1l-0.29,0.86l-2.13,2.21c0,0-0.5,0.48-1.01,1.17c-0.17,0.24-0.39,0.5-0.41,0.84
						c-0.01,0.21,0.04,0.43,0.16,0.58c0.32,0.4,1.2,0.82,1.75,0.93c2.05,0.42,3.27-0.77,3.27-0.77c0.22-0.16,2.52-2.19,3.03-2.82
						c0.31-0.38,0.45-1.31,0.45-1.31s0.1-0.51,0.13-0.9c0.09-1.21-1.1-2.14-1.1-2.14L403.28,260.1z"/>
				</g>
				<g>
					<path class="st13" d="M392.2,254.3l-2.78,2.64c0,0-1.21,0.16-1.61,0.65c-0.09,0.11-1.12,0.11-1.12,0.42
						c0,0.2,0.05,0.89,0.16,1.06c0.22,0.33,0.55,0.73,1.71,0.72c0.9,0,2.19-0.44,3.5-0.84c1.25-0.39,2.54-0.61,2.54-0.61
						c1.46-0.31,2.2-0.64,2.2-0.64s0.4-0.19,0.42-0.51l0.13-1.75L392.2,254.3z"/>
					<path class="st13" d="M391.68,253.96c0.28,0.45-0.02,0.6-0.02,0.6l-2.57,1.59c0,0-1.39,0.72-1.91,1.06
						c-0.24,0.16-0.5,0.46-0.5,0.77c0,0.2,0.19,0.57,0.49,0.77c0.42,0.27,0.74,0.33,1.82,0.32c1-0.01,2.74-0.84,4.71-1.25
						c3.66-0.76,3.56-1.47,3.56-1.47s0.09-1.12,0.1-1.48c0.03-1.12-0.34-1.76-0.34-1.76s-3.19,0.65-4.94,0.15
						C392,253.23,391.5,253.67,391.68,253.96z"/>
				</g>
				<path class="st13" d="M414.15,230.23l-15.34,6.53c0,0-2.05,0.34-3.04,4.53c-0.63,2.65-1.65,6.29-3.63,12.13
					c-0.43,1.26,2.47,2.9,5.18,0.83c0.24-0.19,2.52-7.01,2.62-7.23c0.64-1.37,1.46-4.82,1.46-4.82c0.45-0.9,1.61-0.69,2.8-1.34
					l9.88-3.55c0,0,0.36-0.88,0.36-3.83C414.44,232.52,414.15,230.23,414.15,230.23z"/>
				<path class="st13" d="M416.2,232.78c0,0-5.99,6.25-10.33,10.66c-1.31,1.34-1.13,2.73-1.34,4.82c-0.29,2.78-1.1,11.25-1.52,12.23
					c-0.43,0.99,2.96,2.44,5.24,0c0.23-0.24,1.64-6.92,1.66-7.19c0,0,0.83-4.29,0.9-4.82c0.22-1.68,0.92-2.2,1.57-2.58
					c2.12-1.23,5.39-3.33,7.06-4.59c1.84-1.4,2.51-3.94,2.48-5C421.85,233.79,416.2,232.78,416.2,232.78z"/>
				<path class="st24" d="M420.92,231.4l-1.04-0.6l0,0.73c0,0.33-0.23,0.73-0.52,0.9l-0.63,0.37l1.04,0.6l0.63-0.37
					c0.29-0.17,0.52-0.57,0.52-0.9L420.92,231.4z"/>
				<g>
					<path class="st25" d="M421.72,230.93l0,1.05c0,0.66-0.46,1.47-1.04,1.8l-0.91,0.53l0-0.92l0.63-0.37
						c0.29-0.17,0.52-0.57,0.52-0.9l0-0.73L421.72,230.93z"/>
				</g>
				<g>
					<g>
						<polygon class="st26" points="413.7,226.71 414.44,226.28 417.92,228.3 417.18,228.73 						"/>
					</g>
					<polygon class="st27" points="417.92,229.28 417.18,229.71 417.18,228.73 417.92,228.29 					"/>
					<g>
						<g class="st28">
							<g>
								<polygon class="st29" points="408.3,222.34 409.18,222.86 413.16,220.56 412.27,220.04 								"/>
							</g>
						</g>
					</g>
					<polygon class="st27" points="413.7,226.71 412.59,221.75 411.93,222.13 413.1,227.34 417.18,229.69 417.18,228.73 					"/>
				</g>
				<path class="st6" d="M406.73,228.67c0.28,0.03,0.74-0.02,0.74-0.02s1.2,0.43,1.08,0.19c-0.72-1.48-1.39-2.4-1.16-2.75
					c0.11-0.15,0.45-0.79,0.73-1.13c1.09-1.3,3.52-4.54,3.52-4.54s1.6-5.6-0.35-5.78c-1.55-0.14-2.46,2.28-3.51,4.34
					c-0.34,0.66-3,4.63-3.36,5.24c-1.04,1.73-0.22,2.15-0.22,2.15l0.47,0.75C404.68,227.11,405.4,228.51,406.73,228.67z"/>
				<path class="st30" d="M422.91,233.94c0,0,1.07-11.02,0.62-14.42c-0.14-1.08-1.82-2.26-1.82-2.26c-0.62-0.48-4.37-2.83-4.37-2.83
					s-0.4-0.41-0.38-0.4l-2.6-0.31c0,0-2.7-0.32-3.31,1.02c-0.9,1.97-1.48,3.18-1.24,6.99l1.7,13.58c0.03,0.51,0.53,2.58,1.1,2.98
					c0,0,3.24,3.15,7.39,2.34c1.35-0.27,2.4-2.47,2.79-3.52C423.24,235.97,422.93,233.76,422.91,233.94z"/>
				<path class="st31" d="M414.14,217.01c1.39,1.78,3.79-1.08,3.2-2.55c-0.84-2.08-0.12-6.07-0.12-6.07l-3.97,3.02L414.14,217.01z"
					/>
				<g>
					<path class="st31" d="M413.97,215.91c0.22-0.06,0.39-0.19,0.53-0.36c-0.18,0.13-0.38,0.25-0.59,0.37
						C413.93,215.92,413.95,215.92,413.97,215.91z"/>
					<path class="st31" d="M416.48,211.8l-0.73-6l-3.33,0.36l0,0l-2.93,0.25c0,0-0.33,1.39-0.23,2.6l-0.03,0.04
						c0,0,0.16,2.01,0.9,4.06c0.31,0.86,0.68,1.57,1.15,2.09c0.64,0.71,1.47,1.03,2.63,0.71c0.21-0.12,0.41-0.24,0.59-0.37
						c0.16-0.12,0.33-0.23,0.47-0.35c0.64-0.55,1.14-0.92,1.14-0.92c0.43-0.41,0.38-0.95,0.41-1.34
						C416.54,212.59,416.48,212.22,416.48,211.8z"/>
				</g>
				<path class="st6" d="M408.55,228.67c0,0-0.99-1.95-1.23-2.96c-0.35-1.48-2.25-2.5-2.85-1.57c-1,1.54-0.78,2.78-0.54,3.4
					c0.38,0.99,1.44,2.15,1.84,2.6L408.55,228.67z"/>
				<g>
					<path class="st12" d="M419,237.49c0.28,0.16,0.28,0.42,0,0.58l-9.04,5.25c-0.27,0.16-0.72,0.16-1,0l-12.6-7.27
						c-0.28-0.16-0.28-0.42-0.01-0.58l9.04-5.25c0.28-0.16,0.72-0.16,1,0L419,237.49z"/>
				</g>
				<path class="st12" d="M409.72,242.59l-13.4-7.77c-0.12-0.07-0.27,0.02-0.27,0.15l0,0.42c0,0.22-0.01,0.42,0.2,0.55l0.14,0.08
					l0.09-0.06l0.57,0.33v0.12l0.11,0.07l0.1-0.08l0.58,0.33l0,0.13l0.1,0.06l0.1-0.07l0.57,0.33v0.12l0.11,0.06l0.1-0.07l0.58,0.33
					v0.13l9.65,5.59c0.14,0.08,0.38,0.11,0.55,0.09c0.12,0,0.29-0.06,0.29-0.06l0.39-0.21l8.77-5.1c0.22-0.13,0.17-0.33,0.17-0.45
					v-0.66L409.72,242.59z"/>
				<g>
					<path class="st32" d="M419,236.66c0.28,0.16,0.28,0.42,0,0.58l-9.04,5.25c-0.27,0.16-0.72,0.16-1,0l-12.6-7.27
						c-0.28-0.16-0.28-0.42-0.01-0.58l9.04-5.25c0.28-0.16,0.72-0.16,1,0L419,236.66z"/>
				</g>
				<g>
					<path class="st13" d="M398.48,234.16l4.46-2.58c0.17-0.1,0.52-0.07,0.76,0.07l11.13,6.46c0.25,0.14,0.3,0.34,0.13,0.44
						l-4.19,2.42c-0.16,0.09-0.37,0.09-0.53,0L398.48,234.16z"/>
				</g>
				<g>
					<path class="st13" d="M412.88,233.88c0.28,0.16,0.28,0.42,0.01,0.58l-1.24,0.74c-0.27,0.17-0.72,0.17-1,0.01l-1.98-1.11
						c-0.28-0.16-0.28-0.42-0.01-0.58l1.24-0.74c0.27-0.16,0.72-0.17,1-0.01L412.88,233.88z"/>
				</g>
				<g class="st28">
					<defs>
						<path id="SVGID_1_" class="st28" d="M408.49,235.34v-0.25c0,0.03,0.02,0.06,0.06,0.08l0,0.25
							C408.51,235.4,408.49,235.37,408.49,235.34z"/>
					</defs>
					<clipPath id="SVGID_2_">
						<use xlink:href="#SVGID_1_"  style="overflow:visible;"/>
					</clipPath>
				</g>
				<g class="st28">
					<defs>
						<path id="SVGID_3_" class="st28" d="M409.33,236.5c0-0.08,0-0.17,0-0.25c0,0.03,0.02,0.06,0.06,0.08l0,0.25
							C409.35,236.55,409.33,236.52,409.33,236.5z"/>
					</defs>
					<clipPath id="SVGID_4_">
						<use xlink:href="#SVGID_3_"  style="overflow:visible;"/>
					</clipPath>
				</g>
				<polygon class="st33" points="409.72,236.52 409.72,236.77 409.38,236.57 409.39,236.32 				"/>
				<g class="st28">
					<defs>
						<path id="SVGID_5_" class="st28" d="M409.99,236.52l0,0.25c-0.07,0.04-0.19,0.04-0.27,0v-0.25
							C409.79,236.56,409.92,236.56,409.99,236.52z"/>
					</defs>
					<clipPath id="SVGID_6_">
						<use xlink:href="#SVGID_5_"  style="overflow:visible;"/>
					</clipPath>
				</g>
				<g class="st28">
					<defs>
						<path id="SVGID_7_" class="st28" d="M410.05,236.91l0-0.25c0,0.03,0.02,0.06,0.06,0.08v0.25
							C410.06,236.97,410.05,236.94,410.05,236.91z"/>
					</defs>
					<clipPath id="SVGID_8_">
						<use xlink:href="#SVGID_7_"  style="overflow:visible;"/>
					</clipPath>
				</g>
				<g class="st28">
					<defs>
						<path id="SVGID_9_" class="st28" d="M409.46,237.25V237c0,0.03,0.02,0.06,0.06,0.08l0,0.25
							C409.47,237.3,409.46,237.28,409.46,237.25z"/>
					</defs>
					<clipPath id="SVGID_10_">
						<use xlink:href="#SVGID_9_"  style="overflow:visible;"/>
					</clipPath>
				</g>
				<g>
					<polygon class="st33" points="409.85,237.27 409.85,237.52 409.51,237.33 409.51,237.07 					"/>
				</g>
				<g class="st28">
					<defs>
						<path id="SVGID_11_" class="st28" d="M409.61,238l0-0.25c0,0.03,0.02,0.06,0.06,0.08v0.25
							C409.63,238.06,409.61,238.03,409.61,238z"/>
					</defs>
					<clipPath id="SVGID_12_">
						<use xlink:href="#SVGID_11_"  style="overflow:visible;"/>
					</clipPath>
				</g>
				<g>
					<polygon class="st33" points="410.01,238.02 410.01,238.27 409.67,238.08 409.67,237.83 					"/>
				</g>
				<g class="st28">
					<defs>
						<path id="SVGID_13_" class="st28" d="M409.76,238.74l0-0.25c0,0.03,0.02,0.06,0.06,0.08v0.25
							C409.78,238.8,409.76,238.77,409.76,238.74z"/>
					</defs>
					<clipPath id="SVGID_14_">
						<use xlink:href="#SVGID_13_"  style="overflow:visible;"/>
					</clipPath>
				</g>
				<path class="st34" d="M403.99,232.09c0-0.01,0-0.01-0.01-0.02c-0.01-0.03-0.02-0.06-0.03-0.1l0,0c0,0,0,0,0,0
					c-0.01-0.03-0.03-0.05-0.04-0.08c0-0.01-0.01-0.01-0.01-0.02c-0.01-0.02-0.03-0.04-0.04-0.06c0,0-0.01-0.01-0.01-0.01
					c0,0,0,0-0.01-0.01c-0.01-0.01-0.02-0.02-0.04-0.04c-0.01-0.01-0.01-0.01-0.02-0.02c-0.02-0.02-0.04-0.03-0.06-0.04l-3.14-1.82
					c-0.08-0.05-0.15-0.05-0.21-0.02l-0.22,0.12c0.05-0.03,0.13-0.03,0.21,0.02l3.15,1.82c0.02,0.01,0.04,0.03,0.06,0.04
					c0.01,0.01,0.01,0.01,0.02,0.02c0.01,0.01,0.03,0.02,0.04,0.04c0.01,0.01,0.01,0.01,0.02,0.02c0.02,0.02,0.03,0.04,0.04,0.06
					c0.01,0.01,0.01,0.01,0.01,0.02c0.02,0.02,0.03,0.05,0.04,0.08c0,0,0,0,0,0.01c0.01,0.03,0.02,0.06,0.03,0.1
					c0,0.01,0,0.02,0.01,0.02c0.01,0.03,0.01,0.06,0.01,0.1c0,0.09-0.03,0.15-0.08,0.19l0.22-0.13c0.05-0.03,0.08-0.1,0.08-0.19
					C404.01,232.16,404,232.13,403.99,232.09z"/>
				<g>
					<path class="st31" d="M413.88,234.77c-0.56,0.19-1.17-0.44-1.34-0.95c-0.06-0.18-1.13,0.07-1.61-0.06
						c-0.5-0.14-0.4-0.64-0.3-0.75c0.08-0.09,0.69-0.04,1.77-0.13c1.4-0.11,2.07,0.11,2.23,0.62
						C414.81,234.01,414.44,234.58,413.88,234.77z"/>
					<path class="st31" d="M415.46,234.46c-0.29-1.64-1.77-1.48-1.77-1.48s-2.22,0.73-2.87,1.15c-0.43,0.28-1.22,1.17-1.36,1.55
						c-0.22,0.6,0.29,0.62,0.29,0.62c0.86,0.6,1.63,0.28,1.63,0.28l1.36-0.62C415.07,235.45,415.58,235.15,415.46,234.46z"/>
					<path class="st6" d="M415.01,234.12c0.32,0.77,0.03,1.13,0.06,1.13c2.33-0.24,8.28-0.52,9.81-1.2
						c1.54-0.68,1.17-2.43,1.17-2.43s-1.34-8.38-2.22-11.62c-0.7-2.56-3.32-1.69-3.63,1.09c-0.18,1.59,0.96,7,1.27,8.79
						c0.18,1.03-0.53,1.12-0.53,1.12l-6.81,2.01C414.13,233,414.67,233.32,415.01,234.12z"/>
				</g>
				<g>
					<path class="st31" d="M406.97,229.08c0.23,0.54,0.19,0.6,0.68,0.39c0.17-0.07,0.84,0,0.73,0.6c-0.09,0.51,0.49,1.09,0.69,0.33
						c0.03-0.11,0.22-0.84,0.02-1.15c-0.93-1.51-1.79-1.67-2.28-1.46C406.32,228,406.74,228.54,406.97,229.08z"/>
					<path class="st31" d="M405.8,228.48c0,0,0.83-0.75,1.23-0.75c0.91,0,1.26,0.75,1.26,0.75l0.12,0.27l0.39,1.9
						c0,0,0.44,1.35,0.38,1.92c-0.03,0.21-0.24,0.22-0.44,0.07c-0.17-0.13-0.42-1.17-0.62-1.13c-1.08,0.2-1.86-0.1-1.86-0.1
						l-0.85-1.48C405.13,229.33,405.3,229.2,405.8,228.48z"/>
				</g>
				<path class="st12" d="M410.09,232.68c0-0.01,0-0.01,0-0.02c-0.01-0.03-0.02-0.06-0.03-0.08h0c0,0,0-0.01,0-0.01
					c-0.01-0.02-0.02-0.04-0.03-0.06c0-0.01-0.01-0.01-0.01-0.02c-0.01-0.02-0.02-0.03-0.04-0.05c0-0.01-0.01-0.01-0.01-0.01
					c0,0,0,0-0.01-0.01c-0.01-0.01-0.02-0.02-0.03-0.03c-0.01-0.01-0.01-0.01-0.02-0.02c-0.02-0.02-0.04-0.03-0.05-0.04l-12.97-7.49
					c-0.07-0.04-0.13-0.04-0.18-0.02l-0.54,0.31c0.04-0.03,0.11-0.02,0.18,0.02l12.97,7.49c0.02,0.01,0.04,0.02,0.05,0.04
					c0.01,0,0.01,0.01,0.02,0.02c0.01,0.01,0.02,0.02,0.03,0.03c0.01,0.01,0.01,0.01,0.02,0.02c0.01,0.02,0.02,0.03,0.04,0.05
					c0,0.01,0.01,0.01,0.01,0.02c0.01,0.02,0.02,0.04,0.03,0.06c0,0,0,0.01,0,0.01c0.01,0.03,0.02,0.06,0.03,0.08
					c0,0.01,0,0.01,0.01,0.02c0.01,0.03,0.01,0.05,0.01,0.08l-0.01,9.46c0.13,0.01,0.21-0.05,0.27-0.08
					c0.06-0.03,0.19-0.11,0.19-0.11c0.04-0.03,0.07-0.07,0.07-0.12l0.03-9.47C410.1,232.74,410.09,232.71,410.09,232.68z"/>
				<g>
					<path class="st32" d="M409.31,232.64c0.14,0.08,0.25,0.28,0.25,0.43l-0.01,9.46c0,0-0.12,0.01-0.27-0.06
						c-0.19-0.09-11.04-6.28-12.94-7.36c-0.17-0.1-0.28-0.27-0.28-0.46v-9.37c0-0.16,0.11-0.22,0.25-0.14L409.31,232.64z"/>
				</g>
			</g>
			<path class="st13" d="M417.19,214.03c0,0,1.25-3.59,1.3-5.92s-1.66-4.48-3.8-4.52c-2.14-0.05-3.18,0.63-5.46,1.05
				c-2.28,0.42-1.46,3.42,0,4.43c0,0,0.83-0.57,2.29-0.62c1.47-0.05,2.56-0.63,2.56-0.63s0.59,2.08,0.75,4.17c0,0,0.34,0,0.66-0.28
				c0,0-0.57-1.81,0.27-2.23c0.84-0.41,1.45,0.5,0.81,2.34C416.57,211.81,416.52,212.93,417.19,214.03z"/>
		</g>
		<g>
			<path class="st12" d="M208.94,261.09c0,0,6.05,1.48,6.26,1.55c0.21,0.07,1.27,0.14,1.83,1.76c0.56,1.62,1.39,5.42,1.39,5.42
				s0.17,1-0.21,1.07c-0.69,0.13-4.21-1.84-4.21-1.84l-9.71-3.87l0.84-4.93L208.94,261.09z"/>
			<path class="st13" d="M214.36,266.51c0,0-0.21-2.6,0.77-2.89c0.95-0.27,1.41,0.91,1.76,1.97c0.35,1.06,1.34,5.28,1.34,5.28
				l-1.69,0.28L214.36,266.51z"/>
			<path class="st12" d="M213.56,266.36l1.88-0.43c0.46-0.11,0.91,0.17,1.03,0.62c0.58,2.19,2.15,8.12,2.32,8.69
				c0.21,0.7,0.28,2.6-1.62,3.94c-1.61,1.13-5.98,1.2-6.12,0.99c-0.12-0.18-1.24-9.52-1.59-12.44c-0.06-0.48,0.28-0.91,0.76-0.97
				l3.24-0.38C213.5,266.37,213.53,266.36,213.56,266.36z"/>
			<path class="st31" d="M195.71,281.57c0,0-1.06,2.25-1.06,3.17c0,0.91,0.68,2.73,0.68,2.73s0.41,0.87,1.22,0.86
				c0.91-0.02,1.05-0.86,1.05-0.86s-0.28-1.96,0.14-2.8c0.42-0.84,0.56-1.83,0.56-1.83L195.71,281.57z"/>
			<path class="st31" d="M195.57,282.41c0,0-0.63,0.98-0.63,1.76c0,0.77,0.84,2.81,0.84,2.81s0.45,0.31,0.64-0.2
				c0.22-0.61-0.21-1.62-0.21-1.62s0-0.07,0.56-0.7c0.56-0.63,0.35-1.83,0.35-1.83L195.57,282.41z"/>
			<path class="st12" d="M196.84,283.4c0.58,0.1,1.62-0.21,1.62-0.21s1.4-5.04,1.48-5.28c0.47-1.37,1.59-6.18,1.93-7.95
				c0.38-1.94,0.82-5.45,0.82-5.45s1.35-4.26-0.64-5.11c-1.14-0.49-3.87,0.85-4.15,5.07c-0.08,1.24-0.84,8.45-0.84,8.45l-1.76,9.36
				C195.28,282.27,195.71,283.2,196.84,283.4z"/>
			<g>
				<path class="st12" d="M199.02,309.22l-1.53,0.7c0,0-3.09,1.11-3.73,1.47c-0.35,0.2-0.52,0.63-0.57,0.91
					c-0.03,0.18-0.04,0.68,0.06,0.82c0.27,0.37,0.86,0.8,1.4,0.9c1.04,0.2,3.24-0.22,3.24-0.22c0.28-0.13,4.73-1.54,4.73-1.54
					s0.17-0.54,0.21-0.86l0.27-2.18L199.02,309.22z"/>
				<path class="st35" d="M193.76,311.38c0.09-0.05,0.07-0.05,0.25-0.13c0.25,0.05,0.65,0.15,1.25,0.55
					c1.16,0.78,1.34,1.97,1.34,1.97s-0.47,0.23-2.7-0.11c-0.03,0-0.05,0-0.07-0.01c-0.24-0.17-0.45-0.36-0.58-0.54
					c-0.1-0.15-0.1-0.65-0.06-0.82C193.24,312.01,193.41,311.59,193.76,311.38z"/>
				<path class="st35" d="M193.17,312.44c0,0.05,0.2,0.47,1.4,0.9c1.77,0.63,7.27-1.13,7.53-1.23c0.6-0.21,0.69-0.41,0.69-0.41
					s-0.13,0.62-0.15,0.61c0,0-0.12,0.61-0.46,0.76c-0.28,0.12-2.45,0.56-3.01,0.69c0,0-3.21,0.7-4.73,0.28
					c-0.52-0.14-1.27-0.45-1.27-1.04C193.17,312.83,193.17,312.38,193.17,312.44z"/>
			</g>
			<path class="st9" d="M197.95,282.76l0.34,26.76c-0.24,0.7,1.29,1.49,1.7,1.56c1.87,0.35,3.06-0.26,3.15-0.82l1.4-29.17
				L197.95,282.76z"/>
			<path class="st12" d="M207.13,313.11l-2.68,1.8c0,0-1.24,0.83-1.82,1.27c-0.32,0.24-0.45,0.68-0.46,0.97
				c-0.01,0.18,0.04,0.68,0.17,0.81c0.32,0.33,0.97,0.59,1.5,0.72c1.58,0.36,3.19-0.62,3.19-0.62c0.27-0.16,4.51-2.12,4.51-2.12
				s0.1-0.29,0.07-0.54l0.03-2.54L207.13,313.11z"/>
			<path class="st9" d="M202.59,278.59l3.96,33.53c0.04,0.67-0.75,1.83-0.6,1.79c1.32-0.36,3.51,1.36,4.68,1.23
				c0.79-0.09,1.07-0.91,1.07-1.51l-1.59-32.5L202.59,278.59z"/>
			<path class="st12" d="M200.71,260c-1.16,1.84-2.66,6.28-2.68,11.71c-0.01,4.38-0.14,13.79-0.14,13.79
				c-0.04,0.51,1.13,1.65,2.84,2.17c4.34,1.3,8.22,0.64,9.88-0.01c0.36-0.14,0.44-0.58,0.49-0.8l1.45-21.57c0.13-1.19-4-3.64-4-3.64
				l-4.91-2.27C203.64,259.38,201.5,258.75,200.71,260z"/>
			<path class="st31" d="M203.19,259.67l0.46-3.04l4.99-0.42c0,0-0.58,2.18-0.57,3.18c0.01,0.6,0.05,1.83,0.48,2.25
				c0.03,0.07-0.81,0.22-2,0.78c-1.6,0.75-3.94,1.6-4.64,0.41C201.44,262.04,202.05,260.78,203.19,259.67z"/>
			<g>
				<path class="st31" d="M205.36,249.82L205.36,249.82l-3.51-1.42l-0.68,2.04c0,0-0.02,0.95-0.05,2.17
					c-0.57,3.07-1.36,9.06,3.44,7.12c0.9-0.19,1.62-0.95,1.62-0.95c0.58-0.27,0.84-0.61,1.01-1c0.15-0.35,0.25-0.35,0.39-0.78
					l1.32-6.41L205.36,249.82z"/>
				<path class="st31" d="M208.94,254.06c-0.92-0.19-1.27,0.94-1.27,0.94l-0.34,1.58c0,0-0.04,0.41,0.29,0.55
					c0.5,0.22,0.82-0.19,1.16-0.64c0.02-0.03,0.48-0.71,0.5-0.75C209.68,255.17,209.81,254.25,208.94,254.06z"/>
			</g>
			<path class="st35" d="M202.62,316.18c0.09-0.07,0.2-0.15,0.32-0.24c0.21-0.03,0.64,0,1.48,0.43c1.24,0.63,1.82,1.75,1.82,1.75
				s-0.83,0.39-3.09,0.32c-0.04,0-0.06-0.01-0.1-0.01c-0.29-0.13-0.57-0.29-0.74-0.47c-0.12-0.13-0.18-0.64-0.17-0.81
				C202.18,316.86,202.3,316.42,202.62,316.18z"/>
			<path class="st35" d="M202.15,317.11c0.09,0.42,1.2,0.9,1.73,1.04c2.64,0.69,6.86-2.05,7.09-2.2c0.53-0.36,0.64-0.58,0.64-0.58
				s-0.08,1.04-0.07,0.9c0,0-0.04,0.34-0.37,0.53c-0.26,0.16-2.87,1.4-3.42,1.59c0,0-2.3,1.01-4.04,0.48
				c-0.53-0.16-1.24-0.37-1.55-0.88C202.08,317.84,202.14,317.05,202.15,317.11z"/>
			<path class="st19" d="M209.54,262.28c0,0-4.44,1.62-4.76,5.42c-0.31,3.8,1.34,6.69,2.82,8.54c0.98,1.22,4.15,3.52,4.15,3.52
				l0.07-2.31c0,0-2.57-1.71-3.71-3.27c-1.13-1.55-2.14-4.69-1.72-6.52c0.78-3.42,4.21-4.13,4.68-4.18
				C211.53,263.43,210.48,262.43,209.54,262.28z"/>
			<path class="st12" d="M205.85,270.59c0.14,0.49,3.24,6.48,6.97,7.18c0.71,0.13,2.82,0.21,2.6-1.97
				c-0.15-1.56-1.55-8.45-1.55-8.45s-0.93-3.42-2.89-3.45c-1.7-0.03-2.46,1.97-2.04,4.29c0.3,1.65,0.85,2.77,0.63,2.6
				c-2.82-2.25-3.59-2.82-3.59-2.82S205.77,270.34,205.85,270.59z"/>
			<path class="st31" d="M208.24,269.72c-0.29-1.06-0.73-2.57-1.33-3.71c-0.2-0.38-1.84-0.42-2.24-0.25
				c-0.25,0.11-0.61,0.3-0.7,1.38c-0.07,0.86-0.09,1.45-0.09,1.45s-0.17,0.61,0.46,1c0.62,0.39,1.03,0.38,1.03,0.38
				s0.59,1.06,0.94,1.36c0.19,0.16,0.7,0.23,0.7,0.23S208.75,271.58,208.24,269.72z"/>
			<path class="st13" d="M201.12,252.37c0,0-4.23-7.39,3.62-6.84c7.37,0.52,8.95,6.22,5.37,9.82c0,0-0.53,1.27-1.81,2.23
				c0,0,0.13-1,0.91-1.91c0.79-0.91-0.2-2.78-1.64-0.25c0,0-0.67-0.54-0.7-1.48c-0.04-0.94,0.34-2.43,0.34-2.43
				s-2.14,0.25-5.77-0.25C201.46,251.24,201.36,251.69,201.12,252.37z"/>
		</g>
		<g>
			<g>
				<g>
					<path class="st13" d="M73.33,233.74l0.29,0.86l2.13,2.21c0,0,0.5,0.48,1.01,1.17c0.17,0.24,0.39,0.5,0.41,0.84
						c0.01,0.21-0.04,0.43-0.16,0.58c-0.32,0.4-1.2,0.82-1.75,0.93c-2.05,0.42-3.27-0.77-3.27-0.77c-0.22-0.16-2.52-2.19-3.03-2.82
						c-0.31-0.38-0.45-1.31-0.45-1.31s-0.1-0.51-0.13-0.9c-0.09-1.21,1.1-2.14,1.1-2.14L73.33,233.74z"/>
				</g>
				<g>
					<path class="st13" d="M84.93,227.6c-0.28,0.45,0.02,0.6,0.02,0.6l2.57,1.59c0,0,1.39,0.72,1.91,1.06
						c0.24,0.16,0.5,0.46,0.5,0.77c0,0.2-0.19,0.57-0.49,0.77c-0.42,0.27-0.74,0.33-1.82,0.32c-1-0.01-2.74-0.84-4.71-1.25
						c-3.66-0.76-3.56-1.47-3.56-1.47s-0.09-1.12-0.1-1.48c-0.03-1.12,0.34-1.76,0.34-1.76s3.19,0.65,4.94,0.15
						C84.61,226.87,85.11,227.32,84.93,227.6z"/>
				</g>
				<path class="st13" d="M62.46,203.87l15.34,6.53c0,0,2.05,0.34,3.04,4.53c0.63,2.65,1.65,6.29,3.63,12.13
					c0.43,1.26-2.47,2.9-5.18,0.83c-0.24-0.19-2.52-7.01-2.62-7.23c-0.64-1.37-1.46-4.82-1.46-4.82c-0.45-0.9-1.61-0.69-2.8-1.34
					l-9.88-3.55c0,0-0.36-0.88-0.36-3.83C62.17,206.16,62.46,203.87,62.46,203.87z"/>
				<path class="st13" d="M60.41,206.42c0,0,5.99,6.25,10.33,10.66c1.31,1.34,1.13,2.73,1.34,4.82c0.29,2.78,1.1,11.25,1.52,12.23
					c0.43,0.99-2.96,2.44-5.24,0c-0.23-0.24-1.64-6.92-1.66-7.19c0,0-0.83-4.29-0.9-4.82c-0.22-1.68-0.92-2.2-1.57-2.58
					c-2.12-1.23-5.39-3.33-7.06-4.59c-1.84-1.4-2.51-3.94-2.48-5C54.76,207.43,60.41,206.42,60.41,206.42z"/>
				<path class="st24" d="M55.7,205.04l1.04-0.6l0,0.73c0,0.33,0.23,0.73,0.52,0.9l0.63,0.37l-1.04,0.6l-0.63-0.37
					c-0.29-0.17-0.52-0.57-0.52-0.9L55.7,205.04z"/>
				<g>
					<path class="st25" d="M54.9,204.58l0,1.05c0,0.66,0.46,1.47,1.04,1.8l0.91,0.53l0-0.92l-0.63-0.37
						c-0.29-0.17-0.52-0.57-0.52-0.9l0-0.73L54.9,204.58z"/>
				</g>
				<g>
					<g>
						<polygon class="st26" points="62.91,200.35 62.17,199.92 58.69,201.94 59.43,202.38 						"/>
					</g>
					<polygon class="st27" points="58.69,202.92 59.43,203.35 59.43,202.37 58.69,201.94 					"/>
					<g>
						<g class="st28">
							<g>
								<polygon class="st29" points="68.32,195.98 67.43,196.5 63.46,194.2 64.34,193.69 								"/>
							</g>
						</g>
					</g>
					<polygon class="st27" points="62.92,200.35 64.03,195.39 64.68,195.77 63.52,200.98 59.43,203.34 59.43,202.37 					"/>
				</g>
				<path class="st36" d="M69.89,202.31c-0.28,0.03-0.74-0.02-0.74-0.02s-1.2,0.43-1.08,0.19c0.72-1.48,1.39-2.4,1.16-2.75
					c-0.11-0.15-0.45-0.79-0.73-1.13c-1.09-1.3-3.52-4.54-3.52-4.54s-1.6-5.6,0.35-5.78c1.55-0.14,2.46,2.28,3.51,4.34
					c0.34,0.66,3,4.63,3.36,5.24c1.04,1.73,0.22,2.15,0.22,2.15l-0.47,0.75C71.93,200.75,71.22,202.15,69.89,202.31z"/>
				<path class="st21" d="M53.7,207.58c0,0-1.07-11.02-0.62-14.42c0.14-1.08,1.82-2.26,1.82-2.26c0.62-0.48,4.37-2.83,4.37-2.83
					s0.4-0.41,0.38-0.4l2.6-0.31c0,0,2.7-0.32,3.31,1.02c0.9,1.97,1.48,3.18,1.24,6.99l-1.7,13.58c-0.03,0.51-0.53,2.58-1.1,2.98
					c0,0-3.24,3.15-7.39,2.34c-1.35-0.27-2.4-2.47-2.79-3.52C53.37,209.61,53.69,207.4,53.7,207.58z"/>
				<path class="st22" d="M62.47,190.65c-1.39,1.78-3.79-1.08-3.2-2.55c0.84-2.08,0.63-5.59,0.63-5.59l3.46,2.53L62.47,190.65z"/>
				<path class="st22" d="M67.38,181.9c0-0.07,0.01-0.14,0.01-0.21l-0.02-0.01c-0.06-0.87-0.24-1.62-0.24-1.62l-2.93-0.25l0,0
					l-3.33-0.36l-0.73,6c0,0.42-0.06,0.79-0.03,1.14c0.03,0.39-0.02,0.93,0.41,1.34c0,0,0.49,0.36,1.14,0.92
					c3.4,3.69,5.22-1.73,5.64-5.68C67.37,182.77,67.4,182.33,67.38,181.9z"/>
				<path class="st6" d="M68.07,202.31c0,0,0.99-1.95,1.23-2.96c0.35-1.48,2.25-2.5,2.85-1.57c1,1.54,0.78,2.78,0.54,3.4
					c-0.38,0.99-1.44,2.15-1.84,2.6L68.07,202.31z"/>
				<g>
					<path class="st12" d="M57.61,211.13c-0.28,0.16-0.28,0.42,0,0.58l9.04,5.25c0.27,0.16,0.72,0.16,1,0l12.6-7.27
						c0.28-0.16,0.28-0.42,0.01-0.58l-9.04-5.25c-0.28-0.16-0.72-0.16-1,0L57.61,211.13z"/>
				</g>
				<path class="st12" d="M66.9,216.23l13.4-7.77c0.12-0.07,0.27,0.02,0.27,0.15l0,0.42c0,0.22,0.01,0.42-0.2,0.55l-0.14,0.08
					l-0.09-0.06l-0.57,0.33v0.12l-0.11,0.07l-0.1-0.08l-0.58,0.33l0,0.13l-0.1,0.06l-0.1-0.07L78,210.83v0.12l-0.11,0.06l-0.1-0.07
					l-0.58,0.33v0.13l-9.65,5.59c-0.14,0.08-0.38,0.11-0.55,0.09c-0.12,0-0.29-0.06-0.29-0.06l-0.39-0.21l-8.77-5.1
					c-0.22-0.13-0.17-0.33-0.17-0.45v-0.66L66.9,216.23z"/>
				<g>
					<path class="st32" d="M57.61,210.3c-0.28,0.16-0.28,0.42,0,0.58l9.04,5.25c0.27,0.16,0.72,0.16,1,0l12.6-7.27
						c0.28-0.16,0.28-0.42,0.01-0.58l-9.04-5.25c-0.28-0.16-0.72-0.16-1,0L57.61,210.3z"/>
				</g>
				<g>
					<path class="st13" d="M78.14,207.8l-4.46-2.58c-0.17-0.1-0.52-0.07-0.76,0.07l-11.13,6.46c-0.25,0.14-0.3,0.34-0.13,0.44
						l4.19,2.42c0.16,0.09,0.37,0.09,0.53,0L78.14,207.8z"/>
				</g>
				<g>
					<path class="st13" d="M63.73,207.52c-0.28,0.16-0.28,0.42-0.01,0.58l1.24,0.74c0.27,0.17,0.72,0.17,1,0.01l1.98-1.11
						c0.28-0.16,0.28-0.42,0.01-0.58l-1.24-0.74c-0.27-0.16-0.72-0.17-1-0.01L63.73,207.52z"/>
				</g>
				<g class="st28">
					<defs>
						<path id="SVGID_15_" class="st28" d="M68.12,208.98v-0.25c0,0.03-0.02,0.06-0.06,0.08l0,0.25
							C68.1,209.04,68.12,209.01,68.12,208.98z"/>
					</defs>
					<clipPath id="SVGID_16_">
						<use xlink:href="#SVGID_15_"  style="overflow:visible;"/>
					</clipPath>
				</g>
				<g class="st28">
					<defs>
						<path id="SVGID_17_" class="st28" d="M67.29,210.14c0-0.08,0-0.17,0-0.25c0,0.03-0.02,0.06-0.06,0.08l0,0.25
							C67.27,210.19,67.29,210.17,67.29,210.14z"/>
					</defs>
					<clipPath id="SVGID_18_">
						<use xlink:href="#SVGID_17_"  style="overflow:visible;"/>
					</clipPath>
				</g>
				<polygon class="st33" points="66.89,210.16 66.89,210.41 67.23,210.22 67.23,209.96 				"/>
				<g class="st28">
					<defs>
						<path id="SVGID_19_" class="st28" d="M66.62,210.16l0,0.25c0.07,0.04,0.19,0.04,0.27,0v-0.25
							C66.82,210.2,66.7,210.2,66.62,210.16z"/>
					</defs>
					<clipPath id="SVGID_20_">
						<use xlink:href="#SVGID_19_"  style="overflow:visible;"/>
					</clipPath>
				</g>
				<g class="st28">
					<defs>
						<path id="SVGID_21_" class="st28" d="M66.57,210.55l0-0.25c0,0.03-0.02,0.06-0.06,0.08v0.25
							C66.55,210.61,66.57,210.58,66.57,210.55z"/>
					</defs>
					<clipPath id="SVGID_22_">
						<use xlink:href="#SVGID_21_"  style="overflow:visible;"/>
					</clipPath>
				</g>
				<g class="st28">
					<defs>
						<path id="SVGID_23_" class="st28" d="M67.16,210.89v-0.25c0,0.03-0.02,0.06-0.06,0.08l0,0.25
							C67.14,210.94,67.16,210.92,67.16,210.89z"/>
					</defs>
					<clipPath id="SVGID_24_">
						<use xlink:href="#SVGID_23_"  style="overflow:visible;"/>
					</clipPath>
				</g>
				<g>
					<polygon class="st33" points="66.77,210.91 66.77,211.16 67.1,210.97 67.1,210.72 					"/>
				</g>
				<g class="st28">
					<defs>
						<path id="SVGID_25_" class="st28" d="M67,211.64l0-0.25c0,0.03-0.02,0.06-0.06,0.08v0.25C66.98,211.7,67,211.67,67,211.64z"/>
					</defs>
					<clipPath id="SVGID_26_">
						<use xlink:href="#SVGID_25_"  style="overflow:visible;"/>
					</clipPath>
				</g>
				<g>
					<polygon class="st33" points="66.61,211.67 66.61,211.92 66.94,211.72 66.94,211.47 					"/>
				</g>
				<g class="st28">
					<defs>
						<path id="SVGID_27_" class="st28" d="M66.85,212.39l0-0.25c0,0.03-0.02,0.06-0.06,0.08v0.25
							C66.83,212.44,66.85,212.41,66.85,212.39z"/>
					</defs>
					<clipPath id="SVGID_28_">
						<use xlink:href="#SVGID_27_"  style="overflow:visible;"/>
					</clipPath>
				</g>
				<path class="st34" d="M72.62,205.73c0-0.01,0-0.01,0.01-0.02c0.01-0.03,0.02-0.06,0.03-0.1l0,0c0,0,0,0,0,0
					c0.01-0.03,0.03-0.05,0.04-0.08c0-0.01,0.01-0.01,0.01-0.02c0.01-0.02,0.03-0.04,0.04-0.06c0,0,0.01-0.01,0.01-0.01
					c0,0,0,0,0.01-0.01c0.01-0.01,0.02-0.02,0.04-0.04c0.01-0.01,0.01-0.01,0.02-0.02c0.02-0.02,0.04-0.03,0.06-0.04l3.14-1.82
					c0.08-0.05,0.15-0.05,0.21-0.02l0.22,0.12c-0.05-0.03-0.13-0.03-0.21,0.02l-3.15,1.82c-0.02,0.01-0.04,0.03-0.06,0.04
					c-0.01,0.01-0.01,0.01-0.02,0.02c-0.01,0.01-0.03,0.02-0.04,0.04c-0.01,0.01-0.01,0.01-0.02,0.02
					c-0.02,0.02-0.03,0.04-0.04,0.06c-0.01,0.01-0.01,0.01-0.01,0.02c-0.02,0.02-0.03,0.05-0.04,0.08c0,0,0,0,0,0.01
					c-0.01,0.03-0.02,0.06-0.03,0.1c0,0.01,0,0.02-0.01,0.02c-0.01,0.03-0.01,0.06-0.01,0.1c0,0.09,0.03,0.15,0.08,0.19l-0.22-0.13
					c-0.05-0.03-0.08-0.1-0.08-0.19C72.61,205.8,72.61,205.77,72.62,205.73z"/>
				<g>
					<path class="st22" d="M62.73,208.41c0.56,0.19,1.17-0.44,1.34-0.95c0.06-0.18,1.13,0.07,1.61-0.06c0.5-0.14,0.4-0.64,0.3-0.75
						c-0.08-0.09-0.69-0.04-1.77-0.13c-1.4-0.11-2.07,0.11-2.23,0.62C61.8,207.65,62.18,208.23,62.73,208.41z"/>
					<path class="st22" d="M61.15,208.1c0.29-1.64,1.77-1.48,1.77-1.48s2.22,0.73,2.87,1.15c0.43,0.28,1.22,1.17,1.36,1.55
						c0.22,0.6-0.29,0.62-0.29,0.62c-0.86,0.6-1.63,0.28-1.63,0.28l-1.36-0.62C61.54,209.09,61.03,208.79,61.15,208.1z"/>
					<path class="st36" d="M61.6,207.77c-0.32,0.77-0.03,1.13-0.06,1.13c-2.33-0.24-8.28-0.52-9.81-1.2
						c-1.53-0.68-1.17-2.43-1.17-2.43s1.34-8.38,2.22-11.62c0.7-2.56,3.32-1.69,3.63,1.09c0.18,1.59-0.96,7-1.27,8.79
						c-0.18,1.03,0.53,1.12,0.53,1.12l6.81,2.01C62.49,206.64,61.94,206.97,61.6,207.77z"/>
				</g>
				<g>
					<path class="st22" d="M69.64,202.72c-0.23,0.54-0.19,0.6-0.68,0.39c-0.17-0.07-0.84,0-0.73,0.6c0.09,0.51-0.49,1.09-0.69,0.33
						c-0.03-0.11-0.22-0.84-0.02-1.15c0.93-1.51,1.79-1.67,2.28-1.46C70.3,201.64,69.87,202.18,69.64,202.72z"/>
					<path class="st22" d="M70.81,202.12c0,0-0.83-0.75-1.23-0.75c-0.91,0-1.26,0.75-1.26,0.75l-0.12,0.27l-0.39,1.9
						c0,0-0.44,1.35-0.38,1.92c0.03,0.21,0.24,0.22,0.44,0.07c0.17-0.13,0.42-1.17,0.62-1.13c1.08,0.2,1.86-0.1,1.86-0.1l0.85-1.48
						C71.48,202.97,71.32,202.84,70.81,202.12z"/>
				</g>
				<path class="st12" d="M66.52,206.32c0-0.01,0-0.01,0-0.02c0.01-0.03,0.02-0.06,0.03-0.08h0c0,0,0-0.01,0-0.01
					c0.01-0.02,0.02-0.04,0.03-0.06c0-0.01,0.01-0.01,0.01-0.02c0.01-0.02,0.02-0.03,0.04-0.05c0-0.01,0.01-0.01,0.01-0.01
					c0,0,0,0,0.01-0.01c0.01-0.01,0.02-0.02,0.03-0.03c0.01-0.01,0.01-0.01,0.02-0.02c0.02-0.02,0.04-0.03,0.05-0.04l12.97-7.49
					c0.07-0.04,0.13-0.04,0.18-0.02l0.54,0.31c-0.04-0.03-0.11-0.02-0.18,0.02l-12.97,7.49c-0.02,0.01-0.04,0.02-0.05,0.04
					c-0.01,0-0.01,0.01-0.02,0.02c-0.01,0.01-0.02,0.02-0.03,0.03c-0.01,0.01-0.01,0.01-0.02,0.02c-0.01,0.02-0.02,0.03-0.04,0.05
					c0,0.01-0.01,0.01-0.01,0.02c-0.01,0.02-0.02,0.04-0.03,0.06c0,0,0,0.01,0,0.01c-0.01,0.03-0.02,0.06-0.03,0.08
					c0,0.01,0,0.01-0.01,0.02c-0.01,0.03-0.01,0.05-0.01,0.08l0.01,9.46c-0.13,0.01-0.21-0.05-0.27-0.08
					c-0.06-0.03-0.19-0.11-0.19-0.11c-0.04-0.03-0.07-0.07-0.07-0.12l-0.03-9.47C66.51,206.38,66.52,206.35,66.52,206.32z"/>
				<g>
					<path class="st32" d="M67.31,206.28c-0.14,0.08-0.25,0.28-0.25,0.43l0.01,9.46c0,0,0.12,0.01,0.27-0.06
						c0.19-0.09,11.04-6.28,12.94-7.36c0.17-0.1,0.28-0.27,0.28-0.46v-9.37c0-0.16-0.11-0.22-0.25-0.14L67.31,206.28z"/>
				</g>
			</g>
			<path class="st12" d="M59.45,187.58c0,0-0.29-0.71-0.18-1.56s-0.11-2.95-0.27-4.75c-0.16-1.8,0.81-3.18,2.47-2.96
				c0,0,0.64-1.06,3.41-0.85c2.77,0.21,3.1,1.58,5.27,1.59c0,0,0,2.76-2.88,3.72c0,0-1,0.38-2.45-0.47
				c-1.45-0.85-1.96-0.85-1.96-0.85s0.08,2.11-0.97,3.85c0,0-0.27-0.13-0.39-0.47c0,0,0.65-1.33,0.23-1.98
				c-0.46-0.7-2.3,0.21-1.34,2.44C60.4,185.29,59.73,186.54,59.45,187.58z"/>
		</g>
		<g>
			<g>
				<path class="st12" d="M233.56,148.15c0,0-0.55-2.28-1.89-4.98c-0.65-1.38-1.26-1.27-1.26-1.27l-0.49-0.53
					c-1.23,0.07-1.95,0.89-1.95,0.89l0.35,0.92c0,0-0.33,0.5,0.06,1.49l0.64,1.65c0,0-3.09-1.68-4.56-2.57c-2.09-1.26-4-0.2-4-0.2
					l2.93,5.49c0,0,3.8,1.23,6.9,2.09C234.62,152.34,233.56,148.15,233.56,148.15z"/>
			</g>
			<g>
				<polygon class="st22" points="228.52,142.94 227.7,141.29 229.66,140.48 230.09,141.38 				"/>
				<path class="st22" d="M229.23,141.37l0.45-0.41l-0.15-1.5l-0.78-0.94l-0.04-0.73c0,0-0.42-1.46-1.02-0.92
					c-0.21,0.19-0.39,0.49-0.39,0.49c-0.26,0.26-0.88,0.82-1.16,1.12c-0.64,0.7,0.22,1.61,0.22,1.61l0.76,0.95
					C227.54,141.57,228.32,141.93,229.23,141.37z"/>
				<path class="st22" d="M228.67,140.47c-0.39-0.47-0.11-1.29,0.26-1.63c0.13-0.12-1.18-1.06-0.62-1.51c0,0,0.91,0.46,1.14,0.55
					c0.05,0.02,0.58,0.26,0.6,0.91c0.06,1.45,0.14,1.68-0.23,2.03C229.46,141.16,229.07,140.94,228.67,140.47z"/>
			</g>
			<path class="st13" d="M226.71,162.84c0,0-1.05-1.17-3.34-1.42c-2.3-0.25-2.71-0.39-2.71-0.39l1.74-12.05
				c0,0,4.14,9.61,4.34,11.11C226.94,161.6,226.71,162.84,226.71,162.84z"/>
			<g>
				<path class="st13" d="M229.86,190.57c0.01-0.05,0-0.1-0.06-0.17c-0.61-1.34-3.84-2.72-3.84-2.72l-0.11,0
					c-0.07-0.16-0.14-0.31-0.23-0.48c-1.22-0.02-2.44-0.03-3.66-0.03c-0.03,0.11-0.07,0.27-0.1,0.43l-0.02,0
					c0,0-0.61,1.67-0.45,2.07c0.11,0.27,0.82,0.55,1.26,0.69c0.05,0.02,0.1,0.03,0.15,0.05c0.13,0.04,0.21,0.06,0.21,0.06l0,0
					l0.15-0.11l0.2-0.15l0.22,0.47c0,0,6.12,1.7,6.32,0.23C229.91,190.8,229.89,190.68,229.86,190.57z"/>
				<path class="st37" d="M221.77,187.92c0.01,0.09,0.03,0.17,0.06,0.24c1.38,0.33,3.05,0.19,4.64-0.18
					c0.02-0.02,0.03-0.04,0.05-0.06c0.03-0.17,0.06-0.37,0.08-0.62c0.17-2.06,0.83-8.62,0.1-12.15c-0.85-4.14-2.83-9.19-4.59-13.22
					c-2.3,0.33-4.6,0.78-6.89,1.16c2.21,4.6,4.91,8.65,6.16,13.7C222.24,180.32,221.43,184.34,221.77,187.92z"/>
			</g>
			<g>
				<path class="st13" d="M214.6,193.01c-0.27-0.67-0.6-1.33-0.82-1.75c-0.04-0.29-0.06-0.6-0.04-0.87
					c-0.98-0.5-2.78-1.57-3.79-0.94c-0.65,0.41-0.78,1.14-0.83,1.87c-0.02,0.38-0.03,0.75-0.07,1.08c0,0.02,0,0.04-0.01,0.05
					c0.09,0.11,0.14,0.15,0.19,0.17c0.16,0.16,0.32,0.26,0.32,0.26l0,0l0.34-0.15l-0.06,0.47c0,0,2.17,1.94,3.85,2.22
					c0.41,0.07,0.79,0.04,1.11-0.15c0.01,0,0.01-0.01,0.02-0.02C215.23,194.97,214.98,193.98,214.6,193.01z"/>
				<path class="st37" d="M219.61,161.67c-1.05,5.41-1.1,10.82-2.07,16.29c-0.76,4.29-2.42,8.72-3.64,12.84
					c-0.18,0.6-0.62,0.57-0.85,0.62c-1.35,0.28-2.52-0.01-3.31-0.68c-0.48-0.4-0.37-0.68-0.33-0.94c0.59-3.71,2.24-9.24,2.48-12.46
					c0.46-6.22-0.12-10.65,0.51-16.45C214.79,161.21,217.2,161.41,219.61,161.67z"/>
			</g>
			<path class="st4" d="M214.85,146.64c0,0,0.87-3.18,1.84-3.54c0.97-0.36,4.17,0.69,4.17,0.69s1.72,4.11,1.73,4.35
				c0.01,0.25,0.86,1.03,0.4,12.16c-0.06,1.36-0.38,2.39-0.7,2.68c-3.37,3.11-10.03,0.16-10.03,0.16L214.85,146.64z"/>
			<g>
				<path class="st12" d="M216.9,143.15c0.13-0.03,0.24-0.05,0.36-0.07c-0.7-0.13-3.26-0.6-3.67-0.85c-0.74-0.44-1.92-2.1-3.12-5.74
					c-0.63-1.9-0.44-6.37-0.33-9.16c0.04-1.06-0.4-1.23-0.4-1.23c-0.04-0.59-0.14-1.22-0.14-1.22c-1.63-0.08-2.32-0.51-2.32-0.51
					l-0.31,1.25c0,0-0.45,0.09-0.56,0.88c-0.41,3.36-0.56,9.68-0.01,12.55c0.47,2.42,4.04,11.52,4.04,11.52s-0.3,1.8-0.65,3.55
					c0,0,0,0.01,0,0.01c-0.28,1.23-0.57,2.32-0.84,3.3c-1.02,3.6-1.9,5.52-1.6,6.17l-0.05,0.79c0,0,0.97,0.93,3.52,1.85
					c0.3,0.11,0.6,0.21,0.94,0.32c0,0,0.22-0.25,0.52-0.69c0.32-0.47,0.73-1.15,1.06-1.98c0.64-1.61,2.1-7.08,2.52-9.92
					c0.01-0.05,0.02-0.09,0.03-0.14c0.33-3.12,0.07-5.43-0.2-6.5c-1.12-0.56-1.33-1.54-0.93-2.7
					C215.16,143.46,216.9,143.15,216.9,143.15z"/>
				<path class="st13" d="M217.44,143.11c0,0-0.07-0.01-0.18-0.03c-0.12,0.02-0.23,0.04-0.36,0.07c0,0-1.74,0.31-2.14,1.47
					c-0.4,1.16-0.19,2.14,0.93,2.7c-0.06-0.25-0.12-0.44-0.18-0.55C214.72,145.12,217.44,143.11,217.44,143.11z"/>
				<g>
					<path class="st12" d="M228.18,163.17c0,0,0.07-2.13-0.26-3.99c-0.54-3-1.34-7.2-2-9.33c-1.09-3.52-1.84-6.57-3.2-6.72
						c-0.25-0.03-1.29-0.03-2.28-0.02c0.97,0.39,1.2,1.15,1.35,1.5c0.25,0.61-0.32,1.67-0.32,1.67l0,0
						c0.29,0.72,0.55,1.44,0.78,2.01c2.77,6.88,3.69,16.73,3.69,16.73s1.51-0.43,2.28-1.15
						C228.26,163.46,228.18,163.17,228.18,163.17z"/>
				</g>
				<path class="st13" d="M221.78,144.61c-0.14-0.36-0.37-1.11-1.35-1.5c-0.91,0.02-1.78,0.05-2,0.11c0.22,0.25,1.03-0.18,1.74,0.64
					c0.46,0.52,0.89,1.47,1.28,2.43l0,0C221.46,146.29,222.03,145.23,221.78,144.61z"/>
			</g>
			<path class="st22" d="M219.51,145.95c-0.85,0.77-2.21,0.31-3.33-0.75l-0.77-8.04l4.27,3.28l0.35,3.62
				C220.04,144.06,220.35,145.19,219.51,145.95z"/>
			<path class="st22" d="M221.84,138.8c-0.17-1.64-0.41-2.91-0.55-3.62c-0.07-0.79-0.12-1.36-0.12-1.36l-3.21,0.33l0,0l-3.12,0.64
				l0.11,5c0.12,0.38,1.14,1.37,1.27,1.69c0.14,0.35,0.37,0.65,0.88,0.89c0,0,0.47,0.12,1.02,0.24c0,0,0,0,0,0
				C222.01,144.08,222.12,141.4,221.84,138.8z"/>
			<g>
				<path class="st12" d="M230.4,141.91l-0.49-0.53c-1.23,0.07-1.95,0.89-1.95,0.89l0.35,0.92c0,0-0.25,0.38-0.06,1.14l3.27-1.42
					C230.92,141.83,230.4,141.91,230.4,141.91z"/>
			</g>
			<path class="st12" d="M215.92,141.96c0,0-1.84-2.98-2.37-6.03c-0.53-3.06,1.69-3.65,1.69-3.65s1.12-1.03,3.81-1.04
				c2.4,0,3.58,0.71,3.22,2.27c-0.36,1.56-1.21,1.81-1.21,1.81s-1.9,0.72-4.15,0.51c0,0-0.4,1.86,0.34,3.67l-0.52,0.12
				c0,0-0.34-1.84-0.99-1.65c-0.64,0.19-1.01,1.79,0.7,2.35C216.45,140.31,216.02,141.11,215.92,141.96z"/>
			<g>
				<g>
					<path class="st21" d="M239.28,149.73L239.28,149.73l4.7-5.44l-40.74-35.16c-0.84,0.61-1.88,1.49-2.75,2.66
						c-0.91,1.22-1.33,2.34-1.54,3.16C212.4,126.54,225.84,138.14,239.28,149.73z"/>
					<path class="st6" d="M197.82,104.45c-3.35-2.58-5.08-1.9-6.37-0.32c-1.6,1.95-0.32,4.06,1.08,5.27l1.77,1.53l4.29-5.82
						L197.82,104.45z"/>
					<path class="st11" d="M197.64,113.81l1.32,1.14c0.2-0.82,0.62-1.94,1.54-3.16c0.87-1.17,1.91-2.05,2.75-2.66
						c-0.44-0.38-0.88-0.76-1.32-1.14c-0.89,0.68-1.98,1.65-2.87,2.92C198.27,112.01,197.86,113.02,197.64,113.81z"/>
					<path class="st12" d="M198.58,105.11c-0.84,0.57-1.95,1.45-2.86,2.66c-0.93,1.24-1.28,2.37-1.43,3.16
						c1.11,0.96,2.22,1.92,3.34,2.88c0.24-0.83,0.68-1.93,1.57-3.12c0.86-1.16,1.87-2.06,2.71-2.69
						C200.81,107.03,199.7,106.07,198.58,105.11z"/>
				</g>
				<g>
					<path class="st36" d="M200.49,111.79c-0.39,0.52-0.67,1.01-0.9,1.47l40.79,35.19l1.93-2.23l-41.01-35.38
						C201.02,111.13,200.75,111.45,200.49,111.79z"/>
					<path class="st21" d="M242.31,146.22l1.67-1.93l-40.74-35.16c-0.59,0.43-1.28,1-1.94,1.71L242.31,146.22z"/>
				</g>
				<path class="st4" d="M248.52,152.59l-4.54-8.3c-0.76,0.26-2.24,0.85-3.36,1.98c-1.46,1.47-1.4,2.93-1.34,3.46
					C239.28,149.73,246.21,152.18,248.52,152.59z"/>
				<path class="st13" d="M247.66,151.03c0,0-1.03-0.07-1.02,1.1l1.87,0.46L247.66,151.03z"/>
			</g>
			<g>
				<path class="st22" d="M211.21,122.41c0,0,0.78-0.99-0.05-1.28c-0.27-0.09-0.57,0-0.57,0c-0.33-0.16-0.71-0.16-1.13-0.23
					c-0.85-0.14-1.11,0.01-1.34,0.26c-0.15,0.17-0.48,0.75-0.48,0.75c-0.26,0.45-0.57,1.67-0.39,2.56c0.03,0.01,1.07,0.37,2.35,0.39
					l0,0c0.26-0.11,0.63-0.15,1.2-0.63c0.43-0.36,0.42-0.85,0.42-0.91c0.01-0.31,0-0.64-0.01-0.92
					C211.2,122.42,211.21,122.41,211.21,122.41z"/>
			</g>
		</g>
	</g>
	<g>
		<g>
			<g>
				<path class="st2" d="M90.17,373.56c-1.55,0-3.11-0.4-4.49-1.21c-1.6-0.93-2.55-2.59-2.55-4.45s0.96-3.51,2.55-4.45L104,352.78
					c0.25-0.15,0.57-0.06,0.71,0.19c0.14,0.25,0.06,0.57-0.19,0.71L86.2,364.36c-1.28,0.74-2.04,2.07-2.04,3.55
					c0,1.48,0.76,2.8,2.04,3.55c2.45,1.43,5.49,1.43,7.94,0l24.45-14.25c0.97-0.57,1.55-1.57,1.55-2.7s-0.58-2.13-1.55-2.7
					c-1.89-1.1-4.22-1.09-6.11,0.01l-23.67,13.92c-0.41,0.24-0.66,0.67-0.66,1.15c0,0.48,0.24,0.91,0.65,1.16
					c1.09,0.66,2.46,0.66,3.56,0.02l16.26-9.56c0.25-0.15,0.57-0.06,0.71,0.19c0.15,0.25,0.06,0.57-0.19,0.71l-16.26,9.56
					c-1.43,0.84-3.2,0.83-4.63-0.02c-0.73-0.44-1.16-1.2-1.16-2.05s0.44-1.61,1.17-2.04l23.67-13.92c2.2-1.3,4.95-1.3,7.16-0.01
					c1.29,0.75,2.07,2.1,2.07,3.6c0,1.5-0.77,2.84-2.07,3.6l-24.45,14.25C93.28,373.16,91.72,373.56,90.17,373.56z"/>
			</g>
			<g>
				<path class="st2" d="M341.11,352.69c1.43,0,2.86-0.37,4.14-1.12c1.47-0.86,2.35-2.39,2.35-4.09c0-1.7-0.88-3.23-2.35-4.09
					l-16.87-9.83c-0.23-0.13-0.52-0.06-0.66,0.17c-0.13,0.23-0.06,0.52,0.17,0.66l16.87,9.83c1.17,0.69,1.88,1.91,1.88,3.26
					s-0.7,2.58-1.88,3.26c-2.25,1.31-5.05,1.31-7.31,0l-22.51-13.12c-0.89-0.52-1.43-1.45-1.43-2.48c0-1.03,0.53-1.96,1.43-2.48
					c1.74-1.01,3.89-1.01,5.62,0.01l21.79,12.81c0.38,0.22,0.61,0.62,0.61,1.06c0,0.44-0.22,0.84-0.6,1.06
					c-1.01,0.61-2.27,0.61-3.28,0.02l-14.97-8.8c-0.23-0.13-0.52-0.06-0.66,0.17c-0.13,0.23-0.06,0.52,0.17,0.66l14.97,8.8
					c1.32,0.77,2.95,0.77,4.26-0.02c0.67-0.4,1.07-1.11,1.06-1.89c0-0.78-0.41-1.48-1.08-1.88l-21.79-12.81
					c-2.03-1.19-4.55-1.2-6.59-0.01c-1.19,0.69-1.9,1.93-1.9,3.31s0.71,2.62,1.9,3.31l22.51,13.12
					C338.25,352.31,339.68,352.69,341.11,352.69z"/>
			</g>
			<g>
				<path class="st6" d="M162.89,285.57c1.35,0,2.7-0.35,3.91-1.05c1.39-0.81,2.23-2.26,2.23-3.87c0-1.61-0.83-3.06-2.23-3.87
					l-15.88-9.26c-0.23-0.13-0.52-0.05-0.65,0.17c-0.13,0.23-0.06,0.52,0.17,0.65l15.88,9.26c1.1,0.64,1.75,1.78,1.75,3.05
					s-0.66,2.41-1.75,3.05c-2.11,1.23-4.74,1.23-6.86,0l-21.19-12.35c-0.83-0.49-1.33-1.35-1.33-2.32c0-0.96,0.5-1.83,1.33-2.32
					c1.63-0.95,3.65-0.94,5.27,0.01l20.51,12.06c0.35,0.21,0.56,0.57,0.56,0.98c0,0.41-0.2,0.77-0.55,0.98
					c-0.94,0.57-2.12,0.57-3.06,0.01l-14.09-8.28c-0.23-0.13-0.52-0.06-0.65,0.17c-0.13,0.23-0.06,0.52,0.17,0.65l14.09,8.28
					c1.25,0.73,2.79,0.73,4.03-0.02c0.64-0.38,1.02-1.06,1.01-1.8s-0.39-1.41-1.03-1.79l-20.51-12.06c-1.92-1.13-4.3-1.13-6.23-0.01
					c-1.13,0.66-1.8,1.83-1.8,3.14c0,1.31,0.67,2.48,1.8,3.14l21.19,12.35C160.19,285.22,161.54,285.57,162.89,285.57z"/>
			</g>
			<g>
				<path class="st19" d="M357.75,295.7c1.32,0,2.64-0.34,3.82-1.03c1.36-0.79,2.17-2.21,2.17-3.78c0-1.58-0.81-2.99-2.17-3.78
					l-15.52-9.04c-0.22-0.13-0.51-0.05-0.63,0.17c-0.13,0.22-0.05,0.51,0.17,0.63l15.52,9.04c1.07,0.63,1.71,1.74,1.71,2.98
					s-0.64,2.36-1.71,2.98c-2.07,1.2-4.63,1.21-6.7,0l-20.71-12.07c-0.81-0.47-1.3-1.32-1.3-2.26c0-0.94,0.49-1.79,1.3-2.26
					c1.59-0.93,3.56-0.92,5.15,0.01l20.04,11.79c0.34,0.2,0.55,0.56,0.55,0.95c0,0.4-0.2,0.75-0.54,0.96
					c-0.92,0.55-2.07,0.56-2.99,0.01l-13.77-8.09c-0.22-0.13-0.5-0.06-0.63,0.16c-0.13,0.22-0.06,0.5,0.16,0.63l13.77,8.09
					c1.22,0.72,2.73,0.71,3.94-0.02c0.62-0.37,0.99-1.03,0.99-1.76c0-0.73-0.38-1.38-1.01-1.75l-20.04-11.79
					c-1.87-1.1-4.21-1.11-6.08-0.01c-1.1,0.64-1.76,1.79-1.76,3.07c0,1.28,0.66,2.42,1.76,3.06l20.71,12.07
					C355.11,295.36,356.43,295.7,357.75,295.7z"/>
			</g>
			<g>
				<path class="st9" d="M364.31,387.14c-1.55,0-3.11-0.4-4.49-1.21l-24.45-14.25c-1.29-0.75-2.07-2.1-2.06-3.6
					c0-1.5,0.77-2.84,2.06-3.59c2.21-1.29,4.96-1.28,7.16,0.01l23.67,13.92c0.73,0.43,1.17,1.19,1.17,2.04
					c0,0.85-0.43,1.62-1.15,2.05c-1.43,0.85-3.2,0.86-4.63,0.02l-16.26-9.56c-0.25-0.15-0.33-0.46-0.19-0.71
					c0.15-0.25,0.47-0.33,0.71-0.19l16.26,9.56c1.1,0.65,2.47,0.64,3.56-0.02c0.41-0.25,0.65-0.68,0.65-1.16
					c0-0.48-0.25-0.91-0.66-1.15l-23.67-13.92c-1.88-1.11-4.22-1.11-6.11-0.01c-0.97,0.57-1.55,1.57-1.55,2.7
					c0,1.12,0.58,2.13,1.55,2.7l24.45,14.25c2.45,1.43,5.49,1.43,7.94,0c1.28-0.74,2.04-2.07,2.04-3.55c0-1.48-0.76-2.8-2.04-3.55
					l-18.33-10.68c-0.25-0.14-0.33-0.46-0.19-0.71c0.14-0.25,0.46-0.33,0.71-0.19l18.33,10.68c1.6,0.93,2.55,2.59,2.55,4.45
					s-0.95,3.51-2.55,4.45C367.42,386.74,365.86,387.14,364.31,387.14z"/>
			</g>
		</g>
		<g>
			<g>
				<g>
					<polygon class="st38" points="131.29,330.16 131.29,339.97 146.46,348.81 146.46,327.14 					"/>
					<polygon class="st4" points="164.78,323.49 162.18,321.97 156.87,325.06 146.46,327.14 146.46,348.81 177.34,330.81 
						177.34,320.99 					"/>
				</g>
				<polygon class="st4" points="131.29,330.16 162.18,312.15 177.34,320.99 146.46,338.99 				"/>
				<g>
					<polygon class="st3" points="177.34,320.99 164.78,323.49 162.18,321.97 158.64,324.04 158.64,341.71 177.34,330.81 					"/>
				</g>
				<g>
					<polygon class="st5" points="162.18,312.15 143.47,323.06 158.63,331.89 177.34,320.99 					"/>
				</g>
				<g>
					<polygon class="st4" points="152.51,319.34 147.43,322.3 151.55,324.7 156.63,321.74 					"/>
				</g>
			</g>
			<g>
				<g>
					<polygon class="st38" points="280.02,337.17 280.02,346.99 264.86,355.83 264.86,334.15 					"/>
					<polygon class="st4" points="246.53,330.51 249.14,328.99 254.44,332.08 264.86,334.15 264.86,355.83 233.97,337.83 
						233.97,328.01 					"/>
				</g>
				<polygon class="st4" points="280.02,337.17 249.14,319.17 233.97,328.01 264.86,346.01 				"/>
				<g>
					<polygon class="st3" points="233.97,328.01 246.53,330.51 249.14,328.99 252.68,331.05 252.68,348.73 233.97,337.83 					"/>
				</g>
				<g>
					<polygon class="st5" points="249.14,319.17 267.84,330.07 252.68,338.91 233.97,328.01 					"/>
				</g>
				<g>
					<polygon class="st4" points="258.81,326.36 263.88,329.32 259.77,331.72 254.69,328.76 					"/>
				</g>
			</g>
			<g>
				<g>
					<path class="st21" d="M82.66,342.91L82.66,342.91l-3.96-6.79l50.85-29.57c0.78,0.83,1.71,1.98,2.42,3.41
						c0.74,1.5,0.96,2.78,1.01,3.7C116.21,323.42,99.43,333.17,82.66,342.91z"/>
					<path class="st6" d="M136.32,302.62c4.12-2.1,5.84-1.02,6.91,0.94c1.33,2.42-0.47,4.42-2.22,5.44l-2.21,1.29l-3.43-7.11
						L136.32,302.62z"/>
					<path class="st11" d="M134.63,312.71l-1.65,0.96c-0.05-0.92-0.28-2.2-1.01-3.7c-0.7-1.43-1.64-2.59-2.42-3.41
						c0.55-0.32,1.1-0.64,1.65-0.96c0.82,0.91,1.79,2.17,2.5,3.71C134.31,310.65,134.55,311.81,134.63,312.71z"/>
					<path class="st12" d="M135.36,303.17c0.79,0.78,1.81,1.95,2.53,3.43c0.74,1.52,0.9,2.81,0.9,3.68
						c-1.39,0.81-2.78,1.61-4.17,2.42c-0.09-0.94-0.35-2.21-1.06-3.67c-0.69-1.42-1.6-2.59-2.37-3.44
						C132.59,304.79,133.98,303.98,135.36,303.17z"/>
				</g>
				<g>
					<path class="st36" d="M131.97,309.97c0.31,0.63,0.52,1.22,0.67,1.76l-50.91,29.59l-1.62-2.79l51.19-29.75
						C131.53,309.15,131.76,309.54,131.97,309.97z"/>
					<path class="st21" d="M80.1,338.53l-1.4-2.41l50.85-29.57c0.55,0.58,1.17,1.34,1.74,2.23L80.1,338.53z"/>
				</g>
				<path class="st4" d="M72.15,344.13l6.55-8c0.77,0.43,2.24,1.37,3.21,2.8c1.27,1.87,0.92,3.43,0.74,3.99
					C82.66,342.91,74.72,344.15,72.15,344.13z"/>
				<path class="st13" d="M73.39,342.62c0,0,1.12,0.13,0.87,1.39l-2.1,0.12L73.39,342.62z"/>
			</g>
		</g>
	</g>
	<g>
		<g>
			<g>
				<path class="st13" d="M225.41,377.42c-7.32-3.5-17.86-5.7-29.57-5.7s-22.25,2.2-29.57,5.7h-10.45v29.4
					c0,9.65,13.94,21.29,40.03,21.29c27.83,0,40.03-11.64,40.03-21.29v-29.4H225.41z"/>
				<ellipse class="st11" cx="195.84" cy="377.42" rx="40.03" ry="17.48"/>
			</g>
		</g>
		<polygon class="st12" points="264.49,373.38 262.24,373.38 195.84,336.63 129.43,373.38 127.19,373.38 127.19,376.64 
			195.84,416.65 264.49,376.64 264.48,376.64 264.49,376.64 		"/>
		<polygon class="st11" points="195.84,333.37 127.19,373.38 195.84,413.39 264.49,373.38 		"/>
		<ellipse class="st9" cx="195.84" cy="373.02" rx="4.93" ry="2.31"/>
		<g>
			<polygon class="st9" points="231.54,414.41 229.21,414.41 229.21,393.81 195.28,374.02 196.46,372.01 231.54,392.48 			"/>
		</g>
		<path class="st9" d="M232.97,420.65h-5.19v-7.36c0-1.43,1.16-2.59,2.59-2.59l0,0c1.43,0,2.59,1.16,2.59,2.59V420.65z"/>
		<rect x="227.78" y="418.37" class="st9" width="0.39" height="5.19"/>
		<rect x="228.47" y="418.37" class="st9" width="0.39" height="5.19"/>
		<rect x="229.15" y="418.37" class="st9" width="0.39" height="5.19"/>
		<rect x="229.84" y="418.37" class="st9" width="0.39" height="5.19"/>
		<rect x="230.53" y="418.37" class="st9" width="0.39" height="5.19"/>
		<rect x="231.21" y="418.37" class="st9" width="0.39" height="5.19"/>
		<rect x="231.9" y="418.37" class="st9" width="0.39" height="5.19"/>
		<rect x="232.58" y="418.37" class="st9" width="0.39" height="5.19"/>
	</g>
	<g>
		<path class="st13" d="M302.87,369.82c-13.01,0-23.56,3.63-23.56,8.12l0.05,0.52c0.78,4.24,11,7.6,23.51,7.6s22.72-3.36,23.51-7.6
			l0.05-0.52C326.43,373.45,315.88,369.82,302.87,369.82z"/>
		<g>
			
				<rect x="287.9" y="349.43" transform="matrix(0.9932 0.1163 -0.1163 0.9932 45.8806 -31.2989)" class="st9" width="6.43" height="56.08"/>
			
				<rect x="289.9" y="349.43" transform="matrix(0.9932 0.1163 -0.1163 0.9932 45.8806 -31.2989)" class="st2" width="2.44" height="56.08"/>
			
				<ellipse transform="matrix(0.1163 -0.9932 0.9932 0.1163 -87.107 601.3375)" class="st4" cx="294.38" cy="349.62" rx="1.32" ry="3.21"/>
			
				<ellipse transform="matrix(0.1163 -0.9932 0.9932 0.1163 -87.107 601.3375)" class="st9" cx="294.38" cy="349.62" rx="0.43" ry="1.05"/>
		</g>
		<g>
			
				<rect x="316.94" y="355.05" transform="matrix(0.9843 0.1765 -0.1765 0.9843 72.6323 -50.4875)" class="st19" width="6.43" height="56.08"/>
			
				<rect x="318.93" y="355.05" transform="matrix(0.9843 0.1765 -0.1765 0.9843 72.6323 -50.4875)" class="st12" width="2.44" height="56.08"/>
			
				<ellipse transform="matrix(0.1765 -0.9843 0.9843 0.1765 -82.1816 612.7505)" class="st4" cx="325.1" cy="355.49" rx="1.32" ry="3.21"/>
			
				<ellipse transform="matrix(0.1765 -0.9843 0.9843 0.1765 -82.1816 612.7505)" class="st19" cx="325.1" cy="355.49" rx="0.43" ry="1.05"/>
		</g>
		<g>
			
				<rect x="305.74" y="361.33" transform="matrix(0.9952 -0.098 0.098 0.9952 -36.6851 32.1657)" class="st2" width="6.43" height="56.08"/>
			
				<rect x="307.74" y="361.33" transform="matrix(0.9952 -0.098 0.098 0.9952 -36.6851 32.1657)" class="st39" width="2.44" height="56.08"/>
			
				<ellipse transform="matrix(0.9952 -0.098 0.098 0.9952 -33.9626 31.7617)" class="st4" cx="306.21" cy="361.46" rx="3.21" ry="1.32"/>
			
				<ellipse transform="matrix(0.9952 -0.098 0.098 0.9952 -33.9626 31.7617)" class="st2" cx="306.21" cy="361.46" rx="1.05" ry="0.43"/>
		</g>
		<g>
			
				<rect x="311.11" y="340.59" transform="matrix(0.9974 0.0726 -0.0726 0.9974 27.6109 -21.8614)" class="st6" width="6.43" height="56.08"/>
			
				<rect x="313.11" y="340.59" transform="matrix(0.9974 0.0726 -0.0726 0.9974 27.6109 -21.8614)" class="st30" width="2.44" height="56.08"/>
			
				<ellipse transform="matrix(0.0726 -0.9974 0.9974 0.0726 -46.382 631.4442)" class="st4" cx="316.37" cy="340.66" rx="1.32" ry="3.21"/>
			
				<ellipse transform="matrix(0.0726 -0.9974 0.9974 0.0726 -46.382 631.4442)" class="st6" cx="316.37" cy="340.66" rx="0.43" ry="1.05"/>
		</g>
		<g>
			<g>
				<path class="st21" d="M275.2,352.51L275.2,352.51l6.3-2.16l16.1,47.17c-0.82,0.51-1.93,1.09-3.24,1.44
					c-1.37,0.36-2.47,0.34-3.24,0.23C285.81,383.62,280.51,368.06,275.2,352.51z"/>
				<path class="st6" d="M299.75,403.8c1.06,3.77-0.13,5.02-1.93,5.59c-2.23,0.7-3.6-1.13-4.15-2.75l-0.7-2.05l6.48-1.67
					L299.75,403.8z"/>
				<path class="st11" d="M291.64,400.71l-0.52-1.53c0.78,0.11,1.88,0.13,3.24-0.23c1.3-0.35,2.42-0.93,3.24-1.44
					c0.17,0.51,0.35,1.02,0.52,1.53c-0.89,0.53-2.1,1.13-3.5,1.46C293.41,400.79,292.4,400.79,291.64,400.71z"/>
				<path class="st12" d="M299.44,402.91c-0.78,0.53-1.92,1.18-3.27,1.53c-1.39,0.36-2.48,0.28-3.21,0.14
					c-0.44-1.29-0.88-2.58-1.32-3.86c0.8,0.09,1.89,0.08,3.23-0.27c1.3-0.34,2.41-0.9,3.25-1.4
					C298.56,400.33,299,401.62,299.44,402.91z"/>
			</g>
			<g>
				<path class="st36" d="M294.37,398.96c-0.58,0.15-1.1,0.23-1.58,0.26L276.68,352l2.58-0.88l16.2,47.48
					C295.11,398.73,294.75,398.85,294.37,398.96z"/>
				<path class="st21" d="M279.27,351.11l2.23-0.76l16.1,47.17c-0.57,0.36-1.31,0.75-2.14,1.08L279.27,351.11z"/>
			</g>
			<path class="st4" d="M275.94,343.58l5.56,6.77c-0.49,0.57-1.51,1.63-2.86,2.2c-1.77,0.75-3,0.19-3.44-0.05
				C275.2,352.51,275.5,345.7,275.94,343.58z"/>
			<path class="st13" d="M276.99,344.85c0,0-0.29,0.91-1.3,0.49l0.25-1.77L276.99,344.85z"/>
		</g>
		<path class="st11" d="M302.87,386.05c-12.5,0-22.72-3.36-23.51-7.6l4.54,44.08c0,3.61,8.49,6.54,18.97,6.54
			c10.48,0,18.97-2.93,18.97-6.54l4.54-44.08C325.6,382.69,315.37,386.05,302.87,386.05z"/>
	</g>
</g>
<g id="DESIGNED_BY_FREEPIK">
</g>
</svg>
