<?xml version="1.0"?>
<svg xmlns="http://www.w3.org/2000/svg" xmlns:xlink="http://www.w3.org/1999/xlink" version="1.1" id="Capa_1" x="0px" y="0px" width="512px" height="512px" viewBox="0 0 419.901 419.901" style="enable-background:new 0 0 419.901 419.901;" xml:space="preserve" class=""><g><g>
	<g transform="translate(0.000000,500.000000) scale(0.100000,-0.100000)"
fill="#000000" stroke="none">
<path d="M120 2505 l0 -2405 2380 0 2380 0 0 2405 0 2405 -2380 0 -2380 0 0
-2405z m2452 2011 c266 -51 513 -200 664 -400 53 -69 129 -219 121 -238 -2 -7
-179 -93 -393 -191 -345 -158 -390 -176 -399 -161 -83 142 -272 169 -369 53
-42 -49 -58 -87 -63 -150 -5 -50 -2 -67 22 -114 45 -94 108 -135 410 -270 286
-129 477 -248 609 -379 170 -168 251 -336 291 -601 40 -267 5 -518 -105 -741
-162 -330 -459 -554 -808 -609 -108 -17 -308 -12 -420 10 -154 30 -325 103
-437 188 -84 63 -221 208 -278 294 -59 89 -142 262 -131 273 5 4 162 76 349
160 l340 152 25 -34 c88 -119 178 -170 313 -176 121 -6 169 9 233 72 60 61 79
116 72 209 -13 162 -109 248 -418 377 -284 118 -450 221 -613 379 -252 244
-355 525 -325 886 35 431 241 749 591 915 90 43 228 85 322 99 98 14 316 12
397 -3z" data-original="#000000" class="active-path" data-old_color="#000000" fill="#1E88E5"/>
</g>
</g></g> 
</svg>

