<?xml version="1.0" encoding="utf-8"?>
<!-- Generator: Adobe Illustrator 23.0.5, SVG Export Plug-In . SVG Version: 6.00 Build 0)  -->
<svg version="1.1" id="Layer_1" xmlns="http://www.w3.org/2000/svg" xmlns:xlink="http://www.w3.org/1999/xlink" x="0px" y="0px"
	 viewBox="0 0 2834.65 2834.65" style="enable-background:new 0 0 2834.65 2834.65;" xml:space="preserve">
<style type="text/css">
	.st0{fill:#1E88E5;}
	.st1{fill:#FFFFFF;}
</style>
<circle class="st0" cx="1417.33" cy="1417.32" r="1417.32"/>
<path class="st1" d="M1842.52,726.38h-850.4c-147.64,0-265.75,118.11-265.75,265.75v850.39c0,147.64,118.11,265.75,265.75,265.75
	h850.4c147.64,0,265.75-118.11,265.75-265.75V992.13C2108.27,844.49,1990.16,726.38,1842.52,726.38L1842.52,726.38z M1919.3,885.83
	h29.53v236.22H1712.6V885.83H1919.3z M1222.44,1275.59c41.34-59.06,118.11-100.4,194.88-100.4s153.54,41.34,194.88,100.4
	c29.53,41.34,47.24,88.58,47.24,141.73c0,135.83-112.2,242.13-242.13,242.13c-129.92,0-242.13-106.3-242.13-242.13
	C1175.2,1364.17,1192.92,1316.93,1222.44,1275.59z M1972.45,1842.52c0,70.87-59.06,129.92-129.92,129.92h-850.4
	c-70.87,0-129.92-59.06-129.92-129.92v-566.93h206.69c-17.72,41.34-29.53,94.49-29.53,141.73c0,206.69,171.26,377.95,377.95,377.95
	s377.95-171.26,377.95-377.95c0-47.24-11.81-100.4-29.53-141.73h206.69L1972.45,1842.52z"/>
</svg>
