<?xml version="1.0" encoding="utf-8"?>
<!-- Generator: Adobe Illustrator 23.0.5, SVG Export Plug-In . SVG Version: 6.00 Build 0)  -->
<svg version="1.1" id="Layer_1" xmlns="http://www.w3.org/2000/svg" xmlns:xlink="http://www.w3.org/1999/xlink" x="0px" y="0px"
	 viewBox="0 0 128 128" style="enable-background:new 0 0 128 128;" xml:space="preserve">
<style type="text/css">
	.st0{fill:#1E88E5;}
	.st1{fill:#FFFFFF;}
</style>
<title>Artboard 63</title>
<circle class="st0" cx="64" cy="64" r="64"/>
<path class="st1" d="M92,32H36c-2.21,0-4,1.79-4,4v56c0,2.21,1.79,4,4,4h56c2.21,0,4-1.79,4-4V36C96,33.79,94.21,32,92,32z M52,86
	H42V56h10V86z M47,52c-3.31,0-6-2.69-6-6s2.69-6,6-6s6,2.69,6,6S50.31,52,47,52z M86,86H76V66c0-1.66-2.24-3-5-3c-4,0-5,5.34-5,7v16
	H56V56h10v7c0-5,4.48-7,10-7c5.52,0,10,4.48,10,10V86z"/>
</svg>
